<svg width="170" height="149" viewBox="0 0 170 149" fill="none" xmlns="http://www.w3.org/2000/svg">
<mask id="path-1-outside-1_173_1507" maskUnits="userSpaceOnUse" x="0" y="0" width="170" height="149" fill="black">
<rect fill="white" width="170" height="149"/>
<path d="M52.0545 64.328C65.0145 78.248 58.8705 105.992 40.6305 112.328C36.3105 114.056 31.4145 113.576 27.3825 111.176C23.3505 108.776 20.6625 104.744 19.9905 100.04C18.2625 89.672 22.2945 78.44 27.7665 69.8C29.2065 67.4 32.9505 69.608 31.5105 71.912C26.4225 79.88 22.1025 90.92 24.5025 100.424C26.9025 110.216 37.5585 110.984 44.6625 105.224C50.9985 99.752 54.6465 91.784 54.6465 83.336C54.9345 66.92 39.4785 57.992 24.8865 56.456C24.1185 56.456 23.3505 56.072 22.9665 55.4C22.5825 54.824 22.4865 54.152 22.6785 53.576C22.7745 53 23.1585 52.424 23.7345 52.136C31.5105 47.912 37.8465 41.288 41.7825 33.32C44.8545 27.08 47.1585 18.632 44.5665 11.816C41.2065 3.17599 30.9345 5.288 25.9425 11.144C23.1585 14.792 21.0465 18.824 19.7025 23.048C14.6145 36.104 12.5025 50.12 13.3665 64.136C13.7505 70.952 13.5585 77.672 12.9825 84.488C12.6945 87.176 8.3745 87.176 8.6625 84.488C10.6785 64.136 8.0865 43.688 1.1745 24.488C0.2145 21.896 4.3425 20.744 5.3025 23.336C7.4145 29.096 9.0465 34.952 10.3905 40.808C11.1585 36.2 12.3105 31.592 13.7505 27.08C16.7265 18.056 20.4705 7.016 29.8785 2.984C33.5265 1.16 37.7505 1.16 41.4945 2.79199C45.2385 4.51999 48.0225 7.784 49.0785 11.72C52.9185 27.464 42.9345 44.072 30.3585 53.096C38.5185 54.536 46.1025 58.472 52.0545 64.328ZM94.2735 66.632C94.3695 65.864 94.9455 65.288 95.6175 65.096C96.3855 64.808 97.1535 65 97.6335 65.576C98.2095 66.056 98.4015 66.824 98.1135 67.592C95.7135 76.616 93.0255 86.6 86.4015 93.704C79.2015 101.48 70.0815 96.488 66.8175 87.752C62.6895 76.712 60.8655 64.904 61.5375 53.096C61.8255 41.672 63.5535 30.248 66.7215 19.304C67.8735 14.504 70.5615 10.28 74.4015 7.20799C78.5295 4.808 83.9055 5.95999 86.5935 9.992C90.2415 14.792 89.4735 21.512 88.6095 27.08C85.6335 42.632 77.7615 56.744 66.0495 67.304C70.9455 105.224 86.1135 98.888 94.2735 66.632ZM67.4895 37.256C66.2415 45.32 65.6655 53.384 65.7615 61.544C75.4575 51.944 82.0815 39.464 84.4815 25.928C85.1535 21.608 86.2095 14.792 82.3695 11.624C72.5775 3.65599 68.3535 31.304 67.4895 37.256ZM132.192 66.728C133.92 64.616 136.608 67.208 134.976 69.416C131.04 74.504 125.28 77.96 118.944 79.208C116.16 85.736 113.76 94.952 105.408 95.72C98.784 96.392 96.288 89.864 95.232 84.488C94.08 78.056 93.696 71.432 94.272 64.808C94.368 64.232 94.656 63.752 95.04 63.368C93.024 56.552 93.888 48.968 99.648 44.36C104.64 40.424 111.264 42.152 115.488 46.376C122.784 53.672 123.264 65.096 120.384 74.504C124.992 73.16 129.12 70.472 132.192 66.728ZM107.808 90.44C111.456 88.04 112.512 83.336 114.24 79.496C107.808 79.112 101.856 75.752 98.4 70.28C98.4 75.464 98.688 96.584 107.808 90.44ZM115.68 75.368C118.752 66.44 119.328 54.056 110.88 48.008C106.272 44.84 101.472 46.856 99.456 51.848C95.136 62.216 104.352 75.944 115.68 75.368ZM165.091 65.864C165.667 65.48 166.435 65.48 167.107 65.864C167.779 66.152 168.163 66.824 168.163 67.592C168.163 68.36 167.779 68.936 167.107 69.32C161.539 72.968 156.451 77.288 151.843 82.088C154.915 101.96 164.323 127.4 147.907 143.432C137.539 153.512 124.963 145.16 124.003 132.296C122.467 112.616 135.139 94.856 147.331 80.648C146.851 77.384 146.659 74.12 146.563 70.856C143.971 75.464 136.579 79.4 132.739 74.024C130.435 70.856 131.011 66.248 132.163 62.888C134.755 55.88 141.571 52.616 147.907 57.512C148.387 55.88 148.867 54.248 149.443 52.712C150.499 50.12 154.627 51.272 153.667 53.864C150.979 61.16 150.115 69.032 151.171 76.712C155.491 72.68 160.099 69.032 165.091 65.864ZM144.259 65.864V65.96C144.835 64.424 145.315 62.984 145.795 61.448C139.171 54.632 132.739 67.208 136.291 71.72C138.691 74.792 143.203 68.744 144.259 65.864ZM150.787 130.76V130.856C154.819 117.896 151.747 104.264 149.155 91.4C148.867 89.672 148.483 87.944 148.195 86.12C138.115 98.792 124.387 117.224 128.611 134.024C132.643 150.248 146.755 143.432 150.787 130.76Z"/>
</mask>
<path d="M52.0545 64.328C65.0145 78.248 58.8705 105.992 40.6305 112.328C36.3105 114.056 31.4145 113.576 27.3825 111.176C23.3505 108.776 20.6625 104.744 19.9905 100.04C18.2625 89.672 22.2945 78.44 27.7665 69.8C29.2065 67.4 32.9505 69.608 31.5105 71.912C26.4225 79.88 22.1025 90.92 24.5025 100.424C26.9025 110.216 37.5585 110.984 44.6625 105.224C50.9985 99.752 54.6465 91.784 54.6465 83.336C54.9345 66.92 39.4785 57.992 24.8865 56.456C24.1185 56.456 23.3505 56.072 22.9665 55.4C22.5825 54.824 22.4865 54.152 22.6785 53.576C22.7745 53 23.1585 52.424 23.7345 52.136C31.5105 47.912 37.8465 41.288 41.7825 33.32C44.8545 27.08 47.1585 18.632 44.5665 11.816C41.2065 3.17599 30.9345 5.288 25.9425 11.144C23.1585 14.792 21.0465 18.824 19.7025 23.048C14.6145 36.104 12.5025 50.12 13.3665 64.136C13.7505 70.952 13.5585 77.672 12.9825 84.488C12.6945 87.176 8.3745 87.176 8.6625 84.488C10.6785 64.136 8.0865 43.688 1.1745 24.488C0.2145 21.896 4.3425 20.744 5.3025 23.336C7.4145 29.096 9.0465 34.952 10.3905 40.808C11.1585 36.2 12.3105 31.592 13.7505 27.08C16.7265 18.056 20.4705 7.016 29.8785 2.984C33.5265 1.16 37.7505 1.16 41.4945 2.79199C45.2385 4.51999 48.0225 7.784 49.0785 11.72C52.9185 27.464 42.9345 44.072 30.3585 53.096C38.5185 54.536 46.1025 58.472 52.0545 64.328ZM94.2735 66.632C94.3695 65.864 94.9455 65.288 95.6175 65.096C96.3855 64.808 97.1535 65 97.6335 65.576C98.2095 66.056 98.4015 66.824 98.1135 67.592C95.7135 76.616 93.0255 86.6 86.4015 93.704C79.2015 101.48 70.0815 96.488 66.8175 87.752C62.6895 76.712 60.8655 64.904 61.5375 53.096C61.8255 41.672 63.5535 30.248 66.7215 19.304C67.8735 14.504 70.5615 10.28 74.4015 7.20799C78.5295 4.808 83.9055 5.95999 86.5935 9.992C90.2415 14.792 89.4735 21.512 88.6095 27.08C85.6335 42.632 77.7615 56.744 66.0495 67.304C70.9455 105.224 86.1135 98.888 94.2735 66.632ZM67.4895 37.256C66.2415 45.32 65.6655 53.384 65.7615 61.544C75.4575 51.944 82.0815 39.464 84.4815 25.928C85.1535 21.608 86.2095 14.792 82.3695 11.624C72.5775 3.65599 68.3535 31.304 67.4895 37.256ZM132.192 66.728C133.92 64.616 136.608 67.208 134.976 69.416C131.04 74.504 125.28 77.96 118.944 79.208C116.16 85.736 113.76 94.952 105.408 95.72C98.784 96.392 96.288 89.864 95.232 84.488C94.08 78.056 93.696 71.432 94.272 64.808C94.368 64.232 94.656 63.752 95.04 63.368C93.024 56.552 93.888 48.968 99.648 44.36C104.64 40.424 111.264 42.152 115.488 46.376C122.784 53.672 123.264 65.096 120.384 74.504C124.992 73.16 129.12 70.472 132.192 66.728ZM107.808 90.44C111.456 88.04 112.512 83.336 114.24 79.496C107.808 79.112 101.856 75.752 98.4 70.28C98.4 75.464 98.688 96.584 107.808 90.44ZM115.68 75.368C118.752 66.44 119.328 54.056 110.88 48.008C106.272 44.84 101.472 46.856 99.456 51.848C95.136 62.216 104.352 75.944 115.68 75.368ZM165.091 65.864C165.667 65.48 166.435 65.48 167.107 65.864C167.779 66.152 168.163 66.824 168.163 67.592C168.163 68.36 167.779 68.936 167.107 69.32C161.539 72.968 156.451 77.288 151.843 82.088C154.915 101.96 164.323 127.4 147.907 143.432C137.539 153.512 124.963 145.16 124.003 132.296C122.467 112.616 135.139 94.856 147.331 80.648C146.851 77.384 146.659 74.12 146.563 70.856C143.971 75.464 136.579 79.4 132.739 74.024C130.435 70.856 131.011 66.248 132.163 62.888C134.755 55.88 141.571 52.616 147.907 57.512C148.387 55.88 148.867 54.248 149.443 52.712C150.499 50.12 154.627 51.272 153.667 53.864C150.979 61.16 150.115 69.032 151.171 76.712C155.491 72.68 160.099 69.032 165.091 65.864ZM144.259 65.864V65.96C144.835 64.424 145.315 62.984 145.795 61.448C139.171 54.632 132.739 67.208 136.291 71.72C138.691 74.792 143.203 68.744 144.259 65.864ZM150.787 130.76V130.856C154.819 117.896 151.747 104.264 149.155 91.4C148.867 89.672 148.483 87.944 148.195 86.12C138.115 98.792 124.387 117.224 128.611 134.024C132.643 150.248 146.755 143.432 150.787 130.76Z" fill="black"/>
<path d="M52.0545 64.328L52.7864 63.6466L52.7715 63.6305L52.7558 63.6152L52.0545 64.328ZM40.6305 112.328L40.3024 111.383L40.2806 111.391L40.2591 111.4L40.6305 112.328ZM27.3825 111.176L27.894 110.317L27.894 110.317L27.3825 111.176ZM19.9905 100.04L20.9805 99.8986L20.9788 99.8871L20.9769 99.8756L19.9905 100.04ZM27.7665 69.8L28.6113 70.3351L28.6178 70.3248L28.624 70.3145L27.7665 69.8ZM31.5105 71.912L32.3534 72.4502L32.3585 72.442L31.5105 71.912ZM24.5025 100.424L25.4738 100.186L25.4721 100.179L24.5025 100.424ZM44.6625 105.224L45.2923 106.001L45.3044 105.991L45.3161 105.981L44.6625 105.224ZM54.6465 83.336L53.6467 83.3185L53.6465 83.3272V83.336H54.6465ZM24.8865 56.456L24.9912 55.4615L24.939 55.456H24.8865V56.456ZM22.9665 55.4L23.8347 54.9039L23.8177 54.874L23.7986 54.8453L22.9665 55.4ZM22.6785 53.576L23.6272 53.8922L23.652 53.8178L23.6649 53.7404L22.6785 53.576ZM23.7345 52.136L24.1817 53.0304L24.1969 53.0228L24.2118 53.0147L23.7345 52.136ZM41.7825 33.32L42.6791 33.7629L42.6797 33.7617L41.7825 33.32ZM44.5665 11.816L45.5012 11.4605L45.4985 11.4536L44.5665 11.816ZM25.9425 11.144L25.1815 10.4953L25.1639 10.5158L25.1475 10.5373L25.9425 11.144ZM19.7025 23.048L20.6342 23.4111L20.6458 23.3815L20.6554 23.3512L19.7025 23.048ZM13.3665 64.136L14.3649 64.0797L14.3646 64.0745L13.3665 64.136ZM12.9825 84.488L13.9768 84.5945L13.978 84.5834L13.9789 84.5722L12.9825 84.488ZM8.6625 84.488L9.65684 84.5945L9.65763 84.5866L8.6625 84.488ZM1.1745 24.488L2.11543 24.1493L2.11225 24.1407L1.1745 24.488ZM5.3025 23.336L6.24138 22.9917L6.24025 22.9887L5.3025 23.336ZM10.3905 40.808L9.41584 41.0317L11.3769 40.9724L10.3905 40.808ZM13.7505 27.08L12.8008 26.7668L12.7978 26.776L13.7505 27.08ZM29.8785 2.984L30.2724 3.90314L30.2994 3.89157L30.3257 3.87842L29.8785 2.984ZM41.4945 2.79199L41.9136 1.88403L41.9039 1.87956L41.8941 1.8753L41.4945 2.79199ZM49.0785 11.72L50.05 11.483L50.0473 11.4719L50.0443 11.4609L49.0785 11.72ZM30.3585 53.096L29.7755 52.2835L27.846 53.6681L30.1847 54.0808L30.3585 53.096ZM52.0545 64.328L51.3226 65.0094C57.5203 71.6662 59.2098 81.7132 57.0684 90.9461C54.9274 100.177 49.0134 108.357 40.3024 111.383L40.6305 112.328L40.9586 113.273C50.4876 109.963 56.7656 101.103 59.0166 91.3979C61.2672 81.6948 59.5488 70.9098 52.7864 63.6466L52.0545 64.328ZM40.6305 112.328L40.2591 111.4C36.2438 113.006 31.6734 112.566 27.894 110.317L27.3825 111.176L26.871 112.035C31.1556 114.586 36.3772 115.106 41.0019 113.256L40.6305 112.328ZM27.3825 111.176L27.894 110.317C24.1235 108.072 21.61 104.305 20.9805 99.8986L19.9905 100.04L19.0006 100.181C19.715 105.183 22.5775 109.48 26.871 112.035L27.3825 111.176ZM19.9905 100.04L20.9769 99.8756C19.3057 89.8484 23.2056 78.8703 28.6113 70.3351L27.7665 69.8L26.9217 69.2649C21.3834 78.0097 17.2193 89.4956 19.0041 100.204L19.9905 100.04ZM27.7665 69.8L28.624 70.3145C28.838 69.9578 29.0956 69.8209 29.3367 69.778C29.6045 69.7304 29.9255 69.789 30.2188 69.9582C30.5133 70.1281 30.7106 70.369 30.7906 70.5999C30.8602 70.8006 30.8662 71.0561 30.6625 71.382L31.5105 71.912L32.3585 72.442C32.8748 71.6159 32.9528 70.7314 32.6804 69.9451C32.4184 69.189 31.8597 68.5959 31.2182 68.2258C30.5755 67.855 29.7805 67.6676 28.9863 67.809C28.1654 67.9551 27.415 68.4422 26.909 69.2855L27.7665 69.8ZM31.5105 71.912L30.6677 71.3738C25.5364 79.4096 21.0292 90.7539 23.5329 100.669L24.5025 100.424L25.4721 100.179C23.1758 91.0861 27.3086 80.3504 32.3533 72.4502L31.5105 71.912ZM24.5025 100.424L23.5312 100.662C24.8255 105.943 28.4013 108.874 32.6407 109.64C36.8192 110.395 41.5477 109.037 45.2923 106.001L44.6625 105.224L44.0327 104.447C40.6733 107.171 36.5218 108.309 32.9963 107.672C29.5318 107.046 26.5795 104.697 25.4738 100.186L24.5025 100.424ZM44.6625 105.224L45.3161 105.981C51.8731 100.318 55.6465 92.0733 55.6465 83.336H54.6465H53.6465C53.6465 91.4947 50.1239 99.186 44.0089 104.467L44.6625 105.224ZM54.6465 83.336L55.6464 83.3535C55.7967 74.7839 51.8215 68.1682 45.9673 63.5321C40.1367 58.9146 32.4337 56.2449 24.9912 55.4615L24.8865 56.456L24.7818 57.4505C31.9313 58.2031 39.2523 60.7654 44.7257 65.0999C50.1755 69.4158 53.7843 75.4721 53.6467 83.3185L54.6465 83.336ZM24.8865 56.456V55.456C24.4234 55.456 24.0155 55.2201 23.8347 54.9039L22.9665 55.4L22.0983 55.8961C22.6856 56.9239 23.8136 57.456 24.8865 57.456V56.456ZM22.9665 55.4L23.7986 54.8453C23.5693 54.5015 23.5417 54.1485 23.6272 53.8922L22.6785 53.576L21.7298 53.2598C21.4313 54.1555 21.5957 55.1465 22.1345 55.9547L22.9665 55.4ZM22.6785 53.576L23.6649 53.7404C23.7123 53.4561 23.9128 53.1649 24.1817 53.0304L23.7345 52.136L23.2873 51.2416C22.4042 51.6831 21.8367 52.5438 21.6921 53.4116L22.6785 53.576ZM23.7345 52.136L24.2118 53.0147C32.1714 48.691 38.6528 41.9137 42.6791 33.7629L41.7825 33.32L40.8859 32.8771C37.0402 40.6623 30.8496 47.133 23.2572 51.2573L23.7345 52.136ZM41.7825 33.32L42.6797 33.7617C45.7858 27.4525 48.2456 18.6774 45.5012 11.4606L44.5665 11.816L43.6318 12.1714C46.0714 18.5866 43.9232 26.7075 40.8853 32.8783L41.7825 33.32ZM44.5665 11.816L45.4985 11.4536C44.588 9.11212 43.1827 7.44115 41.4627 6.38936C39.7494 5.34169 37.7877 4.94702 35.8167 5.04524C31.9024 5.2403 27.8378 7.37923 25.1815 10.4953L25.9425 11.144L26.7035 11.7927C29.0392 9.05277 32.6066 7.20769 35.9163 7.04276C37.5573 6.96098 39.1056 7.2923 40.4193 8.09563C41.7263 8.89484 42.8651 10.1999 43.6345 12.1784L44.5665 11.816ZM25.9425 11.144L25.1475 10.5373C22.2961 14.2736 20.1295 18.4078 18.7496 22.7448L19.7025 23.048L20.6554 23.3512C21.9635 19.2402 24.0209 15.3103 26.7375 11.7507L25.9425 11.144ZM19.7025 23.048L18.7708 22.6849C13.6287 35.8796 11.4957 50.0408 12.3684 64.1975L13.3665 64.136L14.3646 64.0745C13.5093 50.1992 15.6003 36.3284 20.6342 23.4111L19.7025 23.048ZM13.3665 64.136L12.3681 64.1922C12.7489 70.9523 12.559 77.6243 11.9861 84.4038L12.9825 84.488L13.9789 84.5722C14.558 77.7197 14.7521 70.9517 14.3649 64.0798L13.3665 64.136ZM12.9825 84.488L11.9882 84.3815C11.9134 85.0797 11.3269 85.504 10.6065 85.504C10.2587 85.504 9.99552 85.3942 9.84877 85.2606C9.73266 85.1549 9.61623 84.9733 9.65681 84.5945L8.6625 84.488L7.66819 84.3815C7.56477 85.3467 7.88035 86.1731 8.50223 86.7394C9.09348 87.2778 9.87431 87.504 10.6065 87.504C12.0461 87.504 13.7636 86.5843 13.9768 84.5945L12.9825 84.488ZM8.6625 84.488L9.65763 84.5866C11.6885 64.0849 9.07718 43.4876 2.11539 24.1493L1.1745 24.488L0.233613 24.8267C7.09582 43.8884 9.66855 64.1871 7.66737 84.3894L8.6625 84.488ZM1.1745 24.488L2.11225 24.1407C1.97071 23.7585 2.03762 23.5254 2.13014 23.3757C2.24101 23.1964 2.46537 23.021 2.7873 22.9312C3.44342 22.7481 4.10737 22.9884 4.36475 23.6833L5.3025 23.336L6.24025 22.9887C5.53764 21.0916 3.65758 20.6119 2.2497 21.0048C1.53963 21.203 0.851988 21.6396 0.428858 22.3243C-0.0126161 23.0385 -0.101709 23.9215 0.236751 24.8353L1.1745 24.488ZM5.3025 23.336L4.36362 23.6803C6.45771 29.3914 8.07867 35.2054 9.41584 41.0317L10.3905 40.808L11.3652 40.5843C10.0143 34.6986 8.37129 28.8006 6.24138 22.9917L5.3025 23.336ZM10.3905 40.808L11.3769 40.9724C12.1361 36.4171 13.276 31.8559 14.7032 27.384L13.7505 27.08L12.7978 26.776C11.345 31.3281 10.1809 35.9829 9.40411 40.6436L10.3905 40.808ZM13.7505 27.08L14.7002 27.3932C16.1923 22.8689 17.8448 17.9455 20.2729 13.6523C22.6955 9.3689 25.8419 5.80195 30.2724 3.90314L29.8785 2.984L29.4846 2.06485C24.5071 4.19805 21.0775 8.1671 18.5321 12.6677C15.9922 17.1585 14.2848 22.2671 12.8008 26.7668L13.7505 27.08ZM29.8785 2.984L30.3257 3.87842C33.6903 2.19612 37.6031 2.18663 41.0949 3.70869L41.4945 2.79199L41.8941 1.8753C37.8979 0.133362 33.3627 0.123871 29.4313 2.08957L29.8785 2.984ZM41.4945 2.79199L41.0754 3.69995C44.5559 5.30633 47.1353 8.33617 48.1127 11.9791L49.0785 11.72L50.0443 11.4609C48.9097 7.23183 45.9211 3.73366 41.9136 1.88403L41.4945 2.79199ZM49.0785 11.72L48.107 11.9569C51.8135 27.1535 42.1679 43.3913 29.7755 52.2835L30.3585 53.096L30.9415 53.9085C43.7011 44.7527 54.0236 27.7745 50.05 11.483L49.0785 11.72ZM30.3585 53.096L30.1847 54.0808C38.1427 55.4851 45.5434 59.3248 51.3532 65.0408L52.0545 64.328L52.7558 63.6152C46.6616 57.6192 38.8943 53.5869 30.5323 52.1112L30.3585 53.096ZM94.2735 66.632L95.243 66.8772L95.2581 66.8173L95.2658 66.756L94.2735 66.632ZM95.6175 65.096L95.8922 66.0575L95.9309 66.0465L95.9686 66.0323L95.6175 65.096ZM97.6335 65.576L96.8653 66.2162L96.9235 66.286L96.9933 66.3442L97.6335 65.576ZM98.1135 67.592L97.1772 67.2409L97.1598 67.2872L97.1471 67.335L98.1135 67.592ZM86.4015 93.704L85.6701 93.022L85.6677 93.0246L86.4015 93.704ZM66.8175 87.752L67.7543 87.402L67.7542 87.4018L66.8175 87.752ZM61.5375 53.096L62.5359 53.1528L62.5368 53.137L62.5372 53.1212L61.5375 53.096ZM66.7215 19.304L67.6821 19.5821L67.6885 19.5599L67.6939 19.5374L66.7215 19.304ZM74.4015 7.20799L73.8989 6.34349L73.8347 6.38078L73.7768 6.42713L74.4015 7.20799ZM86.5935 9.992L85.7615 10.5467L85.7786 10.5724L85.7973 10.5971L86.5935 9.992ZM88.6095 27.08L89.5917 27.2679L89.595 27.2507L89.5977 27.2333L88.6095 27.08ZM66.0495 67.304L65.3799 66.5613L64.9906 66.9123L65.0577 67.432L66.0495 67.304ZM67.4895 37.256L68.4778 37.4089L68.4791 37.3997L67.4895 37.256ZM65.7615 61.544L64.7616 61.5558L64.7893 63.9138L66.4651 62.2546L65.7615 61.544ZM84.4815 25.928L85.4661 26.1026L85.468 26.0922L85.4696 26.0817L84.4815 25.928ZM82.3695 11.624L83.0059 10.8526L83.0007 10.8483L82.3695 11.624ZM94.2735 66.632L95.2658 66.756C95.3064 66.4313 95.5595 66.1526 95.8922 66.0575L95.6175 65.096L95.3428 64.1345C94.3315 64.4234 93.4326 65.2967 93.2812 66.508L94.2735 66.632ZM95.6175 65.096L95.9686 66.0323C96.3724 65.8809 96.68 65.9938 96.8653 66.2162L97.6335 65.576L98.4017 64.9358C97.627 64.0062 96.3986 63.7351 95.2664 64.1597L95.6175 65.096ZM97.6335 65.576L96.9933 66.3442C97.2157 66.5295 97.3286 66.8371 97.1772 67.2409L98.1135 67.592L99.0498 67.9431C99.4744 66.8109 99.2033 65.5825 98.2737 64.8078L97.6335 65.576ZM98.1135 67.592L97.1471 67.335C94.734 76.4084 92.0941 86.1325 85.6701 93.022L86.4015 93.704L87.1329 94.386C93.9569 87.0675 96.693 76.8236 99.0799 67.849L98.1135 67.592ZM86.4015 93.704L85.6677 93.0246C82.3231 96.6368 78.6671 97.1971 75.4898 95.9856C72.23 94.7428 69.3105 91.5672 67.7543 87.402L66.8175 87.752L65.8807 88.102C67.5885 92.6728 70.861 96.3612 74.7772 97.8544C78.7759 99.379 83.2799 98.5472 87.1353 94.3834L86.4015 93.704ZM66.8175 87.752L67.7542 87.4018C63.6742 76.4901 61.8719 64.8206 62.5359 53.1528L61.5375 53.096L60.5391 53.0392C59.8591 64.9873 61.7048 76.9339 65.8808 88.1022L66.8175 87.752ZM61.5375 53.096L62.5372 53.1212C62.8231 41.7804 64.5385 30.4415 67.6821 19.5821L66.7215 19.304L65.7609 19.0259C62.5685 30.0545 60.8279 41.5636 60.5378 53.0708L61.5375 53.096ZM66.7215 19.304L67.6939 19.5374C68.794 14.9537 71.3595 10.9222 75.0262 7.98886L74.4015 7.20799L73.7768 6.42713C69.7635 9.63778 66.953 14.0543 65.7491 19.0706L66.7215 19.304ZM74.4015 7.20799L74.9041 8.0725C78.5875 5.93103 83.3744 6.96605 85.7615 10.5467L86.5935 9.992L87.4256 9.4373C84.4366 4.95394 78.4715 3.68497 73.8989 6.34349L74.4015 7.20799ZM86.5935 9.992L85.7973 10.5971C87.4589 12.7834 88.1452 15.4443 88.2949 18.3003C88.445 21.1639 88.0528 24.1462 87.6213 26.9267L88.6095 27.08L89.5977 27.2333C90.0302 24.4458 90.454 21.2841 90.2921 18.1956C90.1298 15.0997 89.3761 12.0006 87.3897 9.38692L86.5935 9.992ZM88.6095 27.08L87.6273 26.892C84.6916 42.2335 76.9274 56.1496 65.3799 66.5613L66.0495 67.304L66.7191 68.0467C78.5956 57.3384 86.5754 43.0305 89.5917 27.2679L88.6095 27.08ZM66.0495 67.304L65.0577 67.432C66.2876 76.9573 68.1731 83.8095 70.4934 88.1998C72.7953 92.5551 75.7314 94.8148 79.0969 94.2712C80.711 94.0105 82.2663 93.1136 83.73 91.7497C85.1964 90.3831 86.6187 88.5043 87.9734 86.1812C90.6826 81.5353 93.1895 74.9945 95.243 66.8772L94.2735 66.632L93.304 66.3867C91.2775 74.3975 88.8284 80.7447 86.2456 85.1738C84.9543 87.3882 83.6466 89.0936 82.3665 90.2865C81.0837 91.4819 79.876 92.1195 78.7781 92.2968C76.7196 92.6292 74.4357 91.3789 72.2616 87.2652C70.1059 83.1865 68.2594 76.6107 67.0413 67.1759L66.0495 67.304ZM67.4895 37.256L66.5013 37.1031C65.2449 45.2213 64.6649 53.3404 64.7616 61.5558L65.7615 61.544L66.7614 61.5322C66.6661 53.4276 67.2381 45.4187 68.4777 37.4089L67.4895 37.256ZM65.7615 61.544L66.4651 62.2546C76.3059 52.5113 83.0296 39.8448 85.4661 26.1026L84.4815 25.928L83.4969 25.7534C81.1334 39.0832 74.6092 51.3767 65.0579 60.8334L65.7615 61.544ZM84.4815 25.928L85.4696 26.0817C85.8031 23.9376 86.2542 21.053 86.1163 18.2941C85.979 15.5492 85.2489 12.7031 83.0059 10.8526L82.3695 11.624L81.7331 12.3954C83.3301 13.7129 83.992 15.8588 84.1187 18.3939C84.2448 20.915 83.8319 23.5984 83.4934 25.7743L84.4815 25.928ZM82.3695 11.624L83.0007 10.8483C81.6566 9.75462 80.3019 9.18707 78.9494 9.19357C77.5917 9.20009 76.397 9.78418 75.3762 10.6782C73.3838 12.423 71.8416 15.5318 70.6402 18.8825C68.2141 25.6487 66.9311 34.1414 66.4999 37.1123L67.4895 37.256L68.4791 37.3997C68.9119 34.4186 70.1729 26.1113 72.5228 19.5575C73.7094 16.2482 75.1132 13.567 76.6938 12.1828C77.4595 11.5123 78.208 11.1972 78.959 11.1935C79.7151 11.1899 80.6344 11.5014 81.7383 12.3996L82.3695 11.624ZM132.192 66.728L132.965 67.3623L132.966 67.3612L132.192 66.728ZM134.976 69.416L135.767 70.0279L135.774 70.0192L135.78 70.0104L134.976 69.416ZM118.944 79.208L118.751 78.2269L118.232 78.3291L118.024 78.8157L118.944 79.208ZM105.408 95.72L105.316 94.7242L105.307 94.7251L105.408 95.72ZM95.232 84.488L94.2477 84.6643L94.2491 84.6725L94.2508 84.6807L95.232 84.488ZM94.272 64.808L93.2856 64.6436L93.2792 64.6823L93.2758 64.7214L94.272 64.808ZM95.04 63.368L95.7471 64.0751L96.1676 63.6546L95.9989 63.0844L95.04 63.368ZM99.648 44.36L99.0288 43.5747L99.0233 43.5791L99.648 44.36ZM120.384 74.504L119.428 74.2113L118.886 75.9827L120.664 75.464L120.384 74.504ZM107.808 90.44L107.258 89.6045L107.249 89.6106L107.808 90.44ZM114.24 79.496L115.152 79.9064L115.747 78.5842L114.3 78.4978L114.24 79.496ZM98.4 70.28L99.2455 69.746L97.4 66.824V70.28H98.4ZM115.68 75.368L115.731 76.3667L116.406 76.3324L116.626 75.6934L115.68 75.368ZM110.88 48.008L111.462 47.1949L111.454 47.1893L111.447 47.184L110.88 48.008ZM99.456 51.848L100.379 52.2326L100.383 52.2225L99.456 51.848ZM132.192 66.728L132.966 67.3612C133.247 67.0182 133.486 66.9515 133.627 66.9456C133.786 66.939 133.976 67.0037 134.15 67.1716C134.487 67.4974 134.678 68.1373 134.172 68.8216L134.976 69.416L135.78 70.0104C136.906 68.4867 136.569 66.7266 135.538 65.7324C135.028 65.2403 134.324 64.915 133.544 64.9474C132.746 64.9805 132.001 65.3818 131.418 66.0948L132.192 66.728ZM134.976 69.416L134.185 68.8041C130.403 73.6928 124.86 77.0236 118.751 78.2269L118.944 79.208L119.137 80.1891C125.7 78.8964 131.677 75.3152 135.767 70.0279L134.976 69.416ZM118.944 79.208L118.024 78.8157C116.583 82.1944 115.353 85.9669 113.414 89.0974C111.514 92.1646 109.064 94.3796 105.316 94.7242L105.408 95.72L105.5 96.7158C110.104 96.2924 113.03 93.5154 115.114 90.1506C117.159 86.8491 118.521 82.7496 119.864 79.6003L118.944 79.208ZM105.408 95.72L105.307 94.7251C102.42 95.018 100.464 93.7786 99.046 91.7912C97.5874 89.7469 96.7328 86.9401 96.2132 84.2953L95.232 84.488L94.2508 84.6807C94.7872 87.4119 95.7086 90.5571 97.418 92.9528C99.1679 95.4054 101.772 97.094 105.509 96.7149L105.408 95.72ZM95.232 84.488L96.2163 84.3117C95.0785 77.9586 94.7005 71.4232 95.2682 64.8946L94.272 64.808L93.2758 64.7214C92.6915 71.4408 93.0815 78.1534 94.2477 84.6643L95.232 84.488ZM94.272 64.808L95.2584 64.9724C95.3141 64.6384 95.482 64.3402 95.7471 64.0751L95.04 63.368L94.3329 62.6609C93.83 63.1638 93.4219 63.8256 93.2856 64.6436L94.272 64.808ZM95.04 63.368L95.9989 63.0844C94.0487 56.4906 94.9474 49.4011 100.273 45.1409L99.648 44.36L99.0233 43.5791C92.8286 48.5349 91.9993 56.6134 94.0811 63.6516L95.04 63.368ZM99.648 44.36L100.267 45.1453C104.721 41.6332 110.773 43.0757 114.781 47.0831L115.488 46.376L116.195 45.6689C111.755 41.2283 104.559 39.2148 99.0288 43.5747L99.648 44.36ZM115.488 46.376L114.781 47.0831C121.706 54.0087 122.254 64.9803 119.428 74.2113L120.384 74.504L121.34 74.7967C124.274 65.2117 123.862 53.3353 116.195 45.6689L115.488 46.376ZM120.384 74.504L120.664 75.464C125.462 74.0647 129.763 71.265 132.965 67.3623L132.192 66.728L131.419 66.0937C128.477 69.679 124.522 72.2553 120.104 73.544L120.384 74.504ZM107.808 90.44L108.358 91.2754C110.401 89.9309 111.676 87.967 112.646 85.9397C113.132 84.9251 113.551 83.8713 113.95 82.8533C114.353 81.8242 114.733 80.8382 115.152 79.9064L114.24 79.496L113.328 79.0856C112.883 80.0738 112.483 81.1158 112.088 82.1237C111.689 83.1427 111.292 84.1349 110.842 85.0763C109.94 86.961 108.863 88.5491 107.258 89.6046L107.808 90.44ZM114.24 79.496L114.3 78.4978C108.174 78.1321 102.522 74.933 99.2455 69.746L98.4 70.28L97.5545 70.814C101.19 76.571 107.442 80.0919 114.18 80.4942L114.24 79.496ZM98.4 70.28H97.4C97.4 72.8663 97.4688 79.5501 98.7105 84.8367C99.322 87.4403 100.266 89.9324 101.816 91.3491C102.626 92.0892 103.618 92.5509 104.786 92.5504C105.929 92.5499 107.124 92.1067 108.367 91.2694L107.808 90.44L107.249 89.6106C106.212 90.3093 105.403 90.5501 104.785 90.5504C104.191 90.5506 103.665 90.3298 103.165 89.8729C102.096 88.8956 101.258 86.9357 100.658 84.3793C99.4752 79.3459 99.4 72.8777 99.4 70.28H98.4ZM115.68 75.368L116.626 75.6934C118.196 71.1284 119.142 65.6506 118.594 60.5023C118.046 55.3437 115.985 50.4327 111.462 47.1949L110.88 48.008L110.298 48.8211C114.223 51.6313 116.098 55.9363 116.606 60.7137C117.114 65.5014 116.236 70.6796 114.734 75.0426L115.68 75.368ZM110.88 48.008L111.447 47.184C108.913 45.4425 106.227 45.0717 103.856 45.9274C101.508 46.7751 99.6201 48.7712 98.5288 51.4735L99.456 51.848L100.383 52.2225C101.308 49.9328 102.828 48.4249 104.536 47.8086C106.221 47.2003 108.239 47.4055 110.313 48.832L110.88 48.008ZM99.456 51.848L98.5329 51.4634C96.2124 57.0327 97.5527 63.4129 100.874 68.276C104.197 73.1406 109.633 76.6768 115.731 76.3667L115.68 75.368L115.629 74.3693C110.399 74.6352 105.563 71.5954 102.526 67.148C99.4873 62.6991 98.3796 57.0313 100.379 52.2326L99.456 51.848ZM165.091 65.864L165.627 66.7083L165.636 66.7023L165.645 66.6961L165.091 65.864ZM167.107 65.864L166.611 66.7322L166.66 66.7606L166.713 66.7831L167.107 65.864ZM167.107 69.32L166.611 68.4518L166.584 68.4669L166.559 68.4835L167.107 69.32ZM151.843 82.088L151.121 81.3955L150.779 81.7521L150.854 82.2408L151.843 82.088ZM147.907 143.432L148.604 144.149L148.605 144.147L147.907 143.432ZM124.003 132.296L125 132.222L125 132.218L124.003 132.296ZM147.331 80.648L148.09 81.2992L148.386 80.9534L148.32 80.5025L147.331 80.648ZM146.563 70.856L147.562 70.8266L147.456 67.2274L145.691 70.3657L146.563 70.856ZM132.739 74.024L133.553 73.4427L133.547 73.4358L132.739 74.024ZM132.163 62.888L131.225 62.5411L131.221 62.5523L131.217 62.5637L132.163 62.888ZM147.907 57.512L147.295 58.3033L148.453 59.198L148.866 57.7942L147.907 57.512ZM149.443 52.712L148.517 52.3347L148.511 52.3477L148.506 52.3609L149.443 52.712ZM153.667 53.864L152.729 53.5167L152.728 53.5183L153.667 53.864ZM151.171 76.712L150.18 76.8482L150.443 78.7593L151.853 77.4431L151.171 76.712ZM144.259 65.864H145.259L143.32 65.5197L144.259 65.864ZM144.259 65.96H143.259L145.195 66.3111L144.259 65.96ZM145.795 61.448L146.749 61.7463L146.927 61.178L146.512 60.7511L145.795 61.448ZM136.291 71.72L137.079 71.1044L137.076 71.1014L136.291 71.72ZM150.787 130.76H151.787L149.834 130.457L150.787 130.76ZM150.787 130.856H149.787L151.742 131.153L150.787 130.856ZM149.155 91.4L148.168 91.5644L148.171 91.581L148.174 91.5975L149.155 91.4ZM148.195 86.12L149.183 85.964L148.828 83.7178L147.412 85.4975L148.195 86.12ZM128.611 134.024L129.581 133.783L129.581 133.78L128.611 134.024ZM165.091 65.864L165.645 66.6961C165.863 66.5512 166.219 66.5087 166.611 66.7322L167.107 65.864L167.603 64.9958C166.65 64.4513 165.471 64.4088 164.536 65.0319L165.091 65.864ZM167.107 65.864L166.713 66.7831C166.957 66.8877 167.163 67.1539 167.163 67.592H168.163H169.163C169.163 66.4941 168.601 65.4163 167.501 64.9449L167.107 65.864ZM168.163 67.592H167.163C167.163 67.9521 167.016 68.22 166.611 68.4518L167.107 69.32L167.603 70.1882C168.541 69.652 169.163 68.7679 169.163 67.592H168.163ZM167.107 69.32L166.559 68.4835C160.922 72.1768 155.776 76.5466 151.121 81.3955L151.843 82.088L152.564 82.7805C157.125 78.0294 162.156 73.7592 167.655 70.1565L167.107 69.32ZM151.843 82.088L150.854 82.2408C151.626 87.2342 152.8 92.5958 153.851 97.9932C154.906 103.414 155.847 108.906 156.185 114.263C156.86 124.974 155.118 134.992 147.208 142.717L147.907 143.432L148.605 144.147C157.111 135.84 158.873 125.122 158.181 114.137C157.835 108.646 156.873 103.05 155.814 97.6108C154.75 92.1482 153.595 86.8778 152.831 81.9352L151.843 82.088ZM147.907 143.432L147.21 142.715C142.312 147.477 137.043 147.8 132.898 145.586C128.682 143.334 125.458 138.363 125 132.222L124.003 132.296L123.006 132.37C123.507 139.094 127.051 144.73 131.956 147.35C136.931 150.008 143.134 149.467 148.604 144.149L147.907 143.432ZM124.003 132.296L125 132.218C123.499 112.991 135.888 95.518 148.09 81.2992L147.331 80.648L146.572 79.9968C134.389 94.194 121.434 112.241 123.006 132.374L124.003 132.296ZM147.331 80.648L148.32 80.5025C147.848 77.2936 147.658 74.0732 147.562 70.8266L146.563 70.856L145.563 70.8854C145.66 74.1668 145.853 77.4744 146.341 80.7935L147.331 80.648ZM146.563 70.856L145.691 70.3657C144.513 72.4598 142.212 74.4287 139.801 75.2357C138.609 75.635 137.441 75.7332 136.394 75.4743C135.365 75.2196 134.381 74.6033 133.552 73.4428L132.739 74.024L131.925 74.6052C133.016 76.1327 134.397 77.0404 135.914 77.4157C137.414 77.7868 138.977 77.621 140.436 77.1323C143.33 76.1633 146.02 73.8602 147.434 71.3463L146.563 70.856ZM132.739 74.024L133.547 73.4358C132.558 72.0749 132.155 70.3598 132.155 68.528C132.155 66.6973 132.559 64.817 133.109 63.2123L132.163 62.888L131.217 62.5637C130.615 64.319 130.155 66.4227 130.155 68.528C130.155 70.6322 130.616 72.8051 131.93 74.6122L132.739 74.024ZM132.163 62.888L133.101 63.2349C134.319 59.9395 136.493 57.6255 138.988 56.6699C141.446 55.7285 144.371 56.0437 147.295 58.3033L147.907 57.512L148.518 56.7207C145.106 54.0843 141.455 53.5835 138.273 54.8021C135.129 56.0065 132.598 58.8285 131.225 62.5411L132.163 62.888ZM147.907 57.512L148.866 57.7942C149.348 56.1554 149.818 54.5591 150.379 53.0631L149.443 52.712L148.506 52.3609C147.915 53.9369 147.425 55.6046 146.947 57.2298L147.907 57.512ZM149.443 52.712L150.369 53.0893C150.664 52.3646 151.375 52.1233 152.045 52.308C152.374 52.3988 152.6 52.5753 152.711 52.7539C152.803 52.9026 152.871 53.1345 152.729 53.5167L153.667 53.864L154.605 54.2113C154.943 53.2975 154.854 52.4134 154.41 51.6981C153.984 51.0127 153.292 50.5772 152.577 50.38C151.158 49.9887 149.277 50.4674 148.517 52.3347L149.443 52.712ZM153.667 53.864L152.728 53.5183C149.984 60.9672 149.102 69.0047 150.18 76.8482L151.171 76.712L152.161 76.5758C151.128 69.0593 151.973 61.3528 154.605 54.2097L153.667 53.864ZM151.171 76.712L151.853 77.4431C156.134 73.4479 160.693 69.8392 165.627 66.7083L165.091 65.864L164.555 65.0197C159.504 68.2248 154.848 71.9121 150.488 75.9809L151.171 76.712ZM144.259 65.864H143.259V65.96H144.259H145.259V65.864H144.259ZM144.259 65.96L145.195 66.3111C145.779 64.7528 146.265 63.2942 146.749 61.7463L145.795 61.448L144.84 61.1497C144.364 62.6738 143.89 64.0952 143.322 65.6089L144.259 65.96ZM145.795 61.448L146.512 60.7511C144.681 58.8667 142.711 58.1904 140.823 58.5618C138.999 58.9206 137.488 60.2137 136.407 61.7639C135.317 63.3261 134.58 65.2632 134.353 67.1326C134.129 68.9825 134.39 70.922 135.505 72.3386L136.291 71.72L137.076 71.1014C136.416 70.262 136.149 68.9375 136.338 67.3734C136.526 65.8288 137.145 64.2019 138.047 62.9081C138.958 61.6023 140.075 60.7473 141.209 60.5242C142.279 60.3136 143.597 60.6213 145.078 62.1449L145.795 61.448ZM136.291 71.72L135.503 72.3356C135.901 72.8458 136.386 73.2175 136.952 73.4134C137.516 73.6088 138.089 73.6046 138.625 73.4802C139.662 73.2401 140.642 72.5367 141.469 71.7476C143.137 70.1563 144.616 67.7953 145.198 66.2083L144.259 65.864L143.32 65.5197C142.846 66.8127 141.54 68.9157 140.089 70.3004C139.356 70.9993 138.692 71.4119 138.174 71.5318C137.934 71.5874 137.752 71.5742 137.606 71.5236C137.462 71.4735 137.28 71.3622 137.079 71.1044L136.291 71.72ZM150.787 130.76H149.787V130.856H150.787H151.787V130.76H150.787ZM150.787 130.856L151.742 131.153C155.865 117.9 152.712 103.991 150.135 91.2025L149.155 91.4L148.174 91.5975C150.782 104.537 153.773 117.892 149.832 130.559L150.787 130.856ZM149.155 91.4L150.141 91.2356C149.995 90.3568 149.824 89.479 149.657 88.6077C149.489 87.7316 149.324 86.8581 149.183 85.964L148.195 86.12L147.207 86.276C147.354 87.2059 147.525 88.1084 147.693 88.9843C147.862 89.865 148.027 90.7152 148.168 91.5644L149.155 91.4ZM148.195 86.12L147.412 85.4975C142.371 91.835 136.36 99.6818 132.145 108.075C127.935 116.459 125.444 125.53 127.641 134.268L128.611 134.024L129.581 133.78C127.553 125.718 129.815 117.173 133.932 108.973C138.045 100.782 143.939 93.077 148.977 86.7425L148.195 86.12ZM128.611 134.024L127.64 134.265C128.681 138.454 130.41 141.314 132.615 142.944C134.849 144.597 137.444 144.892 139.966 144.192C144.924 142.814 149.656 137.612 151.74 131.063L150.787 130.76L149.834 130.457C147.886 136.58 143.546 141.122 139.431 142.264C137.417 142.824 135.477 142.573 133.804 141.337C132.103 140.078 130.556 137.706 129.581 133.783L128.611 134.024Z" fill="black" mask="url(#path-1-outside-1_173_1507)"/>
</svg>
