<svg width="967" height="521" viewBox="0 0 967 521" fill="none" xmlns="http://www.w3.org/2000/svg">
<path fill-rule="evenodd" clip-rule="evenodd" d="M293.716 31.6423C291.33 40.2833 286.737 49.3439 281.421 55.3716C274.64 63.0647 270.772 63.6673 261.363 59.3642C254.182 56.0788 246.487 49.9976 240.84 43.3924C228.861 29.3822 229.42 18.5561 234.858 14.6065C244.608 7.52638 259.791 18.3355 264.892 28.6743C265.951 16.012 275.252 0.793276 286.926 3.03872C293.528 4.30808 298.626 13.8757 293.716 31.6424L293.716 31.6423Z" fill="#FAB7E1"/>
<path fill-rule="evenodd" clip-rule="evenodd" d="M955.753 247.831C950.133 254.815 942.32 261.307 935.047 264.728C925.769 269.097 921.979 268.114 915.052 260.429C909.767 254.562 905.118 245.926 902.558 237.621C897.127 220.007 901.938 210.293 908.497 208.827C920.257 206.2 929.9 222.148 930.477 233.663C936.477 222.462 951.056 212.187 960.878 218.883C966.433 222.669 967.313 233.474 955.753 247.831L955.753 247.831Z" fill="#FAB7E1"/>
<path fill-rule="evenodd" clip-rule="evenodd" d="M736.572 494.6C730.952 501.584 723.139 508.076 715.866 511.497C706.588 515.866 702.798 514.883 695.871 507.198C690.586 501.332 685.937 492.695 683.377 484.391C677.946 466.776 682.757 457.062 689.316 455.596C701.076 452.969 710.719 468.918 711.295 480.432C717.295 469.231 731.874 458.956 741.697 465.652C747.252 469.438 748.132 480.244 736.572 494.601L736.572 494.6Z" fill="#FAB7E1"/>
<path fill-rule="evenodd" clip-rule="evenodd" d="M63.5719 247.6C57.9515 254.584 50.1388 261.076 42.8658 264.497C33.5877 268.866 29.7983 267.883 22.8713 260.198C17.5856 254.332 12.9372 245.695 10.3769 237.391C4.94557 219.776 9.75734 210.062 16.3161 208.596C28.0758 205.969 37.7187 221.918 38.2954 233.432C44.2954 222.231 58.8744 211.956 68.6968 218.652C74.252 222.438 75.1323 233.244 63.572 247.601L63.5719 247.6Z" fill="#FAB7E1"/>
</svg>
