<svg width="1440" height="100" viewBox="0 0 1440 100" fill="none" xmlns="http://www.w3.org/2000/svg">
<g clip-path="url(#clip0_34_7961)">
<path d="M1440 100L1440 40.0001C1427.04 40.0001 1414.08 43.0001 1404 50.0001C1385.28 64 1352.16 64 1332 50.0001C1311.84 36.0001 1280.16 36.0001 1260 50C1241.28 64 1208.16 64 1188 50C1167.84 36.0001 1136.16 36.0001 1116 50C1097.28 64 1064.16 64 1044 50C1023.84 36 992.16 36 972 50C953.28 64 920.16 64 900 50C879.84 36 848.16 36 828 50C809.28 64 776.16 64 756 50C735.84 36 704.16 36 684 50C665.28 64 632.16 64 612 50C591.84 36 560.16 36 540 50C521.28 64 488.16 64 468 50C447.84 36 416.16 36 396 50C377.28 64 344.16 63.9999 324 50C303.84 36 272.16 36 252 50C233.28 63.9999 200.16 63.9999 180 50C159.84 36 126.72 37 108 49.9999C87.84 63.9999 54.72 63.9999 36 49.9999C25.9199 43 12.96 40 5.24536e-06 40L0 99.9999L1440 100Z" fill="black"/>
</g>
<defs>
<clipPath id="clip0_34_7961">
<rect width="1440" height="99.9999" fill="white" transform="translate(1440 100) rotate(-180)"/>
</clipPath>
</defs>
</svg>
