<svg width="491" height="477" viewBox="0 0 491 477" fill="none" xmlns="http://www.w3.org/2000/svg">
<path d="M391.821 174.863C523.549 102.611 520.613 243.207 403.466 256.379C387.397 257.867 373.708 262.787 357.183 266.695C384.223 286.177 419.853 290.144 449.749 305.023C473.139 318.057 487.324 342.498 480.003 365.789C470.758 413.223 370.058 369.023 355.496 349.283C405.867 450.162 349.842 483.927 325.977 466.331C292.529 432.208 293.203 381.918 284.316 337.678C278.483 362.714 282.53 391.698 275.15 417.587C265.549 445.361 242.635 476.389 210.139 476.27C149.85 472.5 198.772 364.301 212.381 340.872C92.5564 457.443 8.73856 409.652 33.0011 353.449C54.8235 323.235 91.3264 308.594 121.541 286.494C86.5056 288.895 29.9261 299.488 12.9443 277.706C-19.2933 241.996 14.1743 186.726 53.2959 173.097C83.2323 163.396 115.073 178.771 142.43 190.218C117.097 153.993 80.6731 121.279 71.0117 75.67C68.1153 58.5493 73.2336 45.0194 91.0685 38.9092C139.375 24.5461 198.375 107.67 214.067 129.968C186.194 1.01754 234.362 -21.1619 271.917 16.5908C301.575 51.7844 301.536 98.5835 302.329 142.288C360.813 -55.5422 480.36 37.6197 391.821 174.863Z" fill="#6ADAE2"/>
<path d="M229.703 303.48C246.744 307.071 262.297 311.336 277.95 303.103C330.145 276.936 317.072 183.021 246.288 188.714C175.94 183.16 149.793 288.939 229.703 303.48Z" fill="#D2F4EA"/>
</svg>
