<svg width="676" height="655" viewBox="0 0 676 655" fill="none" xmlns="http://www.w3.org/2000/svg">
<path d="M538.86 240.484C720.021 141.118 715.983 334.475 554.875 352.591C532.775 354.637 513.95 361.403 491.223 366.778C528.41 393.57 577.411 399.027 618.527 419.49C650.694 437.415 670.202 471.028 660.134 503.059C647.42 568.293 508.93 507.506 488.904 480.359C558.176 619.095 481.128 665.531 448.306 641.331C402.306 594.403 403.234 525.24 391.011 464.398C382.99 498.83 388.556 538.691 378.406 574.295C365.201 612.492 333.689 655.163 288.999 655C206.084 649.816 273.365 501.012 292.082 468.791C127.29 629.108 12.0179 563.382 45.3854 486.088C75.3971 444.536 125.598 424.401 167.151 394.007C118.969 397.308 41.1565 411.878 17.802 381.92C-26.5335 332.81 19.4935 256.799 73.2963 238.055C114.467 224.714 158.257 245.858 195.88 261.601C161.04 211.781 110.947 166.791 97.6603 104.067C93.677 80.5212 100.716 61.9139 125.244 53.5106C191.679 33.7575 272.82 148.075 294.401 178.741C256.068 1.39939 322.312 -29.1034 373.959 22.8168C414.748 71.2175 414.693 135.579 415.784 195.684C496.216 -76.3855 660.625 51.7372 538.86 240.484Z" fill="#FAB7E1"/>
</svg>
