<svg width="671" height="716" viewBox="0 0 671 716" fill="none" xmlns="http://www.w3.org/2000/svg">
<path d="M437.67 238.335C745.011 -18.6033 742.26 325.746 467.569 392.55C559.081 397.741 685.11 423.695 647.218 540.848C599.672 649.178 487.397 544.326 431.909 496.364C522.694 715.151 389.76 766.747 330.639 667.657C285.22 599.036 319.063 453.697 286.829 562.701C254.128 652.811 124.049 723.093 137.338 577.754C138.583 540.796 180.784 511.677 178.863 485.723C-95.9317 643.624 -18.8501 377.913 173.672 331.456C-10.4412 226.293 10.9964 80.0196 182.652 200.34C91.0886 0.861675 219.246 -34.5907 294.356 155.7C299.235 31.279 399.259 -65.1638 461.184 55.0005C474.94 115.783 449.401 180.355 437.67 238.335Z" fill="#FFF8B3"/>
</svg>
