<svg width="618" height="605" viewBox="0 0 618 605" fill="none" xmlns="http://www.w3.org/2000/svg">
<path d="M456.836 349.037C502.415 341.459 554.421 344.013 593.713 313.562C630.563 289.061 626.886 234.333 573 230.46C518.861 231.863 470.139 252.94 419.621 263.858C435.085 242.135 468.483 223.92 485.828 200.036C613.976 40.5389 488.522 -56.8492 347.352 158.78C342.3 112.78 344.433 51.1197 310.136 12.3048C293.886 -6.83598 261.499 -1.95258 247.017 15.3359C230.823 51.7091 236.324 97.793 240.169 135.597C223.638 102.592 204.834 70.9902 175.926 48.0324C108.737 21.8752 102.366 91.3659 157.964 158.92C-6.02375 81.2623 25.6063 234.305 179.21 272.783C167.703 283.027 138.655 278.424 120.637 288.78C80.1942 307.837 37.4782 330.57 9.10373 365.259C-8.52154 404.551 -4.05909 457.455 54.0089 463.489C95.7706 454.957 130.488 436.939 165.121 415.3C18.0848 603.06 182.606 689.334 278.675 398.321C281.874 453.161 271.911 508.114 289.649 561.579C339.297 669.969 443.14 558.407 389.45 386.308C414.709 422.289 430.651 461.188 461.776 494.333C552.624 585.21 636.653 444.461 456.836 349.037Z" fill="#BFEFF2"/>
<path d="M376.642 292.869C373.33 367.047 241.842 377.038 241.421 299.689H241.365C250.767 150.828 387.194 216.699 376.642 292.869Z" fill="#6ADAE2"/>
</svg>
