<svg width="1440" height="350" viewBox="0 0 1440 350" fill="none" xmlns="http://www.w3.org/2000/svg">
<g clip-path="url(#clip0_91_1643)">
<rect width="1440" height="350" fill="white"/>
<path d="M226.67 -202.665C534.011 -459.603 531.26 -115.254 256.569 -48.4495C348.081 -43.2589 474.11 -17.3054 436.218 99.8483C388.672 208.178 276.397 103.326 220.909 55.3641C311.694 274.151 178.76 325.747 119.639 226.657C74.2202 158.036 108.063 12.6967 75.8293 121.701C43.1279 211.811 -86.9506 282.093 -73.6625 136.754C-72.4167 99.7963 -30.2165 70.6767 -32.137 44.7233C-306.932 202.624 -229.85 -63.0872 -37.3277 -109.544C-221.441 -214.707 -200.004 -360.98 -28.3478 -240.66C-119.911 -440.138 8.24648 -475.591 83.3556 -285.3C88.2349 -409.721 188.259 -506.164 250.184 -386C263.94 -325.217 238.401 -260.645 226.67 -202.665Z" fill="#FFFDE5"/>
<path d="M120.803 -170.786C15.7439 -179.507 -2.78677 5.95627 145.667 3.25711C232.092 -9.0448 250.103 -172.344 120.803 -170.786Z" fill="#FFFDE5"/>
<path d="M1529.86 -139.516C1711.02 -238.882 1706.98 -45.5253 1545.87 -27.4092C1523.78 -25.3629 1504.95 -18.5967 1482.22 -13.2219C1519.41 13.5704 1568.41 19.0271 1609.53 39.4896C1641.69 57.4148 1661.2 91.0279 1651.13 123.059C1638.42 188.293 1499.93 127.506 1479.9 100.359C1549.18 239.095 1472.13 285.531 1439.31 261.331C1393.31 214.403 1394.23 145.24 1382.01 84.398C1373.99 118.83 1379.56 158.691 1369.41 194.295C1356.2 232.492 1324.69 275.163 1280 275C1197.08 269.816 1264.37 121.012 1283.08 88.7907C1118.29 249.108 1003.02 183.382 1036.39 106.088C1066.4 64.5358 1116.6 44.4006 1158.15 14.007C1109.97 17.3083 1032.16 31.8776 1008.8 1.92046C964.466 -47.1896 1010.49 -123.201 1064.3 -141.945C1105.47 -155.286 1149.26 -134.142 1186.88 -118.399C1152.04 -168.219 1101.95 -213.209 1088.66 -275.933C1084.68 -299.479 1091.72 -318.086 1116.24 -326.489C1182.68 -346.243 1263.82 -231.925 1285.4 -201.259C1247.07 -378.601 1313.31 -409.103 1364.96 -357.183C1405.75 -308.782 1405.69 -244.421 1406.78 -184.316C1487.22 -456.386 1651.63 -328.263 1529.86 -139.516Z" fill="#FDE7F5"/>
<path d="M851.821 -198.137C983.549 -270.389 980.613 -129.793 863.466 -116.621C847.397 -115.133 833.708 -110.213 817.183 -106.305C844.223 -86.8232 879.853 -82.8555 909.749 -67.9766C933.139 -54.9427 947.324 -30.5016 940.003 -7.21114C930.758 40.2228 830.058 -3.97747 815.496 -23.7168C865.867 77.1622 809.842 110.927 785.977 93.3307C752.529 59.2084 753.203 8.91757 744.316 -35.3224C738.483 -10.2861 742.53 18.698 735.15 44.5873C725.549 72.3613 702.635 103.389 670.139 103.27C609.85 99.5003 658.772 -8.69903 672.381 -32.1283C552.556 84.4429 468.739 36.6519 493.001 -19.5507C514.824 -49.7648 551.326 -64.4057 581.541 -86.5058C546.506 -84.1053 489.926 -73.5115 472.944 -95.2943C440.707 -131.004 474.174 -186.274 513.296 -199.903C543.232 -209.604 575.073 -194.229 602.43 -182.782C577.097 -219.007 540.673 -251.721 531.012 -297.33C528.115 -314.451 533.234 -327.981 551.068 -334.091C599.375 -348.454 658.375 -265.33 674.067 -243.032C646.194 -371.982 694.362 -394.162 731.917 -356.409C761.575 -321.216 761.536 -274.417 762.329 -230.712C820.813 -428.542 940.36 -335.38 851.821 -198.137Z" fill="#F2EBF9"/>
</g>
<defs>
<clipPath id="clip0_91_1643">
<rect width="1440" height="350" fill="white"/>
</clipPath>
</defs>
</svg>
