<svg width="100" height="80" viewBox="0 0 100 80" fill="none" xmlns="http://www.w3.org/2000/svg">
<g clip-path="url(#clip0_34_1630)">
<path d="M80.7941 23.6552C80.4748 24.068 80.1406 24.4728 79.7881 24.8582C77.433 22.4224 75.0568 19.9991 72.6433 17.6181C72.5788 17.4449 72.4432 17.3055 72.2584 17.2306C71.1249 16.1175 69.9856 15.0061 68.8366 13.9039C69.2759 13.6414 69.7411 13.4023 70.2039 13.1763C73.5007 16.6897 76.8423 20.1647 80.2657 23.5593C80.4362 23.7317 80.6308 23.7353 80.7941 23.6552Z" fill="#FEFEFE"/>
<path d="M81.1036 23.2516C81.1312 23.0942 81.1062 22.9278 80.965 22.79C77.6634 19.4272 74.269 16.1295 70.8482 12.8895C74.0327 11.498 77.5047 11.188 80.6379 13.4709C84.6046 16.3668 83.4364 20.0846 81.1053 23.2573L81.1036 23.2516Z" fill="#FD9FE1"/>
<path d="M38.9126 61.7741C38.747 61.9295 38.5739 62.0808 38.4083 62.2362C38.3384 62.2945 38.312 62.3521 38.2701 62.4206C35.2071 63.6762 32.1441 64.9318 29.0811 66.1873C28.9201 66.2543 28.5364 66.4317 28.0106 66.6766C27.7826 64.6082 26.4858 62.4322 24.6442 61.2274C24.4314 61.018 24.1751 60.8714 23.8935 60.8069C23.6045 60.6763 23.3132 60.5588 23.0133 60.4749C23.0982 60.3003 23.1636 60.144 23.2199 60.0402C24.5346 56.9554 25.8602 53.886 27.0182 50.7365C27.1331 50.8697 27.322 50.9372 27.4813 50.8024C27.6326 50.6824 27.7666 50.5676 27.9105 50.4436C28.6806 50.3676 29.4509 50.5834 30.0428 51.1821C30.8761 52.0438 30.8321 53.082 30.5636 54.1628C30.444 54.6584 31.1411 54.859 31.3774 54.4401C31.4233 54.3642 31.456 54.286 31.4887 54.2079C32.4684 53.0004 34.4891 52.5984 35.7029 53.6874C36.9686 54.8042 36.6888 56.9694 35.3916 57.9305C34.892 58.3042 35.3069 59.0617 35.8028 58.9252C35.7891 58.9417 35.7776 58.9452 35.7638 58.9617C35.4938 59.3099 35.9554 59.7242 36.2695 59.4186C37.0557 58.6482 38.4333 59.0357 38.8783 59.9767C39.16 60.5816 39.1233 61.2076 38.9234 61.7895L38.9126 61.7741Z" fill="#FFECF9"/>
<path d="M83.9667 21.2052C82.5323 24.7856 79.3139 27.3738 76.5233 29.8893C72.4639 33.5439 68.4029 37.1927 64.3361 40.8433C56.0541 48.2946 47.7738 55.7517 39.4695 63.1911C39.3819 63.2733 39.2765 63.3174 39.1791 63.3466C39.155 63.3912 39.1224 63.4072 39.0972 63.4272C39.0381 63.5008 38.9682 63.5591 38.8588 63.6106C34.1698 65.5224 29.4882 67.4381 24.7952 69.3573C23.4716 69.8978 19.7764 72.4366 18.3207 71.1034C16.6832 69.6013 19.7973 64.8578 20.3425 63.5759C20.7615 62.5804 21.1919 61.5814 21.6183 60.5898C21.6281 60.5185 21.651 60.4495 21.6997 60.4038C23.0994 57.1445 24.5626 53.9095 26.2381 50.7785C26.1472 50.6629 26.1342 50.4743 26.2952 50.3451C26.6734 50.0452 27.0686 49.8643 27.486 49.7576C36.1496 40.8746 45.6644 32.7051 54.7712 24.2792C58.8318 20.5249 63.6754 14.7214 69.26 11.9877C69.2997 11.8081 69.5025 11.6726 69.6764 11.7943C71.3896 11.0126 73.1597 10.5243 75.0089 10.4658C80.8869 10.3089 86.3762 15.1763 83.9684 21.2109L83.9667 21.2052ZM79.7882 24.8583C80.1407 24.4729 80.4692 24.0698 80.7942 23.6553C80.631 23.7354 80.4363 23.7318 80.2659 23.5594C76.8441 20.1705 73.5009 16.6898 70.204 13.1764C69.7412 13.4024 69.2818 13.6398 68.8367 13.904C69.984 15.0005 71.1176 16.1136 72.2586 17.2307C72.4434 17.3056 72.5806 17.4507 72.6434 17.6182C75.0569 19.9992 77.4332 22.4225 79.7882 24.8583ZM79.0856 25.616C78.1419 24.6571 77.2023 23.6907 76.2627 22.7244C64.6516 35.8038 49.7813 45.4951 37.7251 58.174C38.3359 58.2328 38.9379 58.5116 39.3559 58.9886C39.8122 59.51 39.9982 60.1499 40.0102 60.7923C48.2457 53.3736 56.4973 45.9873 64.7495 38.5822C68.9738 34.7911 73.2462 31.0353 77.4414 27.2095C77.9726 26.7331 78.5285 26.1934 79.0856 25.616ZM80.9634 22.7845C81.1064 22.9279 81.124 23.0904 81.1021 23.2461C83.4274 20.0751 84.6014 16.3555 80.6347 13.4596C77.5072 11.1751 74.0312 11.4925 70.8449 12.8783C74.2674 16.124 77.6601 19.416 80.9617 22.7788L80.9634 22.7845ZM36.8761 58.2365C47.4573 43.9942 63.6413 35.0388 75.3797 21.8218C74.3011 20.7046 73.23 19.5914 72.1685 18.4691C65.0572 24.8916 57.9476 31.3199 50.8255 37.727C47.2039 40.9892 43.5921 44.2422 39.9597 47.4889C38.2945 48.9706 36.5304 50.8921 34.4956 52.0997C35.178 52.168 35.8412 52.4223 36.3949 52.9144C38.0285 54.3618 37.8518 56.9121 36.4454 58.4031C36.5857 58.3299 36.7272 58.2812 36.8778 58.2422L36.8761 58.2365ZM38.4028 62.2381C38.5684 62.0827 38.7415 61.9313 38.9071 61.776C39.1069 61.1941 39.1476 60.5607 38.862 59.9632C38.4113 59.0239 37.0394 58.6347 36.2531 59.4051C35.9408 59.7163 35.4735 59.3038 35.7475 58.9482C35.7613 58.9316 35.7727 58.9282 35.7865 58.9116C35.2923 59.0539 34.8814 58.289 35.3753 57.917C36.6724 56.9558 36.9523 54.7907 35.6865 53.6739C34.4671 52.5866 32.4463 52.9886 31.4724 54.1944C31.4397 54.2725 31.407 54.3507 31.3611 54.4266C31.1248 54.8454 30.4277 54.6449 30.5473 54.1492C30.8157 53.0685 30.8597 52.0303 30.0265 51.1686C29.442 50.5739 28.6642 50.3541 27.8941 50.4301C27.7503 50.5541 27.6105 50.6706 27.465 50.7889C27.3057 50.9237 27.1168 50.8562 27.0019 50.723C25.8439 53.8725 24.524 56.9401 23.2035 60.0266C23.1547 60.1345 23.0819 60.2868 22.997 60.4614C23.3026 60.5435 23.5939 60.661 23.8771 60.7934C24.1587 60.8578 24.4151 61.0045 24.6278 61.2139C26.462 62.4147 27.7662 64.5947 27.9942 66.6631C28.5143 66.4199 28.8998 66.2482 29.0647 66.1738C32.1278 64.9182 35.1908 63.6627 38.2538 62.4071C38.2916 62.346 38.322 62.281 38.3919 62.2227L38.4028 62.2381ZM51.8918 35.1455C58.3579 29.2771 64.8481 23.4263 71.3267 17.5789C70.2968 16.4782 69.2743 15.3814 68.2581 14.2641C67.2819 14.8804 66.3549 15.5565 65.4972 16.2552C61.095 19.8699 57.0318 23.948 52.836 27.7926C44.865 35.0946 37.0855 42.7429 28.7908 49.6948C30.3243 49.9361 31.6758 51.2136 31.7693 52.751C31.7865 52.7458 31.7985 52.7235 31.8231 52.7224C34.1741 51.8608 35.8652 49.7377 37.6645 48.079C39.2811 46.5808 40.92 45.0946 42.5588 43.6083C45.6618 40.7815 48.778 37.957 51.8901 35.1398L51.8918 35.1455ZM23.1092 62.664C23.0595 62.5609 23.0098 62.4578 22.9584 62.349C22.9464 62.3091 22.9384 62.2618 22.9305 62.2145C22.6898 62.4732 22.5725 62.8936 22.5716 63.2231C22.7264 63.0523 22.8788 62.8947 23.0278 62.7257C23.0513 62.7 23.084 62.684 23.1092 62.664Z" fill="#1D1D1B"/>
<path d="M76.2625 22.7243C77.2004 23.685 78.1417 24.6571 79.0854 25.616C78.5341 26.1916 77.9724 26.733 77.4412 27.2094C73.2403 31.037 68.9754 34.7968 64.7493 38.5821C56.4971 45.9872 48.2455 53.3735 40.01 60.7923C39.9963 60.1441 39.812 59.51 39.3557 58.9886C38.9394 58.5173 38.3375 58.2384 37.7249 58.1739C49.7793 45.4894 64.6497 35.798 76.2625 22.7243Z" fill="#F9EC73"/>
<path d="M75.3795 21.8216C63.6411 35.0386 47.4554 43.9883 36.8758 58.2362C36.7269 58.281 36.5838 58.324 36.4451 58.4029C37.8573 56.9102 38.0283 54.3616 36.3947 52.9142C35.841 52.4221 35.1777 52.1678 34.4954 52.0995C36.5302 50.8919 38.2868 48.9665 39.9595 47.4887C43.5936 44.2476 47.2037 40.989 50.8252 37.7268C57.9531 31.3179 65.057 24.8914 72.1683 18.4689C73.2355 19.5895 74.3026 20.7101 75.3795 21.8216Z" fill="#B696FB"/>
<path d="M71.3208 17.5806C64.8421 23.4279 58.3577 29.277 51.8858 35.1472C48.7737 37.9643 45.6576 40.7889 42.5546 43.6157C40.9157 45.1019 39.2785 46.5939 37.6603 48.0863C35.8609 49.745 34.1699 51.8682 31.8189 52.7297C31.796 52.7366 31.7822 52.7531 31.765 52.7583C31.6716 51.2209 30.3201 49.9435 28.7866 49.7022C37.0812 42.7502 44.8608 35.102 52.8317 27.8C57.0275 23.9553 61.0907 19.8772 65.4929 16.2625C66.3507 15.5638 67.276 14.8821 68.2539 14.2715C69.27 15.3888 70.2925 16.4855 71.3225 17.5863L71.3208 17.5806Z" fill="#F9EC73"/>
<g style="mix-blend-mode:multiply" opacity="0.75">
<path d="M77.469 22.4797C78.2439 23.2719 79.0188 24.0641 79.788 24.858C80.1405 24.4726 80.469 24.0695 80.794 23.6551C80.6308 23.7352 80.4361 23.7315 80.2657 23.5591C79.624 22.9194 78.9823 22.2798 78.3447 21.6327C78.0541 21.9126 77.7653 22.1981 77.469 22.4797Z" fill="#FEFEFE"/>
<path d="M83.1195 16.9308C81.7899 18.262 80.4455 19.5852 79.0936 20.9045C79.7187 21.5305 80.3438 22.1565 80.9632 22.7842C81.1061 22.9276 81.1237 23.0901 81.1018 23.2457C82.5735 21.2444 83.5793 19.0228 83.1178 16.9251L83.1195 16.9308Z" fill="#FD9FE1"/>
<path d="M38.8674 59.9613C38.4167 59.022 37.0448 58.6327 36.2585 59.4032C35.9462 59.7144 35.4789 59.3019 35.7529 58.9463C35.7667 58.9297 35.7781 58.9263 35.7919 58.9097C35.2977 59.052 34.8868 58.2871 35.3807 57.9151C36.6778 56.9539 36.9577 54.7888 35.6919 53.672C35.188 53.2208 34.5436 53.0292 33.8909 53.0389C33.0627 53.4617 32.2361 53.8901 31.4113 54.3243C31.3969 54.3596 31.3808 54.3893 31.3665 54.4247C31.2541 54.6324 31.0199 54.6841 30.8344 54.628C28.4676 55.8732 26.1276 57.1663 23.8396 58.5494C23.6313 59.0406 23.4173 59.5335 23.2089 60.0247C23.1602 60.1325 23.0873 60.2849 23.0024 60.4595C23.308 60.5416 23.5993 60.6591 23.8825 60.7914C24.1642 60.8559 24.4205 61.0026 24.6332 61.212C26.4674 62.4128 27.7716 64.5928 27.9997 66.6612C28.5197 66.418 28.9052 66.2463 29.0702 66.1719C32.1332 64.9163 35.1962 63.6607 38.2592 62.4051C38.2971 62.3441 38.3275 62.279 38.3974 62.2208C38.563 62.0654 38.736 61.914 38.9016 61.7587C39.1015 61.1768 39.1422 60.5434 38.8566 59.9459L38.8674 59.9613Z" fill="#FFECF9"/>
<path d="M83.9664 21.2051C84.7281 19.2928 84.6938 17.4954 84.1075 15.9384C83.7757 16.2679 83.4513 16.6014 83.1195 16.9309C83.5736 19.0246 82.5735 21.2446 81.1035 23.2516C81.1312 23.0942 81.1061 22.9278 80.9649 22.79C80.3455 22.1623 79.7204 21.5363 79.0953 20.9103C78.8437 21.1536 78.5921 21.3969 78.3406 21.6402C78.9782 22.2873 79.6199 22.927 80.2616 23.5666C80.432 23.739 80.6267 23.7427 80.7899 23.6626C80.4706 24.0753 80.1365 24.4801 79.784 24.8655C79.0148 24.0716 78.2398 23.2794 77.4649 22.4872C77.2191 22.7288 76.9658 22.9664 76.7199 23.208C77.5057 24.0155 78.2915 24.8231 79.083 25.629C78.5317 26.2046 77.9701 26.746 77.4389 27.2224C73.238 31.0499 68.973 34.8097 64.7469 38.5951C56.4947 46.0002 48.2432 53.3865 40.0076 60.8053C39.9939 60.1571 39.8097 59.5229 39.3534 59.0015C38.9371 58.5302 38.3351 58.2514 37.7226 58.1869C46.732 48.7093 57.3112 40.9034 66.9291 32.1003C63.3828 35.1348 59.7427 38.0236 55.9735 40.6902C53.9603 42.115 51.8899 43.4327 49.7727 44.6775C45.0665 48.8183 40.6137 53.1998 36.8718 58.2437C36.7229 58.2884 36.5797 58.3314 36.4411 58.4103C37.8533 56.9177 38.0242 54.3691 36.3906 52.9216C36.076 52.6434 35.7304 52.4491 35.3642 52.3106C34.8762 52.5566 34.3841 52.81 33.8961 53.056C34.5471 53.0406 35.1915 53.2322 35.6971 53.6891C36.9629 54.8059 36.683 56.971 35.3859 57.9322C34.8863 58.3059 35.2954 59.0651 35.7971 58.9268C35.7833 58.9434 35.7719 58.9468 35.7581 58.9634C35.4881 59.3116 35.9497 59.7258 36.2637 59.4203C37.05 58.6498 38.4276 59.0374 38.8726 59.9784C39.1542 60.5833 39.1175 61.2093 38.9177 61.7912C38.7521 61.9465 38.579 62.0979 38.4134 62.2532C38.3435 62.3115 38.3171 62.3691 38.2753 62.4376C35.2122 63.6932 32.1492 64.9488 29.0862 66.2044C28.9253 66.2714 28.5415 66.4488 28.0157 66.6937C27.7877 64.6252 26.4852 62.451 24.6493 61.2445C24.4365 61.035 24.1802 60.8884 23.8986 60.8239C23.6096 60.6933 23.3183 60.5758 23.0184 60.492C23.1033 60.3174 23.1688 60.161 23.225 60.0572C23.4333 59.566 23.6473 59.0731 23.8557 58.5818C23.237 58.9541 22.6217 59.3377 22.0082 59.727C21.9083 59.9558 21.8085 60.1845 21.7086 60.4133C21.6616 60.4647 21.6387 60.5337 21.6271 60.5993C21.2008 61.5909 20.7761 62.5881 20.3514 63.5854C19.8062 64.8673 16.6921 69.6108 18.3296 71.1129C19.787 72.4518 23.4805 69.9073 24.8041 69.3668C29.4914 67.4493 34.1787 65.5318 38.8677 63.6201C38.9714 63.5703 39.047 63.5103 39.1061 63.4367C39.1313 63.4167 39.1639 63.4006 39.1897 63.3618C39.2871 63.3326 39.3908 63.2828 39.4801 63.2063C47.7844 55.7669 56.0647 48.3098 64.3467 40.8585C68.4135 37.2079 72.4745 33.5591 76.5339 29.9045C79.3245 27.389 82.5446 24.8065 83.9773 21.2204L83.9664 21.2051ZM23.0276 62.7255C22.8728 62.8963 22.7204 63.0539 22.5714 63.2229C22.5723 62.8934 22.6895 62.473 22.9302 62.2143C22.9439 62.2599 22.9461 62.309 22.9581 62.3488C23.0078 62.4519 23.0575 62.555 23.1089 62.6638C23.0837 62.6838 23.0511 62.6998 23.0276 62.7255Z" fill="#1D1D1B"/>
<path d="M76.7223 23.195C73.5366 26.2454 70.2812 29.2298 66.9331 32.093C57.3136 40.8903 46.7361 48.702 37.7266 58.1796C38.3374 58.2384 38.9394 58.5172 39.3574 58.9942C39.8137 59.5156 39.9997 60.1555 40.0117 60.798C48.2472 53.3792 56.4988 45.9929 64.751 38.5878C68.9753 34.7967 73.2477 31.0409 77.4429 27.2151C77.9741 26.7387 78.53 26.199 79.0871 25.6216C78.2973 24.8215 77.5098 24.0082 76.724 23.2007L76.7223 23.195Z" fill="#F9EC73"/>
<path d="M49.7767 44.6702C45.0931 47.4314 40.2163 49.8406 35.3607 52.2993C35.727 52.4378 36.0783 52.6304 36.3872 52.9104C38.0207 54.3578 37.8441 56.9081 36.4376 58.3991C36.578 58.3258 36.7194 58.2771 36.87 58.2381C40.6176 53.1925 45.0647 48.8127 49.7709 44.6719L49.7767 44.6702Z" fill="#B696FB"/>
</g>
<g style="mix-blend-mode:soft-light">
<path d="M63.7163 19.8462C54.5692 25.1036 46.778 33.0039 41.1378 41.8296C40.7817 42.3901 41.6782 42.9842 42.1023 42.4841C48.8375 34.4352 56.5722 28.0925 65.4287 22.5123C67.1725 21.417 65.48 18.838 63.718 19.8519L63.7163 19.8462Z" fill="white"/>
</g>
</g>
<defs>
<clipPath id="clip0_34_1630">
<rect width="79.0918" height="43.0259" fill="white" transform="translate(6 30.7549) rotate(-16.7204)"/>
</clipPath>
</defs>
</svg>
