<svg width="100" height="80" viewBox="0 0 100 80" fill="none" xmlns="http://www.w3.org/2000/svg">
<path d="M84.4464 21.3697C85.7437 22.937 84.3416 24.7069 83.387 26.0277C81.098 29.1291 78.7072 32.1456 76.1447 35.0251C76.1283 35.0409 76.1088 35.047 76.0826 35.0659C76.1551 35.1599 76.2342 35.2412 76.2866 35.3734C78.239 40.2084 79.5897 45.2755 80.552 50.4013C80.7366 51.3949 79.9098 52.1017 78.9483 51.7355C74.0699 49.8839 69.2665 47.658 64.8282 44.8921C62.2719 48.3008 59.4951 51.5878 56.8243 54.9051C55.6938 56.3132 53.9399 58.9378 51.7452 57.8871C49.6686 56.9055 50.0505 53.2578 49.926 51.4696C49.7172 47.9869 49.7252 44.4783 50.2197 41.0182C47.0915 39.8262 43.9267 38.5182 40.9197 37.0648C38.9138 36.1034 37.3042 34.8364 37.2028 32.5098C37.1735 32.009 37.5247 31.5265 38.0118 31.3729C42.1395 30.0613 46.2806 28.7243 50.5441 27.9117C50.538 27.8924 50.5319 27.873 50.5294 27.8313C50.6366 24.0258 51.2931 20.196 52.3916 16.5456C52.9394 14.7155 53.5867 10.8567 55.7994 10.2655C58.168 9.62521 60.0707 12.6378 61.3119 14.0953C63.6865 16.906 65.9369 19.9684 67.6016 23.2791C67.654 23.2414 67.6905 23.1873 67.7587 23.1659C71.0692 21.7081 74.5344 20.7753 78.1489 20.486C79.8301 20.3492 83.1687 19.7963 84.4434 21.36L84.4464 21.3697ZM82.1609 23.7687C82.6833 22.9454 82.5212 22.6352 81.6846 22.8351C80.1939 22.1151 76.3012 23.1189 74.765 23.4437C72.6028 23.9233 70.5295 24.6512 68.5147 25.5306C68.147 25.689 67.8279 25.662 67.5819 25.5271C67.1137 25.8765 66.4481 25.9057 66.0218 25.2326C64.5801 22.9353 63.2426 20.5945 61.6475 18.388C60.7065 17.1015 58.0472 12.2663 56.0818 13.0982C55.0211 13.5388 53.7944 19.7051 53.5054 20.8268C52.8895 23.1883 52.5057 25.5723 52.1084 27.9817C52.0463 28.3625 51.7559 28.5284 51.4387 28.5753C51.4156 28.7738 51.2889 28.9837 51.0253 29.0987C47.3751 30.7698 43.5519 32.0279 39.736 33.2413C40.6058 35.0495 44.0396 35.954 45.5797 36.6266C47.5679 37.498 49.5927 38.3154 51.5505 39.2601C52.347 39.6465 52.2473 40.4854 51.7517 40.9178C51.8733 43.3763 51.9108 45.8399 52.0256 48.3111C52.0831 49.5467 52.1472 50.7695 52.2338 51.9959C52.3296 53.2513 51.9176 54.9004 53.214 54.9699C54.8039 55.0531 57.7205 50.171 58.7585 48.877C60.378 46.8791 61.9499 44.8325 63.6454 42.9063C64.401 42.0413 65.4843 42.7942 65.4674 43.692C69.6108 45.4884 73.7413 47.2782 77.9358 48.931C76.9725 44.5493 75.6742 40.2943 74.1464 36.0586C73.91 35.4107 74.271 34.925 74.7618 34.7491C74.6668 34.4816 74.6692 34.1833 74.8908 33.901C76.3135 32.0608 77.7266 30.2236 79.0793 28.3311C79.9145 27.1753 80.8503 25.9986 81.5485 24.7479L82.1768 23.785L82.1609 23.7687Z" fill="#1D1D1B"/>
<path d="M81.6847 22.8351C82.5213 22.6351 82.6833 22.9453 82.161 23.7686L81.5327 24.7316C80.8345 25.9823 79.8988 27.159 79.0635 28.3147C77.7108 30.2073 76.2978 32.0444 74.875 33.8847C74.6534 34.167 74.651 34.4652 74.746 34.7328C74.2455 34.9118 73.8845 35.3974 74.1306 36.0423C75.6615 40.2877 76.9664 44.5299 77.92 48.9147C73.7256 47.2619 69.598 45.4817 65.4516 43.6757C65.4686 42.7779 64.3949 42.0219 63.6296 42.89C61.9341 44.8162 60.3622 46.8628 58.7428 48.8607C57.7145 50.1516 54.7882 55.0368 53.1983 54.9536C51.8921 54.8872 52.3139 53.235 52.2181 51.9796C52.1314 50.7532 52.0575 49.5334 52.0099 48.2948C51.8981 45.8333 51.8605 43.3696 51.7359 40.9015C52.2285 40.4594 52.3313 39.6302 51.5347 39.2438C49.5769 38.2991 47.5649 37.4883 45.5639 36.6103C44.0238 35.9377 40.59 35.0332 39.7202 33.2249C43.5361 32.0116 47.3691 30.7504 51.0095 29.0824C51.2732 28.9674 51.3998 28.7575 51.4229 28.559C51.7334 28.5248 52.0306 28.3462 52.0926 27.9654C52.4899 25.556 52.8737 23.172 53.4896 20.8105C53.7884 19.6857 55.0053 13.5225 56.066 13.0819C58.0314 12.2499 60.6907 17.0852 61.6317 18.3717C63.2268 20.5782 64.5643 22.9189 66.006 25.2163C66.4323 25.8894 67.0979 25.8602 67.5661 25.5108C67.8121 25.6457 68.1312 25.6726 68.4989 25.5142C70.5107 24.6252 72.587 23.907 74.7492 23.4274C76.2952 23.0995 80.1878 22.0957 81.6688 22.8188L81.6847 22.8351Z" fill="#F9EC73"/>
<g style="mix-blend-mode:multiply" opacity="0.75">
<path d="M84.4464 21.3697C83.162 19.8091 79.8331 20.3589 78.1519 20.4957C74.7572 20.7688 71.5033 21.6244 68.3797 22.9277C67.939 23.874 67.4855 24.8138 67.0064 25.7404C67.2037 25.7207 67.3955 25.6496 67.5721 25.5302C67.8181 25.6652 68.1372 25.6921 68.505 25.5337C70.5167 24.6446 72.593 23.9265 74.7552 23.4468C76.3012 23.1189 80.1938 22.1151 81.6748 22.8383C82.5115 22.6383 82.6735 22.9485 82.1512 23.7718L81.5229 24.7348C80.8247 25.9855 79.8889 27.1622 79.0537 28.3179C77.701 30.2105 76.2879 32.0476 74.8652 33.8879C74.6436 34.1702 74.6412 34.4684 74.7362 34.736C74.2357 34.915 73.8747 35.4006 74.1208 36.0455C75.6516 40.2909 76.9566 44.5331 77.9102 48.9179C73.7157 47.2651 69.5882 45.4849 65.4418 43.6788C65.4587 42.7811 64.3851 42.0251 63.6198 42.8932C61.9243 44.8194 60.3524 46.866 58.7329 48.8639C57.7047 50.1548 54.7783 55.04 53.1884 54.9568C51.8823 54.8904 52.304 53.2381 52.2082 51.9828C52.1216 50.7564 52.0477 49.5366 52 48.298C51.9762 47.8486 51.9652 47.4059 51.9511 46.9535C51.2565 47.6718 50.5332 48.3672 49.8068 49.053C49.824 49.855 49.8637 50.6606 49.9132 51.4631C50.0346 53.2416 49.6558 56.8989 51.7324 57.8806C53.9368 58.9282 55.6907 56.3036 56.8115 54.8985C59.4823 51.5812 62.2621 48.304 64.8154 44.8856C69.2536 47.6515 74.0571 49.8773 78.9355 51.7289C79.9067 52.0921 80.7208 51.3787 80.5391 50.3948C79.5769 45.269 78.2292 40.2115 76.2738 35.3669C76.2245 35.2443 76.1423 35.1534 76.0698 35.0593C76.0862 35.0435 76.1057 35.0374 76.1319 35.0185C78.6944 32.1391 81.0852 29.1226 83.3742 26.0212C84.3416 24.707 85.7309 22.9304 84.4336 21.3632L84.4464 21.3697Z" fill="#1D1D1B"/>
<path d="M81.6846 22.8351C80.1938 22.115 76.3012 23.1188 74.7649 23.4436C72.6027 23.9233 70.5295 24.6511 68.5147 25.5305C68.1469 25.6889 67.8279 25.662 67.5818 25.527C67.418 25.653 67.2232 25.7144 67.0162 25.7372C63.0703 33.5043 58.004 40.7745 51.9706 46.9472C51.9847 47.3996 51.9957 47.8424 52.0195 48.2917C52.0769 49.5273 52.1411 50.7502 52.2277 51.9765C52.3235 53.2319 51.9115 54.881 53.2079 54.9505C54.7978 55.0338 57.7144 50.1516 58.7524 48.8576C60.3718 46.8598 61.9437 44.8131 63.6393 42.8869C64.3948 42.022 65.4782 42.7748 65.4613 43.6726C69.6047 45.469 73.7352 47.2588 77.9297 48.9116C76.9663 44.5299 75.6681 40.2749 74.1403 36.0392C73.9039 35.3913 74.2649 34.9056 74.7557 34.7297C74.6606 34.4622 74.663 34.1639 74.8846 33.8816C76.3074 32.0414 77.7204 30.2042 79.0732 28.3117C79.9084 27.156 80.8441 25.9792 81.5424 24.7286L82.1706 23.7656C82.693 22.9422 82.5309 22.6321 81.6943 22.832L81.6846 22.8351Z" fill="#F9EC73"/>
</g>
<g style="mix-blend-mode:soft-light">
<path d="M54.8374 18.3245C54.3165 20.7836 54.4417 23.3896 54.0914 25.8799C53.7739 28.1686 53.1885 30.4567 53.0932 32.771C53.055 33.7711 54.3898 33.8604 54.8323 33.1578C56.1564 31.0724 56.779 28.5282 57.2761 26.1298C57.7665 23.7441 58.3214 21.0193 57.9667 18.6025C57.7234 16.9474 55.225 16.4281 54.8343 18.3148L54.8374 18.3245Z" fill="white"/>
</g>
<path d="M51.4854 57.1555C51.8058 58.5448 50.3792 59.2179 49.3718 59.7488C46.9767 60.9806 44.5445 62.1274 42.048 63.1344C42.0328 63.1392 42.0187 63.137 41.9965 63.1406C42.0124 63.2223 42.0365 63.2981 42.0279 63.3975C41.738 67.0428 41.0004 70.6459 40.0022 74.1645C39.8075 74.846 39.0713 75.0314 38.5857 74.501C36.1199 71.8144 33.8175 68.9162 31.9114 65.7931C29.2536 67.1343 26.4964 68.3302 23.7957 69.5783C22.6513 70.1091 20.7387 71.2088 19.6972 69.8635C18.708 68.5984 20.0837 66.4277 20.5637 65.2662C21.5196 63.0145 22.6187 60.8144 24.0063 58.7967C22.4266 57.0709 20.8602 55.261 19.4376 53.409C18.486 52.1787 17.8771 50.8804 18.5394 49.3881C18.6772 49.0646 19.0469 48.8714 19.3986 48.9272C22.3826 49.3934 25.3829 49.8479 28.296 50.6699C28.2982 50.6558 28.3004 50.6418 28.3119 50.6148C29.5656 48.2593 31.1694 46.0601 32.9931 44.1116C33.9055 43.1338 35.5127 40.9136 37.0775 41.2338C38.7547 41.5719 39.0022 44.0576 39.322 45.3604C39.9268 47.8669 40.3756 50.4926 40.3816 53.0912C40.4261 53.0838 40.4657 53.0613 40.5149 53.0691C43.0347 53.1883 45.4873 53.6854 47.8323 54.6331C48.9238 55.0725 51.1789 55.7685 51.4865 57.1485L51.4854 57.1555ZM49.3114 57.9475C49.894 57.5938 49.8897 57.3485 49.3054 57.2126C48.6 56.2948 45.8586 55.7087 44.799 55.4326C43.3006 55.0582 41.7802 54.8673 40.2491 54.7899C39.9703 54.7744 39.7797 54.6578 39.6683 54.4962C39.2672 54.5693 38.8429 54.3797 38.7869 53.8239C38.604 51.9312 38.4996 50.0438 38.1926 48.1602C38.0068 47.0586 37.8558 43.1922 36.3702 43.1004C35.5711 43.0455 32.8829 46.5334 32.3528 47.1473C31.2322 48.4374 30.2492 49.8141 29.25 51.2026C29.0925 51.4223 28.8596 51.4357 28.6471 51.366C28.5708 51.4834 28.4263 51.5756 28.226 51.5654C25.4278 51.474 22.6504 51.0693 19.8915 50.6388C19.8702 52.0457 21.7303 53.6865 22.4812 54.5899C23.4498 55.7582 24.458 56.904 25.3848 58.1088C25.7611 58.6002 25.4373 59.0957 24.9933 59.2123C24.3024 60.7937 23.5575 62.3521 22.8585 63.9394C22.509 64.733 22.1677 65.5207 21.8393 66.3177C21.5076 67.1357 20.7363 68.0423 21.5233 68.491C22.4892 69.04 25.8312 66.8863 26.8822 66.3983C28.5155 65.65 30.1344 64.8563 31.7928 64.1768C32.5339 63.8699 32.9749 64.681 32.6844 65.2393C34.7089 67.6617 36.7275 70.0759 38.8287 72.4241C39.5942 69.3723 40.1112 66.2954 40.4791 63.1589C40.5337 62.6783 40.9104 62.4862 41.2714 62.5291C41.2955 62.3314 41.39 62.145 41.6163 62.0369C43.0778 61.3262 44.5322 60.6143 45.9662 59.8489C46.8477 59.3843 47.7984 58.9379 48.624 58.3709L49.3162 57.9627L49.3114 57.9475Z" fill="#1D1D1B"/>
<path d="M49.3051 57.2131C49.8894 57.349 49.8937 57.5943 49.3111 57.948L48.6189 58.3563C47.7933 58.9232 46.8425 59.3696 45.9611 59.8342C44.527 60.5997 43.0726 61.3115 41.6112 62.0223C41.3849 62.1303 41.2904 62.3168 41.2662 62.5144C40.8982 62.4704 40.5215 62.6625 40.4739 63.1442C40.105 66.2877 39.5961 69.3587 38.8235 72.4094C36.7223 70.0612 34.7026 67.654 32.6792 65.2247C32.9698 64.6663 32.5357 63.8563 31.7876 64.1622C30.1292 64.8416 28.5104 65.6354 26.8771 66.3836C25.833 66.8727 22.484 69.0253 21.5182 68.4763C20.7241 68.0265 21.5024 67.121 21.8341 66.303C22.1625 65.506 22.4969 64.7172 22.8534 63.9247C23.5513 62.3444 24.2962 60.786 24.9881 59.1977C25.4333 59.074 25.756 58.5855 25.3796 58.0941C24.4529 56.8893 23.4506 55.7517 22.4761 54.5753C21.7251 53.6718 19.8651 52.0311 19.8864 50.6241C22.6452 51.0546 25.4296 51.4605 28.2209 51.5507C28.4212 51.5609 28.5656 51.4687 28.6419 51.3513C28.8463 51.4269 29.0874 51.4076 29.2448 51.1879C30.2441 49.7994 31.227 48.4227 32.3476 47.1326C32.8848 46.5199 35.566 43.0308 36.365 43.0857C37.8506 43.1775 38.0016 47.0439 38.1874 48.1455C38.4944 50.0291 38.5988 51.9166 38.7817 53.8092C38.8378 54.365 39.2621 54.5546 39.6631 54.4816C39.7745 54.6432 39.9651 54.7598 40.244 54.7752C41.7762 54.8456 43.2954 55.0435 44.7938 55.418C45.8605 55.6951 48.6019 56.2812 49.3003 57.1979L49.3051 57.2131Z" fill="#F9EC73"/>
<g style="mix-blend-mode:multiply" opacity="0.75">
<path d="M51.485 57.156C51.1704 55.7749 48.9223 55.08 47.8308 54.6406C45.628 53.7514 43.3313 53.2719 40.9763 53.1141C40.4062 53.5705 39.8302 54.0188 39.2424 54.4508C39.3716 54.5001 39.5134 54.5154 39.6608 54.4956C39.7722 54.6572 39.9629 54.7738 40.2417 54.7893C41.7739 54.8597 43.2931 55.0575 44.7916 55.432C45.8582 55.7092 48.5996 56.2953 49.298 57.212C49.8823 57.3479 49.8866 57.5932 49.304 57.9469L48.6118 58.3551C47.7862 58.9221 46.8355 59.3685 45.954 59.8331C44.5199 60.5985 43.0655 61.3104 41.6041 62.0212C41.3778 62.1292 41.2833 62.3156 41.2591 62.5133C40.8911 62.4693 40.5144 62.6614 40.4668 63.1431C40.0979 66.2866 39.589 69.3576 38.8165 72.4083C36.7153 70.0601 34.6956 67.6529 32.6722 65.2236C32.9627 64.6652 32.5287 63.8552 31.7806 64.161C30.1221 64.8405 28.5033 65.6342 26.87 66.3825C25.826 66.8716 22.4769 69.0242 21.5111 68.4752C20.717 68.0254 21.4953 67.1199 21.8271 66.3019C22.1555 65.5049 22.4898 64.7161 22.8463 63.9236C22.9716 63.634 23.1028 63.3526 23.2351 63.0642C22.5777 63.2981 21.9096 63.5087 21.2427 63.7123C21.0033 64.2212 20.7768 64.7393 20.5574 65.2586C20.0785 66.413 18.7016 68.5907 19.6909 69.8558C20.7394 71.2023 22.652 70.1026 23.7894 69.5707C26.49 68.3226 29.2462 67.1337 31.9051 65.7854C33.8112 68.9086 36.1136 71.8067 38.5794 74.4934C39.072 75.0249 39.8023 74.8313 39.9959 74.1569C40.9941 70.6383 41.7306 67.0422 42.0216 63.3898C42.029 63.2974 42.0061 63.2147 41.9902 63.133C42.0054 63.1282 42.0195 63.1304 42.0417 63.1268C44.5382 62.1197 46.9704 60.973 49.3655 59.7412C50.3788 59.2184 51.7995 58.5371 51.479 57.1479L51.485 57.156Z" fill="#1D1D1B"/>
<path d="M49.305 57.2132C48.5996 56.2953 45.8582 55.7093 44.7986 55.4332C43.3002 55.0587 41.7798 54.8679 40.2487 54.7904C39.9699 54.775 39.7792 54.6584 39.6679 54.4968C39.5264 54.5247 39.3857 54.5024 39.2494 54.452C34.3657 58.0952 28.9379 61.0765 23.2491 63.0665C23.1168 63.3549 22.9856 63.6363 22.8604 63.9259C22.5109 64.7195 22.1695 65.5072 21.8411 66.3042C21.5094 67.1222 20.7381 68.0288 21.5251 68.4775C22.491 69.0265 25.833 66.8728 26.8841 66.3848C28.5173 65.6365 30.1362 64.8428 31.7946 64.1633C32.5357 63.8564 32.9767 64.6675 32.6862 65.2258C34.7107 67.6482 36.7293 70.0624 38.8305 72.4106C39.596 69.3588 40.1131 66.2819 40.4809 63.1454C40.5355 62.6648 40.9122 62.4727 41.2732 62.5156C41.2973 62.3179 41.3918 62.1315 41.6181 62.0234C43.0796 61.3127 44.534 60.6008 45.968 59.8354C46.8495 59.3708 47.8002 58.9244 48.6258 58.3574L49.3181 57.9492C49.9007 57.5955 49.8963 57.3502 49.3121 57.2143L49.305 57.2132Z" fill="#F9EC73"/>
</g>
<g style="mix-blend-mode:soft-light">
<path d="M33.9637 45.9928C32.8719 47.3739 32.1373 49.049 31.1422 50.5029C30.2304 51.8406 29.1516 53.0941 28.3704 54.5173C28.0347 55.1332 28.8395 55.6063 29.3347 55.3035C30.8111 54.408 31.9928 53.0053 33.0509 51.6549C34.1009 50.3104 35.2968 48.7732 35.8291 47.1451C36.1936 46.03 34.7969 44.9234 33.9648 45.9858L33.9637 45.9928Z" fill="white"/>
</g>
</svg>
