<svg width="100" height="80" viewBox="0 0 100 80" fill="none" xmlns="http://www.w3.org/2000/svg">
<g clip-path="url(#clip0_34_1631)">
<path d="M89.7257 35.5754C90.2285 36.3578 89.318 37.0774 88.6504 36.6192C88.5641 36.8168 88.4072 36.9908 88.1481 37.0857C74.5668 42.6079 60.7183 47.5768 47.0113 52.7592C34.2306 57.5933 21.5049 62.5777 8.61415 67.072L8.20543 65.8628C20.8054 60.6335 33.6018 55.8783 46.3354 50.9651C59.9403 45.7275 73.4981 40.237 87.2288 35.3234C84.6292 33.2613 81.1898 32.3377 78.1351 31.1611C74.9077 29.9212 71.641 28.7051 68.539 27.1649L68.7977 26.0345C72.8181 27.1396 76.7131 28.7507 80.6081 30.2512C83.8748 31.4989 87.7224 32.4618 89.7336 35.5754L89.7257 35.5754Z" fill="#1D1D1B"/>
<path d="M78.1351 31.1689C81.1898 32.3377 84.6292 33.2691 87.2288 35.3312C73.4981 40.2448 59.9403 45.7354 46.3353 50.973C33.6018 55.8783 20.8132 60.6413 8.20539 65.8707C29.0001 54.2754 48.9698 40.7279 68.539 27.1728C71.6409 28.713 74.9155 29.9291 78.1351 31.1689Z" fill="#84FEDC"/>
<path d="M58.0081 22.2523C52.1267 20.5787 46.3081 19.2449 40.3326 18.0693C40.317 18.1958 40.2777 18.3302 40.1993 18.4567C34.714 26.695 29.1501 34.8623 23.6255 43.0611C19.4115 49.3071 15.4174 55.9245 10.9599 62.0757C26.6741 48.8381 42.4432 35.6874 58.0081 22.2523ZM68.7898 26.0346L68.5311 27.165C48.9697 40.7202 29.0001 54.2676 8.20533 65.8629L8.61406 67.0721C7.64843 67.4124 6.69065 67.7368 5.73287 68.0691C5.07342 68.2986 4.70404 67.3265 5.34777 67.0496C5.52048 66.9863 5.70104 66.9072 5.88161 66.836C5.93652 66.7174 6.00715 66.6067 6.06992 66.4881C6.03061 66.3379 6.06981 66.1798 6.21109 66.0533C6.28174 65.998 6.34453 65.9426 6.40732 65.8794C10.8798 57.8311 16.6481 50.3119 21.7803 42.6903C27.4618 34.2542 33.104 25.7708 38.8405 17.3664C39.0917 16.9948 39.4685 16.9551 39.7748 17.0973C46.166 17.095 52.809 18.4363 58.7613 20.766C59.2168 20.9397 59.2955 21.4456 59.1386 21.8329C60.8824 23.8321 62.6419 25.8076 64.3935 27.7909C65.4218 27.1029 66.458 26.4069 67.4941 25.711C68.0044 25.363 68.5305 25.6236 68.7898 26.0346ZM63.216 28.5897C61.6766 27.0963 60.2705 25.3183 59.1392 23.4612C59.1156 23.477 59.1 23.5087 59.0843 23.5324C44.9244 35.9711 30.474 48.1807 15.6544 59.845C31.4323 49.3265 47.4617 39.1714 63.216 28.5976L63.216 28.5897Z" fill="#1D1D1B"/>
<path d="M59.1392 23.4612C60.2705 25.3183 61.6766 27.1042 63.2161 28.5896C47.4617 39.1714 31.4323 49.3264 15.6544 59.837C30.4819 48.1727 44.9244 35.9631 59.0843 23.5244C59.1 23.5007 59.1235 23.4691 59.1392 23.4533L59.1392 23.4612Z" fill="#84FEDC"/>
<path d="M40.3248 18.0692C46.3082 19.2527 52.1267 20.5785 58.0004 22.2521C42.4433 35.6873 26.6741 48.838 10.9521 62.0756C15.4096 55.9244 19.4037 49.307 23.6178 43.061C29.1423 34.8621 34.7062 26.6949 40.1915 18.4566C40.2778 18.3301 40.3092 18.2036 40.3248 18.0692Z" fill="#84FEDC"/>
<g style="mix-blend-mode:multiply" opacity="0.75">
<path d="M89.7256 35.5755C87.7223 32.4619 83.8668 31.491 80.6001 30.2512C76.7052 28.7587 72.8102 27.1397 68.7897 26.0346L68.5311 27.165C71.633 28.7052 74.9076 29.9213 78.1272 31.1611C81.1819 32.3299 84.6212 33.2614 87.2209 35.3235C73.4902 40.237 59.9324 45.7276 46.3274 50.9652C37.4485 54.391 28.5459 57.7457 19.6906 61.2347C18.8743 62.1677 18.0424 63.0849 17.1947 63.9942C27.165 60.3546 37.0724 56.5095 47.0033 52.7513C60.7182 47.569 74.5588 42.6001 88.1401 37.0779C88.3914 36.9829 88.5562 36.8011 88.6425 36.6114C89.31 37.0775 90.2206 36.3499 89.7178 35.5676L89.7256 35.5755Z" fill="#1D1D1B"/>
<path d="M78.1351 31.1692C74.9076 29.9293 71.6409 28.7132 68.539 27.173C53.6952 37.4541 38.6238 47.7273 23.1281 57.147C22.0137 58.5307 20.8757 59.8986 19.6985 61.2348C28.546 57.7458 37.4564 54.3911 46.3353 50.9653C59.9403 45.7277 73.4981 40.2372 87.2288 35.3236C84.6291 33.2615 81.1898 32.3379 78.1351 31.1613L78.1351 31.1692Z" fill="#84FEDC"/>
<path d="M67.502 25.711C66.4658 26.4069 65.4297 27.1029 64.4014 27.7909C62.6497 25.8155 60.8902 23.8321 59.1465 21.8329C59.2955 21.4456 59.2247 20.9397 58.7692 20.766C56.4369 19.8578 54.0027 19.0999 51.5213 18.5159C51.1996 19.1167 50.8701 19.7097 50.5405 20.3026C53.0297 20.9024 55.5189 21.5418 58.016 22.2523C51.3049 28.0407 44.5546 33.7738 37.7964 39.4911C37.0273 40.4953 36.2661 41.4836 35.4891 42.464C34.414 43.816 33.2995 45.176 32.1537 46.536C41.2667 39.0077 50.2383 31.3135 59.1 23.5245C59.1157 23.5008 59.1392 23.4692 59.1549 23.4533C60.2862 25.3105 61.6923 27.0963 63.2318 28.5818C51.1746 36.6802 38.9603 44.5337 26.8167 52.482C26.7461 52.5532 26.6833 52.6243 26.6127 52.6955C25.4904 54.1977 24.3289 55.6763 23.1438 57.139C38.6317 47.7114 53.7109 37.446 68.5546 27.165L68.8133 26.0346C68.5619 25.6236 68.0279 25.363 67.5177 25.711L67.502 25.711Z" fill="#1D1D1B"/>
<path d="M59.0843 23.5245C50.2226 31.3135 41.2431 39.0077 32.138 46.5359C30.4427 48.5522 28.669 50.5526 26.801 52.4899C38.9446 44.5416 51.1589 36.6881 63.2161 28.5897C61.6766 27.0963 60.2705 25.3183 59.1392 23.4612C59.1157 23.477 59.1 23.5086 59.0843 23.5324L59.0843 23.5245Z" fill="#84FEDC"/>
<path d="M37.7808 39.4913C44.5468 33.774 51.2971 28.0409 58.0003 22.2524C55.5033 21.5419 53.0219 20.9026 50.5249 20.3028C46.7664 27.0386 42.3718 33.4744 37.7729 39.4913L37.7808 39.4913Z" fill="#84FEDC"/>
</g>
<g style="mix-blend-mode:soft-light">
<path d="M39.4624 21.587C33.9616 30.3392 27.7932 38.4513 21.719 46.7847C21.1305 47.5912 22.183 48.8713 22.9915 48.1201C30.5108 41.122 37.0168 32.7647 42.8396 24.3128C44.4327 21.9963 40.9298 19.2389 39.4624 21.587Z" fill="white"/>
</g>
</g>
<defs>
<clipPath id="clip0_34_1631">
<rect width="84.8682" height="51.0781" fill="white" transform="translate(5 17.0308) rotate(-0.0207095)"/>
</clipPath>
</defs>
</svg>
