<svg width="187" height="127" viewBox="0 0 187 127" fill="none" xmlns="http://www.w3.org/2000/svg">
<path fill-rule="evenodd" clip-rule="evenodd" d="M137.492 70.3024C137.793 70.0467 138.089 69.7842 138.379 69.5149C140.267 81.2443 141.812 93.0782 142.909 104.912C143.581 111.056 143.965 117.104 144.349 123.248C144.445 126.032 148.765 126.032 148.573 123.248C148.341 118.722 147.98 114.157 147.618 109.574C146.183 91.4115 144.726 72.9695 151.165 55.5681C152.797 51.0561 155.293 44.3361 160.669 43.0881C169.213 41.1681 169.309 55.7601 168.541 64.8801C163.549 67.4721 159.613 71.5041 157.117 76.4961C154.717 81.1041 151.645 88.7841 157.021 92.4321C167.965 99.8241 171.709 74.8641 172.477 67.7601C175.933 66.3201 179.677 65.6481 183.421 65.7441C184.477 65.6481 185.341 64.6881 185.341 63.6321C185.341 62.4801 184.381 61.6161 183.325 61.5201C180.129 61.4337 176.933 61.8915 173.876 62.7535C173.536 62.8494 173.198 62.9503 172.861 63.0561C172.878 62.7059 172.894 62.3519 172.909 61.9947C173.161 56.0862 173.183 49.3042 170.557 44.1441C169.309 41.7441 167.101 39.8241 164.509 39.0561C161.917 38.2881 159.037 38.6721 156.733 40.1121C151.069 43.1841 148.285 50.3841 146.365 56.1441C145.095 59.9558 144.115 63.942 143.472 67.9669C143.289 69.1119 143.133 70.26 143.005 71.4081C142.824 70.2613 142.643 69.1144 142.459 67.9676C142.058 65.4664 141.642 62.9653 141.181 60.4641C140.701 57.6801 136.573 58.8321 137.053 61.6161C137.232 62.6432 137.409 63.6714 137.583 64.7004C137.303 65.0066 137.015 65.3048 136.72 65.5947C136.507 64.3244 136.289 63.0555 136.068 61.788L136.068 61.786C135.723 59.7888 137.066 58.3858 138.488 57.9889C139.203 57.7894 140.023 57.8125 140.739 58.1971C141.484 58.5969 141.998 59.3248 142.166 60.2888C142.455 61.8601 142.727 63.4309 142.988 65.0004C143.609 61.8797 144.425 58.8015 145.417 55.8279C146.38 52.9381 147.581 49.6206 149.275 46.6275C150.964 43.6446 153.184 40.9084 156.23 39.2476C158.773 37.6686 161.938 37.2512 164.793 38.0973C167.665 38.9481 170.081 41.0604 171.444 43.6827L171.449 43.6906C174.153 49.0055 174.162 55.8811 173.922 61.703C176.968 60.8737 180.155 60.4341 183.352 60.5205L183.384 60.5213L183.416 60.5242C184.903 60.6594 186.341 61.8831 186.341 63.6321C186.341 65.1984 185.09 66.5965 183.512 66.74L183.454 66.7453L183.396 66.7438C179.983 66.6563 176.574 67.2311 173.405 68.4645C172.963 72.2811 171.819 79.892 169.498 85.8929C168.283 89.0338 166.681 91.9098 164.541 93.4976C163.446 94.3104 162.191 94.7991 160.786 94.7856C159.391 94.7722 157.947 94.2641 156.461 93.2608L156.46 93.2596C153.337 91.1405 152.739 87.8476 153.162 84.6911C153.581 81.5647 155.014 78.3702 156.226 76.0427C158.733 71.0316 162.642 66.9496 167.589 64.2541C167.938 59.7984 168.045 54.2782 167.12 50.058C166.637 47.8521 165.9 46.1386 164.893 45.0954C163.951 44.1212 162.706 43.6564 160.892 44.0629C158.578 44.6013 156.798 46.3352 155.361 48.6341C153.926 50.9309 152.926 53.6412 152.106 55.9082L152.103 55.9152C148.132 66.6469 147.198 77.8111 147.413 89.1371C147.542 95.9236 148.076 102.682 148.611 109.436C148.974 114.019 149.336 118.6 149.571 123.188C149.636 124.162 149.301 124.985 148.684 125.551C148.089 126.097 147.308 126.336 146.569 126.336C145.102 126.336 143.429 125.345 143.35 123.298C142.966 117.156 142.584 111.134 141.915 105.021L141.914 105.013L141.913 105.004C140.838 93.4064 139.332 81.8062 137.492 70.3024ZM167.869 70.3521C167.869 70.5441 167.869 70.7361 167.773 70.9281C167.731 71.2065 167.689 71.4887 167.645 71.7741C166.895 76.7041 165.903 82.599 163.453 86.8641C162.109 89.0721 159.325 90.6081 158.461 87.1521C157.885 84.5601 159.517 81.2001 160.669 78.9921C162.092 75.98 164.17 73.3325 166.715 71.2402C166.878 71.1056 167.044 70.9733 167.212 70.8433C167.263 70.8035 167.314 70.7639 167.366 70.7245C167.532 70.5981 167.7 70.4739 167.869 70.3521ZM166.48 72.7681C164.443 74.6347 162.766 76.8931 161.573 79.4191L161.565 79.4371L161.556 79.4547C160.983 80.5529 160.319 81.8851 159.866 83.2443C159.409 84.6165 159.21 85.8919 159.435 86.9224C159.62 87.6558 159.868 87.9622 160.023 88.0802C160.146 88.1744 160.297 88.2175 160.549 88.1585C161.15 88.0175 161.99 87.3401 162.593 86.3548C164.755 82.5844 165.747 77.4342 166.48 72.7681Z" fill="black"/>
<path fill-rule="evenodd" clip-rule="evenodd" d="M100.282 65.5345C100.324 64.2932 100.398 63.0506 100.506 61.808C100.602 61.232 100.89 60.752 101.274 60.368C99.2583 53.552 100.122 45.968 105.882 41.36C110.874 37.424 117.498 39.152 121.722 43.376C128.724 50.3778 129.449 61.1814 126.95 70.3564C126.845 70.742 126.734 71.1246 126.618 71.504C127.006 71.391 127.39 71.2685 127.77 71.1366C131.511 69.8397 134.891 67.64 137.583 64.7003C137.512 64.2783 137.44 63.8565 137.368 63.4349C134.861 66.3707 131.662 68.5986 128.089 69.957C130.428 60.73 129.612 49.8517 122.429 42.6689C117.989 38.2283 110.793 36.2148 105.263 40.5747L105.258 40.5792C99.2163 45.4123 98.278 53.2154 100.166 60.1272C99.8547 60.5518 99.6176 61.0576 99.5199 61.6436L99.5135 61.6823L99.5101 61.7214C99.2875 64.2816 99.2063 66.8408 99.2556 69.3883C99.5941 68.1044 99.9347 66.8195 100.282 65.5345ZM101.038 78.8414C100.832 79.6489 100.624 80.4563 100.411 81.2631C100.434 81.3969 100.458 81.5307 100.482 81.6643L100.483 81.6726L100.485 81.6808C101.022 84.4119 101.943 87.5571 103.652 89.9529C105.402 92.4046 108.005 94.0928 111.739 93.7153C116.341 93.2903 119.265 90.5141 121.348 87.1506C122.854 84.72 123.989 81.8568 125.019 79.2587C125.318 78.5047 125.608 77.773 125.896 77.0807C130.605 76.0608 134.991 73.8591 138.567 70.6939C138.505 70.3007 138.442 69.9077 138.378 69.5148C134.727 72.9104 130.128 75.233 125.178 76.208C124.803 77.0883 124.434 78.0175 124.057 78.9682C121.639 85.0679 118.868 92.0556 111.642 92.72C105.018 93.392 102.522 86.864 101.466 81.488C101.309 80.6092 101.166 79.7268 101.038 78.8414ZM142.247 66.6578C143.085 65.2224 142.724 63.6507 141.773 62.7324C141.703 62.6654 141.63 62.6016 141.554 62.5413C141.794 63.9134 142.024 65.2856 142.247 66.6578ZM119.376 79.1743C118.142 82.3301 116.872 85.5783 114.042 87.44C105.756 93.0223 104.761 76.0978 104.648 69.0684C104.637 68.3611 104.634 67.754 104.634 67.28C104.95 67.7803 105.287 68.263 105.643 68.7273C108.969 73.063 113.98 75.8018 119.42 76.4061C119.77 76.4449 120.121 76.475 120.474 76.496C120.331 76.8153 120.192 77.1405 120.055 77.4698C119.824 78.029 119.601 78.6001 119.376 79.1743ZM119.017 77.3655C118.822 77.8456 118.633 78.3295 118.446 78.8078C118.405 78.9134 118.363 79.0188 118.322 79.1238C117.923 80.1427 117.527 81.1349 117.076 82.0764C116.174 83.961 115.097 85.5491 113.493 86.6046L113.484 86.6107C112.446 87.3094 111.637 87.5501 111.019 87.5504C110.426 87.5507 109.899 87.3298 109.4 86.8729C108.33 85.8956 107.492 83.9357 106.892 81.3794C106.049 77.79 105.769 73.4709 105.677 70.3462C109.085 74.2454 113.861 76.7217 119.017 77.3655ZM117.114 45.008C125.562 51.056 124.986 63.44 121.914 72.368C110.586 72.944 101.37 59.216 105.69 48.848C107.706 43.856 112.506 41.84 117.114 45.008ZM116.54 45.8266C120.46 48.6369 122.333 52.9395 122.84 57.7137C123.323 62.2632 122.554 67.1652 121.188 71.3854C116.219 71.37 111.666 68.4034 108.76 64.148C105.722 59.6992 104.614 54.0314 106.613 49.2327L106.618 49.2225C107.542 46.9328 109.063 45.4249 110.77 44.8086C112.453 44.2011 114.468 44.4051 116.54 45.8266Z" fill="black"/>
<path fill-rule="evenodd" clip-rule="evenodd" d="M100.314 64.7371C100.341 64.1293 100.376 63.5214 100.419 62.9133C99.9538 63.3269 99.6095 63.8985 99.5047 64.5823C98.9537 66.6041 98.4242 68.6171 97.8968 70.622C96.7671 74.9169 95.6472 79.1745 94.3463 83.402L94.3424 83.4152C93.7553 85.4215 92.7383 88.8301 91.2508 90.9887C90.4997 92.0786 89.7728 92.6347 89.112 92.7388C88.5206 92.832 87.6177 92.6097 86.3564 91.1948C84.5257 89.0946 83.4007 86.4446 82.4652 83.5669C82.1316 82.5409 81.8166 81.4629 81.4988 80.3753C80.9509 78.5008 80.3948 76.5976 79.721 74.8825L79.7202 74.8805C78.4584 71.6889 76.9103 69.3955 75.1362 67.9618C73.3372 66.508 71.3367 65.9673 69.3027 66.2539C66.0143 66.7172 62.8502 69.2974 60.2525 73.0543C59.8316 69.3217 59.457 65.5753 59.0831 61.7663C62.1324 56.922 66.8347 46.5823 69.9788 36.2636C71.5855 30.9904 72.8009 25.6731 73.172 21.0598C73.5375 16.5149 73.1055 12.4148 71.1599 9.77593C70.0423 8.11287 68.2714 7.0117 66.388 6.67929L66.3786 6.67772C64.3963 6.34733 62.4117 6.78924 60.7635 7.88806L60.7446 7.9007L60.7262 7.91418C56.5506 10.9814 54.0867 16.252 52.7024 22.5003C51.3133 28.77 50.9756 36.186 51.1866 43.752C51.5021 55.0642 53.0539 66.8679 54.2337 75.8423C54.6274 78.8367 54.9796 81.516 55.2308 83.757C55.2398 84.2546 55.3564 84.8042 55.4521 85.1867L55.4577 85.2092L55.4644 85.2315C55.8844 86.6316 57.2468 87.5761 58.6302 87.5761C59.9826 87.5761 61.4064 86.6496 61.7175 85.1663C62.4594 82.2078 63.6585 79.4504 65.4 76.9756L65.4064 76.9664L65.4127 76.9572C66.7081 75.0258 67.8143 73.7859 68.7481 73.0958C69.6678 72.416 70.2951 72.3528 70.7538 72.4952C71.2728 72.6563 71.8909 73.1717 72.5651 74.3057C73.2273 75.4193 73.8596 76.9882 74.474 78.9966L74.4776 79.0085L74.4815 79.0203C74.747 79.8167 75.0079 80.6301 75.2719 81.4529C75.9452 83.5516 76.6379 85.7111 77.4748 87.8041C80.1081 94.6286 84.2971 98.8283 88.7788 99.0232C93.3657 99.2226 97.3756 95.2375 99.6189 87.7312C100.272 85.6013 100.869 83.4554 101.434 81.3053C101.289 80.487 101.157 79.6656 101.038 78.8414C100.308 81.7148 99.5378 84.585 98.6622 87.4401C94.2462 102.224 83.5902 100.88 78.4062 87.4401C77.5821 85.3798 76.9053 83.2703 76.2354 81.182C75.9689 80.3512 75.7034 79.5238 75.4302 78.7041C72.9342 70.5441 69.8622 68.5281 64.5822 76.4001C62.7582 78.9921 61.5102 81.8721 60.7422 84.9441C60.5502 85.9041 59.5902 86.5761 58.6302 86.5761C57.6702 86.5761 56.7102 85.9041 56.4222 84.9441C56.3262 84.5601 56.2302 84.0801 56.2302 83.6961C55.9755 81.4161 55.6182 78.6978 55.2195 75.6654C52.4627 54.6947 47.7309 18.7009 61.3182 8.72011C62.7582 7.76011 64.4862 7.37611 66.2142 7.66411C67.8462 7.95212 69.3822 8.91211 70.3422 10.3521C77.2542 19.6641 64.0062 52.3041 58.0542 61.5201C58.4793 65.856 58.9044 70.1166 59.3961 74.3686C59.4597 74.9179 59.5243 75.467 59.5902 76.0161C59.8627 75.5274 60.1428 75.0551 60.4297 74.6001C66.0042 65.7593 74.1339 63.4703 78.7902 75.2481C79.4511 76.9303 79.9803 78.7441 80.5162 80.5807C81.693 84.6134 82.9018 88.756 85.6062 91.8561C91.0782 98.0001 94.1502 87.6321 95.3022 83.6961C96.6091 79.4488 97.738 75.1569 98.8707 70.8509C99.3364 69.0805 99.8028 67.3077 100.282 65.5345C100.291 65.2772 100.301 65.0198 100.313 64.7624C100.313 64.754 100.313 64.7455 100.314 64.7371ZM104.864 67.6345C104.789 67.9232 104.715 68.2124 104.641 68.5019C104.636 68.0335 104.634 67.6221 104.634 67.2801C104.71 67.3992 104.786 67.5174 104.864 67.6345ZM57.3575 51.7021C57.0007 45.0061 57.0248 38.3747 57.2862 31.6641C57.4782 27.8241 60.1662 9.77611 65.9262 12.0801C69.187 13.4228 68.0404 19.8434 67.5597 22.5361L67.5582 22.5441C65.8471 32.7206 62.7843 42.5592 58.3697 51.9013C58.0784 52.5177 57.7813 53.132 57.4782 53.7441C57.4339 53.0627 57.3938 52.3821 57.3575 51.7021ZM58.2648 49.7445C62.212 41.0044 64.9812 31.8395 66.572 22.3783L66.5737 22.3683C66.8162 21.0108 67.2032 18.8298 67.1466 16.8365C67.1183 15.8401 66.9797 14.9615 66.7011 14.2849C66.4304 13.6278 66.0537 13.2155 65.5498 13.0066C65.0823 12.8208 64.6935 12.8467 64.3185 13.015C63.9061 13.2 63.4512 13.5871 62.9748 14.226C62.0169 15.5104 61.1749 17.5336 60.4758 19.8564C59.0862 24.4725 58.3786 29.8583 58.2852 31.7089C58.0497 37.7563 58.008 43.7321 58.2648 49.7445Z" fill="black"/>
<path fill-rule="evenodd" clip-rule="evenodd" d="M48.7436 73.5125L48.7464 73.5274C50.3041 81.8188 47.1543 90.0647 41.6847 96.2504C36.2182 102.433 28.3377 106.671 20.2381 106.872C13.0487 107.074 6.47379 103.324 2.83835 97.1643L2.83301 97.1552L2.82782 97.146C0.657199 93.2843 0.0832548 89.5409 0.651065 85.9849C1.21552 82.4499 2.89691 79.166 5.13016 76.1739C9.58017 70.2119 16.3801 65.2083 21.5461 61.4773L21.5535 61.472C22.3552 60.9042 23.2358 60.7528 24.0478 60.9976C24.8261 61.2323 25.4234 61.7944 25.7937 62.4363C26.5244 63.7027 26.5416 65.648 24.934 66.8362L24.923 66.8443C24.3671 67.2435 23.7941 67.6502 23.2094 68.0651C20.1712 70.2215 16.8171 72.602 13.9001 75.341C10.4247 78.6044 7.69788 82.2639 6.89066 86.4712C5.67383 93.2755 11.3738 99.5626 18.0389 100.465C26.243 101.546 34.2658 96.0364 38.9599 89.3859C43.1068 82.6313 43.4622 77.0509 41.6923 72.1177C39.8916 67.0986 35.8434 62.6062 30.875 58.1872C28.4641 56.0429 25.8668 53.9412 23.2406 51.8161L23.0302 51.6459C20.3398 49.4686 17.6245 47.2659 15.0973 44.996C10.0678 40.4785 5.66855 35.5977 3.63263 29.9186C0.344913 22.2719 1.47913 15.1311 5.48233 9.84435C9.46488 4.58482 16.2104 1.25618 23.9937 1.00137C31.18 0.404116 38.0736 3.95098 41.6264 10.2444L41.6363 10.262L41.6455 10.2799C45.8523 18.4883 41.8916 27.0111 37.9735 33.7961L37.9518 33.8338L37.9268 33.8695C37.0003 35.1931 35.211 35.7919 33.6527 34.9419L33.6231 34.9258L33.5947 34.9077C32.0835 33.946 31.6642 32.1152 32.4857 30.6092L32.491 30.5995L32.4965 30.5899C33.799 28.3226 35.1719 25.9211 36.0983 23.4313C37.0197 20.9552 37.4674 18.4716 36.9942 16.0367C35.8885 11.4229 32.6381 8.75009 28.6232 7.70317C24.563 6.64441 19.7504 7.26913 15.7719 9.3098C11.8014 11.3464 8.77576 14.7275 8.07083 19.1016C7.36652 23.4719 8.93698 29.0971 14.7197 35.7044C17.6906 39.0045 21.0495 41.9165 24.5302 44.7753C25.4546 45.5344 26.3896 46.2915 27.3281 47.0513C29.9074 49.1396 32.5125 51.2487 34.9925 53.4807C40.7666 58.6774 46.9392 65.2924 48.7403 73.4976L48.7436 73.5125ZM13.9716 36.368C-9.64444 9.39202 33.1716 -4.33598 37.9716 15.824C39.0276 21.2 35.9556 26.576 33.3636 31.088C32.7876 32.144 33.0756 33.392 34.1316 34.064C35.1876 34.64 36.4356 34.256 37.1075 33.296C41.0436 26.48 44.6916 18.416 40.7556 10.736C37.3956 4.78403 30.8676 1.42402 24.0515 2.00002C8.97956 2.48002 -1.77243 14.864 4.56357 29.552C7.50568 37.7972 15.725 44.4482 23.8763 51.0441C37.2689 61.8813 50.4779 72.5698 39.7956 89.936C34.9956 96.752 26.6436 102.608 17.9076 101.456C10.8036 100.496 4.56357 93.776 5.90757 86.288C7.49686 77.9883 15.9889 71.9624 22.6448 67.2394C23.2256 66.8272 23.7925 66.425 24.3396 66.032C26.5475 64.4 24.4355 60.656 22.1316 62.288C11.7636 69.776 -4.55644 81.968 3.69956 96.656C7.15555 102.512 13.3956 106.064 20.2115 105.872C35.7636 105.488 50.7396 89.552 47.7636 73.712C46.0356 65.84 40.0836 59.408 34.3236 54.224C31.8645 52.0109 29.2898 49.9263 26.717 47.8433C22.2589 44.2338 17.8064 40.629 13.9716 36.368Z" fill="black"/>
</svg>
