<svg width="354" height="258" viewBox="0 0 354 258" fill="none" xmlns="http://www.w3.org/2000/svg">
<g clip-path="url(#clip0_77_585)">
<path d="M238.868 185.286C247.199 184.219 253.061 180.243 252.915 171.224C252.776 163.002 247.514 158.112 239.533 157.937C231.713 157.761 226.012 161.693 225.668 170.376C225.31 179.315 230.192 183.963 238.868 185.286Z" fill="#FDE7F5"/>
<path d="M210.824 233.705C209.721 225.161 205.248 220.016 196.2 220.206C187.641 220.382 183.139 225.468 183.242 233.683C183.351 242.556 188.599 247.738 197.471 247.445C205.642 247.175 210.093 242.088 210.817 233.705H210.824Z" fill="#FDE7F5"/>
<path d="M196.112 114.933C195.827 105.775 190.703 100.893 182.255 100.476C173.747 100.06 169.004 105.965 168.873 113.632C168.726 121.934 173.528 127.686 182.679 127.752C191.179 127.81 195.381 123.009 196.119 114.933H196.112Z" fill="#FDE7F5"/>
<path d="M95.1362 221.96C86.8994 222.61 82.9747 227.697 83.1574 235.832C83.3474 244.405 88.8143 248.666 96.7953 248.541C104.842 248.41 110.324 243.476 110.155 235.327C109.973 226.659 104.265 222.216 95.1435 221.96H95.1362Z" fill="#FDE7F5"/>
<path d="M148.379 179.38C147.144 170.332 142.182 165.486 134.186 165.918C126.856 166.312 121.688 171.282 121.922 179.015C122.156 186.901 126.388 192.711 135.1 192.294C143.271 191.907 147.451 186.659 148.379 179.38Z" fill="#FDE7F5"/>
<path d="M26.3989 240.539C25.7338 232.536 21.4875 227.785 13.0461 227.559C4.35614 227.325 0.0294642 232.009 0.000229735 240.48C-0.0290047 248.929 4.7362 254.038 12.8926 253.986C20.7786 253.935 25.8946 249.302 26.3989 240.539Z" fill="#FDE7F5"/>
<path d="M300.157 257.224C307.744 255.58 313.21 251.319 312.662 243.067C312.129 235.064 306.881 230.175 298.659 230.548C290.89 230.899 286.658 236.102 286.768 243.645C286.885 251.852 291.994 256.172 300.157 257.224Z" fill="#FDE7F5"/>
<path d="M69.7683 132.313C70.5284 139.365 74.4824 145.095 83.0188 144.525C90.2836 144.036 95.4946 139.468 95.3996 131.531C95.2973 123.009 89.8012 118.331 81.8567 118.499C74.497 118.66 69.5563 123.082 69.7683 132.32V132.313Z" fill="#FDE7F5"/>
<path d="M219.763 52.7804C219.726 61.3607 224.294 66.3598 232.509 66.5279C240.154 66.6887 245.036 61.8284 245.372 54.1398C245.745 45.6326 240.424 40.882 232.399 40.5385C224.645 40.2096 220.194 44.7921 219.756 52.7731L219.763 52.7804Z" fill="#FDE7F5"/>
<path d="M312.626 13.7668C311.362 5.93194 307.086 0.545489 298.878 0.48702C291.753 0.43586 287.134 5.09875 286.885 12.2027C286.6 20.286 290.715 25.9064 299.354 26.1037C307.283 26.2864 311.12 21.1338 312.619 13.7595L312.626 13.7668Z" fill="#FDE7F5"/>
<path d="M291.738 110.073C280.965 109.59 276.441 114.407 276.178 121.715C275.9 129.484 280.11 135.112 288.822 135.353C296.825 135.572 301.561 130.8 302.021 123.513C302.54 115.364 297.256 110.898 291.738 110.073Z" fill="#FDE7F5"/>
<path d="M42.7045 198.587C50.4662 197.761 55.7065 194.392 55.5676 186.162C55.4288 177.735 50.4223 172.897 42.2659 173.043C34.5334 173.182 30.2798 178.05 30.4625 186.053C30.6453 194.114 35.2131 197.936 42.7045 198.58V198.587Z" fill="#FDE7F5"/>
<path d="M325.401 177.743C326.03 185.315 329.881 190.043 337.797 190.043C345.77 190.043 350.134 185.001 350.075 177.575C350.009 170.157 345.544 165.216 337.607 165.231C329.684 165.245 325.716 169.755 325.401 177.736V177.743Z" fill="#FDE7F5"/>
<path d="M353.978 69.7215C353.342 62.1425 349.651 57.3627 341.473 57.3042C333.901 57.2457 329.48 61.7186 329.377 68.7641C329.268 76.0946 333.287 81.905 341.254 82.2339C349.154 82.5628 353.284 77.6806 353.978 69.7215Z" fill="#FDE7F5"/>
<path d="M115.411 74.063C116.273 81.0062 120.38 85.1867 127.726 84.9382C135.297 84.6824 138.959 79.6541 138.798 72.5355C138.623 64.5545 133.521 60.0743 125.862 60.6225C118.626 61.1414 115.308 66.4182 115.411 74.0557V74.063Z" fill="#FDE7F5"/>
</g>
<defs>
<clipPath id="clip0_77_585">
<rect width="353.978" height="256.737" fill="white" transform="matrix(-1 0 0 -1 353.978 257.224)"/>
</clipPath>
</defs>
</svg>
