<svg width="184" height="133" viewBox="0 0 184 133" fill="none" xmlns="http://www.w3.org/2000/svg">
<g clip-path="url(#clip0_169_1476)">
<path d="M59.6319 37.2671C55.3157 37.8199 52.2792 39.8796 52.3549 44.5517C52.4268 48.8111 55.1529 51.344 59.2873 51.4349C63.3385 51.5258 66.2917 49.4888 66.4697 44.9909C66.6552 40.3604 64.1261 37.9524 59.6319 37.2671Z" fill="black"/>
<path d="M74.1592 12.1838C74.7309 16.6098 77.048 19.2753 81.7353 19.1769C86.1689 19.086 88.5011 16.4508 88.4481 12.1952C88.3913 7.5988 85.6729 4.91442 81.0765 5.06587C76.8436 5.20596 74.5378 7.84112 74.163 12.1838H74.1592Z" fill="black"/>
<path d="M81.7811 73.7126C81.9288 78.4567 84.5829 80.9858 88.9597 81.2016C93.3668 81.4174 95.824 78.3582 95.8921 74.3866C95.9678 70.0855 93.4803 67.1058 88.7401 67.0717C84.3368 67.0414 82.1597 69.5289 81.7773 73.7126H81.7811Z" fill="black"/>
<path d="M134.091 18.2682C138.358 17.9312 140.391 15.2961 140.296 11.0821C140.198 6.64091 137.366 4.43359 133.231 4.49795C129.063 4.5661 126.223 7.12175 126.31 11.3433C126.405 15.8337 129.362 18.1357 134.087 18.2682H134.091Z" fill="black"/>
<path d="M106.508 40.3263C107.148 45.0136 109.719 47.5238 113.861 47.3004C117.659 47.096 120.335 44.5214 120.214 40.5156C120.093 36.4304 117.901 33.4204 113.388 33.6362C109.155 33.8369 106.989 36.5553 106.508 40.3263Z" fill="black"/>
<path d="M169.699 8.64378C170.044 12.7896 172.244 15.2506 176.617 15.368C181.118 15.4891 183.36 13.0622 183.375 8.67407C183.39 4.29728 180.921 1.65076 176.696 1.67726C172.611 1.70376 169.96 4.10418 169.699 8.64378Z" fill="black"/>
<path d="M27.881 0C23.951 0.851885 21.1189 3.05921 21.4029 7.33378C21.6793 11.4796 24.3978 14.0126 28.6572 13.8195C32.6819 13.6377 34.874 10.942 34.8172 7.03467C34.7567 2.78282 32.1101 0.545206 27.881 0Z" fill="black"/>
<path d="M147.232 64.7092C146.839 61.0555 144.79 58.0872 140.368 58.3825C136.605 58.6362 133.905 61.0025 133.954 65.1143C134.007 69.5289 136.854 71.9521 140.97 71.865C144.783 71.7817 147.342 69.4911 147.232 64.7054V64.7092Z" fill="black"/>
<path d="M69.5291 105.91C69.5481 101.465 67.1817 98.8754 62.9261 98.7883C58.9658 98.705 56.4366 101.223 56.2625 105.206C56.0694 109.613 58.8257 112.074 62.9829 112.252C67 112.422 69.3058 110.048 69.5329 105.914L69.5291 105.91Z" fill="black"/>
<path d="M21.4219 126.121C22.0769 130.179 24.2918 132.97 28.5436 133C32.2351 133.027 34.628 130.611 34.7567 126.931C34.9044 122.743 32.7728 119.832 28.2975 119.73C24.1896 119.635 22.2018 122.304 21.4257 126.124L21.4219 126.121Z" fill="black"/>
<path d="M32.2429 76.2304C37.8237 76.4803 40.1673 73.9852 40.3036 70.1991C40.4475 66.1744 38.2666 63.2591 33.7536 63.1341C29.6077 63.0205 27.1543 65.4929 26.9158 69.2677C26.6469 73.4892 29.3843 75.8026 32.2429 76.2304Z" fill="black"/>
<path d="M161.252 30.3763C157.232 30.8041 154.517 32.5496 154.589 36.8128C154.661 41.1782 157.254 43.6846 161.48 43.6089C165.485 43.537 167.689 41.0154 167.594 36.8696C167.5 32.6934 165.133 30.7133 161.252 30.3801V30.3763Z" fill="black"/>
<path d="M14.8038 41.1744C14.4782 37.252 12.4829 34.8023 8.38252 34.8023C4.25183 34.8023 1.9915 37.4148 2.02178 41.2615C2.05586 45.1044 4.3692 47.6639 8.48096 47.6563C12.5852 47.6487 14.641 45.3127 14.8038 41.1782V41.1744Z" fill="black"/>
<path d="M0 97.1338C0.329395 101.06 2.2414 103.536 6.47811 103.566C10.4006 103.597 12.6912 101.28 12.7442 97.6297C12.801 93.8322 10.7186 90.8222 6.59169 90.6519C2.49886 90.4815 0.359685 93.0106 0 97.1338Z" fill="black"/>
<path d="M123.588 94.8848C123.141 91.2879 121.013 89.1223 117.208 89.251C113.285 89.3835 111.389 91.9884 111.472 95.6761C111.563 99.8106 114.205 102.131 118.173 101.848C121.922 101.579 123.641 98.8451 123.588 94.8886V94.8848Z" fill="black"/>
</g>
<defs>
<clipPath id="clip0_169_1476">
<rect width="183.375" height="133" fill="white"/>
</clipPath>
</defs>
</svg>
