<svg width="354" height="258" viewBox="0 0 354 258" fill="none" xmlns="http://www.w3.org/2000/svg">
<g clip-path="url(#clip0_77_568)">
<path d="M115.11 72.4258C106.779 73.4928 100.917 77.4687 101.063 86.4875C101.202 94.7097 106.464 99.5992 114.445 99.7746C122.265 99.95 127.966 96.018 128.31 87.3353C128.668 78.3969 123.786 73.7486 115.11 72.4258Z" fill="#F2F2F3"/>
<path d="M143.154 24.0063C144.257 32.5501 148.73 37.6954 157.778 37.5053C166.337 37.3299 170.839 32.2431 170.737 24.0283C170.627 15.1556 165.379 9.97379 156.507 10.2661C148.336 10.5366 143.885 15.6233 143.161 24.0063H143.154Z" fill="#F2F2F3"/>
<path d="M157.866 142.779C158.151 151.937 163.275 156.819 171.723 157.235C180.231 157.652 184.974 151.746 185.105 144.08C185.252 135.777 180.45 130.025 171.299 129.96C162.8 129.901 158.597 134.703 157.859 142.779H157.866Z" fill="#F2F2F3"/>
<path d="M258.842 35.7515C267.079 35.1011 271.003 30.0143 270.821 21.8798C270.631 13.3068 265.164 9.04587 257.183 9.17012C249.136 9.30168 243.655 14.235 243.823 22.3841C244.005 31.0521 249.713 35.4957 258.835 35.7515H258.842Z" fill="#F2F2F3"/>
<path d="M205.599 78.3314C206.834 87.3794 211.796 92.225 219.792 91.7938C227.122 91.3992 232.29 86.4293 232.056 78.6968C231.822 70.8108 227.59 65.0005 218.878 65.4171C210.707 65.8044 206.527 71.052 205.599 78.3314Z" fill="#F2F2F3"/>
<path d="M327.579 17.1728C328.244 25.1758 332.491 29.9264 340.932 30.1529C349.622 30.3868 353.949 25.702 353.978 17.2313C354.007 8.78255 349.242 3.67383 341.085 3.72499C333.199 3.77615 328.083 8.40981 327.579 17.1728Z" fill="#F2F2F3"/>
<path d="M53.8207 0.487305C46.2344 2.13174 40.7675 6.39266 41.3157 14.6441C41.8492 22.647 47.0968 27.5365 55.319 27.1637C63.088 26.8129 67.3197 21.6092 67.2101 14.0667C67.0931 5.85913 61.9844 1.53974 53.8207 0.487305Z" fill="#F2F2F3"/>
<path d="M284.21 125.399C283.45 118.346 279.496 112.616 270.959 113.186C263.694 113.676 258.483 118.244 258.578 126.181C258.681 134.703 264.177 139.38 272.121 139.212C279.481 139.051 284.422 134.63 284.21 125.392V125.399Z" fill="#F2F2F3"/>
<path d="M134.215 204.931C134.252 196.351 129.684 191.352 121.469 191.184C113.824 191.023 108.942 195.883 108.606 203.572C108.233 212.079 113.554 216.829 121.579 217.173C129.333 217.502 133.784 212.919 134.222 204.938L134.215 204.931Z" fill="#F2F2F3"/>
<path d="M41.3521 243.944C42.6164 251.779 46.892 257.165 55.0995 257.224C62.2254 257.275 66.8445 252.612 67.093 245.508C67.378 237.425 63.2633 231.805 54.6245 231.607C46.6946 231.425 42.8576 236.577 41.3594 243.951L41.3521 243.944Z" fill="#F2F2F3"/>
<path d="M62.2402 147.639C73.0131 148.121 77.5371 143.305 77.8002 135.996C78.0779 128.227 73.8682 122.6 65.1563 122.358C57.1534 122.139 52.4174 126.912 51.9569 134.198C51.438 142.347 56.7222 146.813 62.2402 147.639Z" fill="#F2F2F3"/>
<path d="M311.274 59.1245C303.512 59.9504 298.272 63.3197 298.41 71.5491C298.549 79.976 303.556 84.8143 311.712 84.6681C319.445 84.5292 323.698 79.6617 323.515 71.6588C323.333 63.5974 318.765 59.775 311.274 59.1318V59.1245Z" fill="#F2F2F3"/>
<path d="M28.5765 79.9684C27.948 72.3966 24.0964 67.668 16.1811 67.668C8.20745 67.668 3.84421 72.7109 3.90268 80.1365C3.96846 87.5547 8.43402 92.4953 16.3712 92.4807C24.2937 92.4661 28.2623 87.9567 28.5765 79.9757V79.9684Z" fill="#F2F2F3"/>
<path d="M0 187.99C0.635849 195.569 4.3267 200.349 12.505 200.407C20.0768 200.466 24.4985 195.993 24.6008 188.947C24.7104 181.617 20.6907 175.806 12.7243 175.478C4.82368 175.149 0.694318 180.031 0 187.99Z" fill="#F2F2F3"/>
<path d="M238.567 183.648C237.705 176.705 233.598 172.525 226.252 172.773C218.681 173.029 215.019 178.057 215.18 185.176C215.355 193.157 220.457 197.637 228.116 197.089C235.352 196.57 238.67 191.293 238.567 183.656V183.648Z" fill="#F2F2F3"/>
</g>
<defs>
<clipPath id="clip0_77_568">
<rect width="353.978" height="256.737" fill="white" transform="translate(0 0.487305)"/>
</clipPath>
</defs>
</svg>
