<svg width="784" height="795" viewBox="0 0 784 795" fill="none" xmlns="http://www.w3.org/2000/svg">
<path d="M477.123 254.364C480.451 204.903 495.944 151.229 473.837 102.691C457.342 58.1704 399.289 48.5124 381.955 103.824C370.069 160.701 380.061 216.774 379.002 272.217C360.134 250.712 349.351 211.346 328.689 187.345C193.749 14.1995 61.1185 121.178 251.459 321.764C202.181 315.695 138.322 298.261 89.3344 324.5C65.3403 336.748 62.452 371.771 76.9328 391.156C110.919 417.036 160.396 422.657 200.819 427.966C162.279 437.087 124.643 448.928 93.5416 473.451C49.6584 537.158 120.648 560.948 204.899 519.554C83.367 671.635 250.972 676.351 329.032 525.45C336.89 539.992 324.92 569.188 331.29 590.557C341.215 637.486 354.418 687.696 383.642 725.879C420.324 753.973 476.665 762.361 497.287 703.215C498.677 657.504 488.425 616.809 474.371 575.31C634.164 775.147 764.825 624.634 484.646 452.551C542.698 462.735 597.622 486.691 657.824 481.355C783.247 456.245 692.366 320.3 499.423 333.919C543.222 316.417 587.771 309.365 630.057 285.039C747.354 212.589 621.109 90.1358 477.123 254.364Z" fill="#D8C4EE"/>
<path d="M398.697 324.249C475.335 346.001 453.34 485.762 372.47 467.126L372.456 467.185C219.337 420.655 321.763 294.445 398.697 324.249Z" fill="#7C3AC5"/>
</svg>
