<svg width="506" height="495" viewBox="0 0 506 495" fill="none" xmlns="http://www.w3.org/2000/svg">
<path d="M374.044 285.781C411.362 279.577 453.943 281.668 486.114 256.735C516.286 236.674 513.276 191.865 469.155 188.693C424.828 189.842 384.936 207.1 343.573 216.039C356.235 198.253 383.58 183.339 397.781 163.784C502.705 33.192 399.987 -46.5464 284.401 130.004C280.265 92.3409 282.011 41.8553 253.931 10.0748C240.625 -5.59709 214.107 -1.59871 202.25 12.5566C188.991 42.3378 193.495 80.07 196.643 111.023C183.108 83.9994 167.712 58.1246 144.043 39.3275C89.0306 17.9108 83.8143 74.8077 129.336 130.119C-4.93207 66.5351 20.9657 191.842 146.732 223.346C137.31 231.734 113.527 227.965 98.7739 236.445C65.6606 252.048 30.686 270.661 7.45386 299.063C-6.97718 331.234 -3.32346 374.551 44.2209 379.491C78.4142 372.505 106.84 357.753 135.196 340.035C14.8073 493.767 149.512 564.406 228.171 326.133C230.79 371.035 222.633 416.028 237.156 459.804C277.806 548.55 362.83 457.207 318.87 316.298C339.552 345.757 352.604 377.607 378.088 404.745C452.472 479.153 521.273 363.911 374.044 285.781Z" fill="#FECBA1"/>
<path d="M308.383 239.792C305.672 300.527 198.013 308.708 197.668 245.376H197.623C205.321 123.494 317.023 177.426 308.383 239.792Z" fill="#FD7E14"/>
</svg>
