<svg width="1440" height="849" viewBox="0 0 1440 849" fill="none" xmlns="http://www.w3.org/2000/svg">
<g clip-path="url(#clip0_60_1575)">
<rect width="1440" height="849" fill="white"/>
<path d="M183.67 -16.6646C491.011 -273.603 488.26 70.7464 213.569 137.55C305.081 142.741 431.11 168.695 393.218 285.848C345.672 394.178 233.397 289.326 177.909 241.364C268.694 460.151 135.76 511.747 76.6386 412.657C31.2202 344.036 65.0634 198.697 32.8293 307.701C0.127945 397.811 -129.951 468.093 -116.662 322.754C-115.417 285.796 -73.2165 256.677 -75.137 230.723C-349.932 388.624 -272.85 122.913 -80.3277 76.4562C-264.441 -28.707 -243.004 -174.98 -71.3478 -54.6604C-162.911 -254.138 -34.7535 -289.591 40.3556 -99.3003C45.2349 -223.721 145.259 -320.164 207.184 -200C220.94 -139.217 195.401 -74.6445 183.67 -16.6646Z" fill="#FFF8B3"/>
<path d="M1532.86 -71.5165C1714.02 -170.882 1709.98 22.4747 1548.87 40.5908C1526.78 42.6371 1507.95 49.4033 1485.22 54.7781C1522.41 81.5704 1571.41 87.0271 1612.53 107.49C1644.69 125.415 1664.2 159.028 1654.13 191.059C1641.42 256.293 1502.93 195.506 1482.9 168.359C1552.18 307.095 1475.13 353.531 1442.31 329.331C1396.31 282.403 1397.23 213.24 1385.01 152.398C1376.99 186.83 1382.56 226.691 1372.41 262.295C1359.2 300.492 1327.69 343.163 1283 343C1200.08 337.816 1267.37 189.012 1286.08 156.791C1121.29 317.108 1006.02 251.382 1039.39 174.088C1069.4 132.536 1119.6 112.401 1161.15 82.007C1112.97 85.3083 1035.16 99.8776 1011.8 69.9205C967.466 20.8104 1013.49 -55.2011 1067.3 -73.9447C1108.47 -87.2863 1152.26 -66.1417 1189.88 -50.3992C1155.04 -100.219 1104.95 -145.209 1091.66 -207.933C1087.68 -231.479 1094.72 -250.086 1119.24 -258.489C1185.68 -278.243 1266.82 -163.925 1288.4 -133.259C1250.07 -310.601 1316.31 -341.103 1367.96 -289.183C1408.75 -240.782 1408.69 -176.421 1409.78 -116.316C1490.22 -388.386 1654.63 -260.263 1532.86 -71.5165Z" fill="#FAB7E1"/>
<path d="M1409.12 610.364C1412.45 560.903 1427.94 507.229 1405.84 458.691C1389.34 414.17 1331.29 404.512 1313.96 459.824C1302.07 516.701 1312.06 572.774 1311 628.217C1292.13 606.712 1281.35 567.346 1260.69 543.345C1125.75 370.2 993.119 477.178 1183.46 677.764C1134.18 671.695 1070.32 654.261 1021.33 680.5C997.34 692.748 994.452 727.771 1008.93 747.156C1042.92 773.036 1092.4 778.657 1132.82 783.966C1094.28 793.087 1056.64 804.928 1025.54 829.451C981.658 893.158 1052.65 916.948 1136.9 875.554C1015.37 1027.64 1182.97 1032.35 1261.03 881.45C1268.89 895.992 1256.92 925.188 1263.29 946.557C1273.22 993.486 1286.42 1043.7 1315.64 1081.88C1352.32 1109.97 1408.67 1118.36 1429.29 1059.22C1430.68 1013.5 1420.42 972.809 1406.37 931.31C1566.16 1131.15 1696.82 980.634 1416.65 808.551C1474.7 818.735 1529.62 842.691 1589.82 837.355C1715.25 812.245 1624.37 676.3 1431.42 689.919C1475.22 672.417 1519.77 665.365 1562.06 641.039C1679.35 568.589 1553.11 446.136 1409.12 610.364Z" fill="#D8C4EE"/>
<path d="M1330.7 680.249C1407.33 702.001 1385.34 841.762 1304.47 823.126L1304.46 823.185C1151.34 776.655 1253.76 650.445 1330.7 680.249Z" fill="#7C3AC5"/>
<path d="M862.044 958.781C899.362 952.577 941.943 954.668 974.114 929.735C1004.29 909.674 1001.28 864.865 957.155 861.693C912.828 862.842 872.936 880.1 831.573 889.039C844.235 871.253 871.58 856.339 885.781 836.784C990.705 706.192 887.987 626.454 772.401 803.004C768.265 765.341 770.011 714.855 741.931 683.075C728.625 667.403 702.107 671.401 690.25 685.557C676.991 715.338 681.495 753.07 684.643 784.023C671.108 756.999 655.712 731.125 632.043 712.328C577.031 690.911 571.814 747.808 617.336 803.119C483.068 739.535 508.966 864.842 634.732 896.346C625.31 904.734 601.527 900.965 586.774 909.445C553.661 925.048 518.686 943.661 495.454 972.063C481.023 1004.23 484.677 1047.55 532.221 1052.49C566.414 1045.51 594.84 1030.75 623.196 1013.04C502.807 1166.77 637.512 1237.41 716.171 999.133C718.79 1044.03 710.633 1089.03 725.156 1132.8C765.806 1221.55 850.83 1130.21 806.87 989.298C827.552 1018.76 840.604 1050.61 866.088 1077.75C940.472 1152.15 1009.27 1036.91 862.044 958.781Z" fill="#FECBA1"/>
<path d="M796.383 912.792C793.672 973.527 686.013 981.707 685.669 918.376H685.623C693.321 796.494 805.024 850.426 796.383 912.792Z" fill="#FD7E14"/>
<path d="M224.836 860.037C270.415 852.459 322.421 855.013 361.713 824.562C398.563 800.061 394.886 745.333 341 741.46C286.861 742.863 238.139 763.94 187.621 774.858C203.085 753.135 236.483 734.92 253.828 711.036C381.976 551.539 256.522 454.151 115.352 669.78C110.3 623.78 112.433 562.12 78.1365 523.305C61.8864 504.164 29.4986 509.047 15.0167 526.336C-1.17719 562.709 4.32368 608.793 8.16869 646.597C-8.36201 613.592 -27.166 581.99 -56.0737 559.032C-123.263 532.875 -129.634 602.366 -74.0358 669.92C-238.024 592.262 -206.394 745.305 -52.79 783.783C-64.297 794.027 -93.345 789.424 -111.363 799.78C-151.806 818.837 -194.522 841.57 -222.896 876.259C-240.522 915.551 -236.059 968.455 -177.991 974.489C-136.229 965.957 -101.512 947.939 -66.879 926.3C-213.915 1114.06 -49.394 1200.33 46.6749 909.321C49.8744 964.161 39.911 1019.11 57.6486 1072.58C107.297 1180.97 211.14 1069.41 157.45 897.308C182.709 933.289 198.651 972.188 229.776 1005.33C320.624 1096.21 404.653 955.461 224.836 860.037Z" fill="#BFEFF2"/>
<path d="M144.642 803.869C141.33 878.047 9.84208 888.038 9.42109 810.689H9.36499C18.767 661.828 155.194 727.699 144.642 803.869Z" fill="#6ADAE2"/>
<path d="M851.821 -197.137C983.549 -269.389 980.613 -128.793 863.466 -115.621C847.397 -114.133 833.708 -109.213 817.183 -105.305C844.223 -85.8232 879.853 -81.8555 909.749 -66.9766C933.139 -53.9427 947.324 -29.5016 940.003 -6.21114C930.758 41.2228 830.058 -2.97747 815.496 -22.7168C865.867 78.1622 809.842 111.927 785.977 94.3307C752.529 60.2084 753.203 9.91757 744.316 -34.3224C738.483 -9.28614 742.53 19.698 735.15 45.5873C725.549 73.3613 702.635 104.389 670.139 104.27C609.85 100.5 658.772 -7.69903 672.381 -31.1283C552.556 85.4429 468.739 37.6519 493.001 -18.5507C514.824 -48.7648 551.326 -63.4057 581.541 -85.5058C546.506 -83.1053 489.926 -72.5115 472.944 -94.2943C440.707 -130.004 474.174 -185.274 513.296 -198.903C543.232 -208.604 575.073 -193.229 602.43 -181.782C577.097 -218.007 540.673 -250.721 531.012 -296.33C528.115 -313.451 533.234 -326.981 551.068 -333.091C599.375 -347.454 658.375 -264.33 674.067 -242.032C646.194 -370.982 694.362 -393.162 731.917 -355.409C761.575 -320.216 761.536 -273.417 762.329 -229.712C820.813 -427.542 940.36 -334.38 851.821 -197.137Z" fill="#6ADAE2"/>
<path fill-rule="evenodd" clip-rule="evenodd" d="M407.143 529.027C436.352 529.027 460.03 552.068 460.03 580.491C460.03 608.913 436.352 631.954 407.143 631.954C377.934 631.954 354.256 608.913 354.256 580.491C354.256 552.068 377.934 529.027 407.143 529.027Z" fill="#FFE69C"/>
<path fill-rule="evenodd" clip-rule="evenodd" d="M310.025 586.793C309.667 581.966 313.148 577.871 317.8 577.645C322.452 577.419 346.902 578.612 347.197 584.731C347.492 590.851 323.749 594.898 319.097 595.124C314.445 595.35 310.384 591.62 310.025 586.793Z" fill="#FEE7AF"/>
<path fill-rule="evenodd" clip-rule="evenodd" d="M323.506 621.557C321.145 617.338 321.896 612.425 325.185 610.585C328.474 608.744 351.417 602.119 353.333 605.602C354.877 608.409 332.107 636.928 323.506 621.557V621.557Z" fill="#FEE7AF"/>
<path fill-rule="evenodd" clip-rule="evenodd" d="M501.315 605.02C502.888 600.448 501.274 595.747 497.711 594.521C494.147 593.295 470.392 590.855 469.126 594.624C468.105 597.661 495.584 621.675 501.315 605.02Z" fill="#FEE7AF"/>
<path fill-rule="evenodd" clip-rule="evenodd" d="M455.489 664.206C459.831 661.925 462.007 657.137 460.349 653.51C458.691 649.883 443.588 630.058 440.031 631.961C437.165 633.494 439.672 672.511 455.489 664.206Z" fill="#FEE7AF"/>
<path fill-rule="evenodd" clip-rule="evenodd" d="M415.598 669.05C419.879 668.082 422.847 664.011 422.226 659.956C421.605 655.902 414.99 638.421 411.475 639.247C408.642 639.913 400.003 672.574 415.598 669.05Z" fill="#FEE7AF"/>
<path fill-rule="evenodd" clip-rule="evenodd" d="M356.34 497.378C359.963 494.111 365.426 494.993 367.932 498.448C370.438 501.903 382.882 524.552 378.208 528.572C373.534 532.591 356.822 513.006 354.316 509.551C351.81 506.095 352.716 500.646 356.34 497.378Z" fill="#FEE7AF"/>
<path fill-rule="evenodd" clip-rule="evenodd" d="M327.731 523.891C330.131 520.42 334.27 519.122 336.975 520.993C339.681 522.863 360.89 538.962 357.759 543.294C354.628 547.625 330.99 535.434 328.285 533.564C325.579 531.693 325.331 527.363 327.731 523.891Z" fill="#FEE7AF"/>
<path fill-rule="evenodd" clip-rule="evenodd" d="M464.585 502.615C460.476 499.432 455.134 499.449 452.654 502.652C450.174 505.854 437.72 527.627 443.008 531.547C448.296 535.467 465.054 517.378 467.535 514.176C470.015 510.973 468.694 505.797 464.585 502.615Z" fill="#FEE7AF"/>
<path fill-rule="evenodd" clip-rule="evenodd" d="M501.811 564.44C501.318 559.63 497.88 556.042 494.131 556.426C490.382 556.81 467.723 562.391 468.475 568.469C468.813 571.198 472.303 573.045 477.841 573.768C484.637 574.655 493.85 574.057 495.916 573.846C499.665 573.461 502.304 569.251 501.811 564.44L501.811 564.44Z" fill="#FEE7AF"/>
<path fill-rule="evenodd" clip-rule="evenodd" d="M346.177 649.825C348.885 652.174 352.564 652.367 354.394 650.256C356.225 648.146 370.27 630.42 366.779 627.519C363.288 624.617 346.419 639.641 344.589 641.752C342.758 643.862 343.469 647.477 346.177 649.825Z" fill="#FEE7AF"/>
<path fill-rule="evenodd" clip-rule="evenodd" d="M375.517 669.781C378.318 670.7 381.17 669.676 381.886 667.493C382.603 665.31 389.649 638.243 386.078 637.153C382.506 636.063 372.459 661.98 371.743 664.163C371.026 666.346 372.716 668.861 375.517 669.781V669.781Z" fill="#FEE7AF"/>
<path fill-rule="evenodd" clip-rule="evenodd" d="M397.345 484.031C400.584 483.737 403.375 485.589 403.58 488.168C403.785 490.746 404.35 522.241 400.243 522.524C396.135 522.807 392.056 491.808 391.852 489.23C391.647 486.652 394.107 484.324 397.345 484.031L397.345 484.031Z" fill="#FEE7AF"/>
<path fill-rule="evenodd" clip-rule="evenodd" d="M429.314 488.394C425.338 487.683 421.667 489.618 421.112 492.717C420.558 495.815 417.19 521.074 422.242 521.868C427.295 522.662 434.955 498.39 435.509 495.292C436.063 492.193 433.29 489.105 429.314 488.394H429.314Z" fill="#FEE7AF"/>
<path fill-rule="evenodd" clip-rule="evenodd" d="M317.952 553.002C318.922 550.219 321.468 548.575 323.638 549.332C325.807 550.088 351.59 560.929 350.287 564.428C348.984 567.927 322.292 560.169 320.123 559.413C317.953 558.656 316.981 555.786 317.952 553.002L317.952 553.002Z" fill="#FEE7AF"/>
<path fill-rule="evenodd" clip-rule="evenodd" d="M487.303 638.889C489.08 636.536 489.035 633.507 487.201 632.122C485.368 630.736 462.042 615.304 459.854 618.33C457.667 621.356 478.933 639.255 480.766 640.64C482.599 642.025 485.526 641.241 487.303 638.889Z" fill="#FEE7AF"/>
<path fill-rule="evenodd" clip-rule="evenodd" d="M489.398 529.751C487.845 527.244 485.003 526.194 483.05 527.403C481.097 528.613 458.286 544.798 460.318 547.93C462.35 551.062 486.718 537.689 488.671 536.48C490.625 535.27 490.95 532.257 489.398 529.751Z" fill="#FEE7AF"/>
<path d="M376.769 582.534C376.744 582.958 377.056 583.34 377.468 583.385C377.881 583.43 378.237 583.123 378.263 582.698C378.662 576.253 380.9 571.963 383.714 569.967C384.781 569.211 386.183 568.698 387.473 568.698C388.749 568.698 390.036 569.123 391.229 569.983C393.907 571.912 396.128 576.002 396.839 582.399C396.885 582.825 397.257 583.147 397.667 583.116C398.077 583.087 398.373 582.716 398.327 582.29C397.741 577.026 396.155 573.17 394.094 570.671L396.526 567.169C396.741 566.858 396.677 566.42 396.384 566.192C396.091 565.964 395.678 566.031 395.464 566.343L393.16 569.66C392.799 569.313 392.428 569.003 392.049 568.729C391.573 568.387 391.085 568.102 390.587 567.871L391.682 563.458C391.774 563.085 391.564 562.702 391.213 562.604C390.862 562.506 390.501 562.729 390.409 563.102L389.339 567.414C388.701 567.241 388.055 567.154 387.41 567.154C386.839 567.153 386.27 567.22 385.709 567.353L384.515 563.322C384.407 562.953 384.037 562.747 383.69 562.862C383.343 562.977 383.149 563.37 383.257 563.739L384.45 567.768C383.898 568.005 383.357 568.308 382.835 568.678C382.433 568.964 382.04 569.29 381.662 569.655L379.233 566.491C379.004 566.192 378.589 566.146 378.308 566.39C378.026 566.633 377.983 567.074 378.212 567.372L380.738 570.662C378.631 573.241 377.098 577.226 376.769 582.534L376.769 582.534Z" fill="#25113B"/>
<path d="M438.732 582.534C438.757 582.958 438.444 583.34 438.032 583.385C437.62 583.43 437.264 583.123 437.238 582.698C436.838 576.253 434.601 571.963 431.786 569.967C430.719 569.211 429.317 568.698 428.028 568.698C426.752 568.698 425.465 569.123 424.272 569.983C421.593 571.912 419.373 576.002 418.662 582.399C418.616 582.825 418.244 583.147 417.833 583.116C417.423 583.087 417.128 582.716 417.174 582.29C417.76 577.026 419.346 573.17 421.406 570.671L418.974 567.169C418.76 566.858 418.823 566.42 419.116 566.192C419.41 565.964 419.822 566.031 420.037 566.343L422.341 569.66C422.701 569.313 423.072 569.003 423.452 568.729C423.927 568.387 424.416 568.102 424.913 567.871L423.819 563.458C423.726 563.085 423.936 562.702 424.288 562.604C424.639 562.506 425 562.729 425.092 563.102L426.161 567.414C426.799 567.241 427.445 567.154 428.091 567.154C428.662 567.153 429.23 567.22 429.792 567.353L430.985 563.322C431.094 562.953 431.463 562.747 431.81 562.862C432.158 562.977 432.352 563.37 432.243 563.739L431.05 567.768C431.603 568.005 432.144 568.308 432.665 568.678C433.068 568.964 433.46 569.29 433.838 569.655L436.268 566.491C436.497 566.192 436.912 566.146 437.193 566.39C437.474 566.633 437.517 567.074 437.288 567.372L434.763 570.662C436.869 573.241 438.403 577.226 438.732 582.534L438.732 582.534Z" fill="#25113B"/>
<path d="M400.14 600.822C400.043 600.404 399.625 600.145 399.208 600.242C398.791 600.339 398.531 600.756 398.628 601.174C399.247 603.8 400.782 606.07 402.744 607.549C404.076 608.554 405.612 609.199 407.202 609.353C408.808 609.508 410.46 609.161 412.005 608.177C413.93 606.951 415.676 604.733 416.924 601.259C417.068 600.857 416.859 600.413 416.457 600.269C416.055 600.125 415.611 600.334 415.467 600.737C414.346 603.858 412.826 605.819 411.173 606.871C409.94 607.657 408.625 607.934 407.348 607.811C406.055 607.686 404.79 607.149 403.679 606.311C401.993 605.04 400.673 603.085 400.14 600.822Z" fill="#25113B"/>
<path fill-rule="evenodd" clip-rule="evenodd" d="M529.716 181.642C527.33 190.283 522.737 199.344 517.421 205.372C510.64 213.065 506.772 213.667 497.363 209.364C490.182 206.079 482.487 199.998 476.84 193.392C464.861 179.382 465.42 168.556 470.858 164.607C480.608 157.526 495.791 168.336 500.892 178.674C501.951 166.012 511.252 150.793 522.926 153.039C529.528 154.308 534.626 163.876 529.716 181.642L529.716 181.642Z" fill="#FAB7E1"/>
<path fill-rule="evenodd" clip-rule="evenodd" d="M1191.75 397.831C1186.13 404.815 1178.32 411.307 1171.05 414.728C1161.77 419.097 1157.98 418.114 1151.05 410.429C1145.77 404.562 1141.12 395.926 1138.56 387.621C1133.13 370.007 1137.94 360.293 1144.5 358.827C1156.26 356.2 1165.9 372.148 1166.48 383.663C1172.48 372.462 1187.06 362.187 1196.88 368.883C1202.43 372.669 1203.31 383.474 1191.75 397.831L1191.75 397.831Z" fill="#FAB7E1"/>
<path fill-rule="evenodd" clip-rule="evenodd" d="M972.572 644.6C966.952 651.584 959.139 658.076 951.866 661.497C942.588 665.866 938.798 664.883 931.871 657.198C926.586 651.332 921.937 642.695 919.377 634.391C913.946 616.776 918.757 607.062 925.316 605.596C937.076 602.969 946.719 618.918 947.295 630.432C953.295 619.231 967.874 608.956 977.697 615.652C983.252 619.438 984.132 630.244 972.572 644.601L972.572 644.6Z" fill="#FAB7E1"/>
<path fill-rule="evenodd" clip-rule="evenodd" d="M299.572 397.6C293.952 404.584 286.139 411.076 278.866 414.497C269.588 418.866 265.798 417.883 258.871 410.198C253.586 404.332 248.937 395.695 246.377 387.391C240.946 369.776 245.757 360.062 252.316 358.596C264.076 355.969 273.719 371.918 274.295 383.432C280.295 372.231 294.874 361.956 304.697 368.652C310.252 372.438 311.132 383.244 299.572 397.601L299.572 397.6Z" fill="#FAB7E1"/>
<g clip-path="url(#clip1_60_1575)">
<path d="M913.632 190.267C909.316 190.82 906.279 192.88 906.355 197.552C906.427 201.811 909.153 204.344 913.287 204.435C917.339 204.526 920.292 202.489 920.47 197.991C920.655 193.36 918.126 190.952 913.632 190.267Z" fill="black"/>
<path d="M928.159 165.184C928.731 169.61 931.048 172.275 935.736 172.177C940.169 172.086 942.501 169.451 942.448 165.195C942.392 160.599 939.673 157.914 935.077 158.066C930.844 158.206 928.538 160.841 928.163 165.184H928.159Z" fill="black"/>
<path d="M935.781 226.713C935.929 231.457 938.583 233.986 942.959 234.202C947.367 234.417 949.824 231.358 949.892 227.387C949.968 223.085 947.48 220.106 942.74 220.072C938.337 220.041 936.16 222.529 935.777 226.713H935.781Z" fill="black"/>
<path d="M988.09 171.268C992.357 170.931 994.391 168.296 994.296 164.082C994.197 159.641 991.365 157.434 987.231 157.498C983.062 157.566 980.223 160.122 980.31 164.343C980.404 168.834 983.361 171.136 988.087 171.268H988.09Z" fill="black"/>
<path d="M960.508 193.326C961.148 198.014 963.719 200.524 967.861 200.3C971.659 200.096 974.335 197.521 974.214 193.516C974.093 189.43 971.901 186.42 967.388 186.636C963.155 186.837 960.989 189.555 960.508 193.326Z" fill="black"/>
<path d="M1023.7 161.644C1024.04 165.79 1026.24 168.251 1030.62 168.368C1035.12 168.489 1037.36 166.062 1037.37 161.674C1037.39 157.297 1034.92 154.651 1030.7 154.677C1026.61 154.704 1023.96 157.104 1023.7 161.644Z" fill="black"/>
<path d="M881.881 153C877.951 153.852 875.119 156.059 875.403 160.334C875.68 164.48 878.398 167.013 882.657 166.819C886.682 166.638 888.874 163.942 888.817 160.035C888.757 155.783 886.11 153.545 881.881 153Z" fill="black"/>
<path d="M1001.23 217.709C1000.84 214.055 998.79 211.087 994.368 211.382C990.604 211.636 987.905 214.002 987.954 218.114C988.007 222.529 990.854 224.952 994.97 224.865C998.782 224.782 1001.34 222.491 1001.23 217.705V217.709Z" fill="black"/>
<path d="M923.529 258.91C923.548 254.465 921.181 251.875 916.926 251.788C912.966 251.705 910.436 254.223 910.262 258.206C910.069 262.613 912.825 265.074 916.983 265.252C921 265.422 923.306 263.048 923.533 258.914L923.529 258.91Z" fill="black"/>
<path d="M875.422 279.121C876.077 283.179 878.292 285.97 882.544 286C886.235 286.026 888.628 283.611 888.757 279.931C888.905 275.743 886.773 272.832 882.298 272.729C878.19 272.635 876.202 275.304 875.426 279.124L875.422 279.121Z" fill="black"/>
<path d="M886.243 229.23C891.824 229.48 894.167 226.985 894.304 223.199C894.447 219.174 892.267 216.259 887.754 216.134C883.608 216.021 881.154 218.493 880.916 222.268C880.647 226.489 883.384 228.803 886.243 229.23Z" fill="black"/>
<path d="M1015.25 183.376C1011.23 183.804 1008.52 185.55 1008.59 189.813C1008.66 194.178 1011.25 196.685 1015.48 196.609C1019.49 196.537 1021.69 194.015 1021.59 189.87C1021.5 185.693 1019.13 183.713 1015.25 183.38V183.376Z" fill="black"/>
<path d="M868.804 194.174C868.478 190.252 866.483 187.802 862.383 187.802C858.252 187.802 855.991 190.415 856.022 194.262C856.056 198.104 858.369 200.664 862.481 200.656C866.585 200.649 868.641 198.313 868.804 194.178V194.174Z" fill="black"/>
<path d="M854 250.134C854.329 254.06 856.241 256.536 860.478 256.566C864.401 256.597 866.691 254.28 866.744 250.63C866.801 246.832 864.719 243.822 860.592 243.652C856.499 243.482 854.36 246.011 854 250.134Z" fill="black"/>
<path d="M977.588 247.885C977.141 244.288 975.013 242.122 971.208 242.251C967.285 242.384 965.389 244.988 965.472 248.676C965.563 252.811 968.205 255.132 972.173 254.848C975.922 254.579 977.641 251.845 977.588 247.889V247.885Z" fill="black"/>
</g>
</g>
<defs>
<clipPath id="clip0_60_1575">
<rect width="1440" height="849" fill="white"/>
</clipPath>
<clipPath id="clip1_60_1575">
<rect width="183.375" height="133" fill="white" transform="translate(854 153)"/>
</clipPath>
</defs>
</svg>
