<svg width="1440" height="350" viewBox="0 0 1440 350" fill="none" xmlns="http://www.w3.org/2000/svg">
<g clip-path="url(#clip0_173_1437)">
<rect width="1440" height="350" fill="white"/>
<g clip-path="url(#clip1_173_1437)">
<path d="M47.6737 276.684C47.0263 267.612 42.8843 260.664 33.4632 260.556C24.6564 260.456 18.2401 265.777 17.933 275.298C17.6341 284.644 22.905 290.297 32.2348 291.011C42.1539 291.766 46.4536 285.665 47.6737 276.692V276.684Z" fill="#BFEFF2"/>
<path d="M88.4795 347.487C88.6621 358.22 93.4598 364.147 102.806 364.562C112.186 364.985 117.921 359.382 118.403 350.027C118.893 340.532 113.323 334.588 104.151 334.173C94.9539 333.758 89.6416 339.444 88.4795 347.487Z" fill="#BFEFF2"/>
<path d="M91.3511 238.169C92.1977 247.815 98.3152 253.152 107.097 252.762C116.161 252.355 121.374 246.155 120.61 236.393C119.913 227.387 114.908 222.78 105.894 222.789C95.7587 222.805 91.9072 228.923 91.3428 238.169H91.3511Z" fill="#BFEFF2"/>
<path d="M48.7275 151.23C48.7275 161.846 54.5711 167.524 63.2784 168.047C72.5168 168.603 78.2442 162.643 78.0782 152.973C77.9122 143.552 72.8323 137.783 63.1372 137.849C54.181 137.908 49.6406 143.353 48.7275 151.23Z" fill="#BFEFF2"/>
<path d="M40.3281 41.721C40.7016 51.2998 45.7982 56.4794 54.4888 56.496C63.719 56.5126 69.6539 51.5073 69.2638 41.5052C68.9234 32.7814 64.6321 27.1038 55.3355 27.0955C45.5492 27.0955 40.9673 32.773 40.3281 41.721Z" fill="#BFEFF2"/>
<path d="M88.8027 -6.2312C90.2885 3.3061 95.8167 8.40262 105.122 7.82158C113.879 7.28205 119.033 1.72069 118.328 -7.11936C117.664 -15.3784 113.115 -21.3714 103.91 -21.2967C94.14 -21.222 89.998 -15.0215 88.8027 -6.2312Z" fill="#BFEFF2"/>
<path d="M-2.3455 212.239C-1.71466 219.801 4.18702 223.826 13.4753 223.436C22.1244 223.071 26.2415 217.385 26.034 209.574C25.7767 200.328 19.8252 194.517 10.6863 194.924C2.2779 195.297 -2.77712 200.784 -2.3455 212.247V212.239Z" fill="#BFEFF2"/>
<path d="M-18 111.811C-16.2735 120.626 -11.6667 126.353 -2.83494 125.855C5.84741 125.365 10.9024 119.895 10.2218 110.947C9.56604 102.315 4.59403 97.1186 -4.45354 97.4257C-13.775 97.7412 -16.9624 104.141 -18 111.811Z" fill="#BFEFF2"/>
<path d="M179.553 296.116C179.105 291.094 174.465 285.756 166.43 286.08C158.403 286.404 153.688 292.106 154.244 300.357C154.809 308.707 160.503 313.206 168.405 312.692C175.759 312.21 180.192 307.404 179.545 296.116H179.553Z" fill="#BFEFF2"/>
<path d="M106.483 114.168C108.177 120.916 111.115 126.727 119.308 126.528C126.338 126.353 130.854 122.419 131.252 115.247C131.684 107.411 126.919 102.381 119.714 101.8C112.003 101.178 108.343 107.113 106.483 114.168Z" fill="#BFEFF2"/>
<path d="M164.794 81.6465C165.433 87.9549 168.977 92.3292 175.502 91.8976C181.719 91.4909 185.836 87.324 185.255 80.5591C184.707 74.2009 180.905 69.9095 174.381 70.0257C167.517 70.1502 164.894 74.9977 164.794 81.6382V81.6465Z" fill="#BFEFF2"/>
<path d="M-13.3438 347.504C-13.3438 352.277 -10.2228 354.476 -6.2053 354.443C-2.15464 354.41 0.875048 352.119 0.692437 347.346C0.518126 342.831 -2.37876 340.05 -6.32981 340.166C-10.1563 340.283 -13.1611 342.988 -13.3438 347.496V347.504Z" fill="#BFEFF2"/>
<path d="M205.384 226.391C205.143 221.826 202.67 219.742 198.179 219.958C194.228 220.149 192.211 222.764 192.012 226.192C191.763 230.45 194.485 233.554 198.611 233.587C202.67 233.629 205.318 230.865 205.384 226.383V226.391Z" fill="#BFEFF2"/>
</g>
<g clip-path="url(#clip2_173_1437)">
<path d="M1360.93 183.543C1352.19 181.033 1344.24 182.535 1340.9 191.345C1337.78 199.582 1340.57 207.436 1349.41 210.996C1358.08 214.488 1365.2 211.481 1369.08 202.965C1373.2 193.909 1368.94 187.775 1360.94 183.546L1360.93 183.543Z" fill="#BFEFF2"/>
<path d="M918.583 30.6434C921.348 21.9766 919.438 14.6577 910.251 11.384C901.682 8.32788 893.851 11.0571 890.239 19.5995C886.556 28.3105 890.44 35.9808 898.752 39.3053C907.04 42.6211 914.457 39.7669 918.583 30.6434Z" fill="#BFEFF2"/>
<path d="M1038.82 73.3536C1048.69 76.3897 1055.79 73.1087 1059.05 64.572C1062.14 56.5002 1058.88 49.1814 1050.64 46.0982C1042.26 42.9609 1034.41 44.8335 1030.75 54.031C1027.16 63.0677 1031.08 69.4496 1038.82 73.3536Z" fill="#BFEFF2"/>
<path d="M1441.44 169.554C1451.58 173.071 1458.8 170.602 1462.4 161.968C1466.02 153.305 1462.73 145.993 1454.11 142.326C1445.36 138.603 1437.87 141.791 1434.33 150.262C1430.78 158.756 1434.29 165.699 1441.44 169.554Z" fill="#BFEFF2"/>
<path d="M1000.75 14.2265C1010.67 17.0805 1017.53 13.7925 1020.66 5.20737C1023.63 -2.92567 1020.28 -9.91347 1012.24 -13.138C1003.55 -16.6391 995.926 -13.3733 992.492 -5.00432C988.932 3.66293 993.415 10.2268 1000.75 14.2371L1000.75 14.2265Z" fill="#BFEFF2"/>
<path d="M1339.77 129.29C1349.12 131.81 1356.23 127.899 1358.89 119.518C1361.62 110.866 1357.59 103.84 1348.16 101.202C1339.46 98.7621 1333.41 101.879 1330.32 110.348C1326.86 119.871 1331.28 125.59 1339.77 129.298L1339.77 129.29Z" fill="#BFEFF2"/>
<path d="M1243.48 139.44C1253.45 143.089 1260.79 139.552 1264.27 131.555C1267.97 123.07 1264.34 115.644 1255.2 112.476C1246.3 109.395 1239.13 112.183 1235.86 121.31C1232.84 129.741 1236.39 135.876 1243.48 139.44Z" fill="#BFEFF2"/>
<path d="M1137.75 109.696C1146.88 112.637 1153.49 109.631 1156.49 101.475C1159.68 92.813 1157.02 85.5196 1147.49 82.4487C1139.18 79.7703 1132.38 81.8492 1129.17 90.5768C1125.81 99.7671 1129.57 106.021 1137.75 109.696Z" fill="#BFEFF2"/>
<path d="M1109.38 47.6947C1118.85 49.5769 1125.53 46.1368 1128.18 37.199C1130.69 28.7898 1127.23 22.038 1118.69 19.6627C1110.71 17.448 1103.51 19.6602 1100.42 28.3305C1097.13 37.5309 1101.53 43.5514 1109.38 47.6947Z" fill="#BFEFF2"/>
<path d="M1283.22 208.369C1290.54 210.375 1296.35 206.216 1299.17 197.36C1301.8 189.112 1297.88 183.291 1290.47 180.802C1281.7 177.866 1274.2 181.458 1271.44 190.18C1268.9 198.205 1272.31 204.838 1283.23 208.372L1283.22 208.369Z" fill="#BFEFF2"/>
<path d="M1183.53 188.558C1192.4 189.966 1199.36 187.608 1201.93 179.143C1204.45 170.821 1201.05 164.194 1192.42 161.758C1184.08 159.408 1177.5 162.291 1174.68 170.893C1171.77 179.756 1176.68 184.948 1183.53 188.558Z" fill="#BFEFF2"/>
<path d="M1424.5 66.3734C1419.63 65.0686 1413.02 67.5919 1410.56 75.2487C1408.11 82.8977 1411.84 89.2849 1419.78 91.598C1427.82 93.9375 1434 90.1362 1436.23 82.5385C1438.31 75.4667 1435.32 69.6526 1424.49 66.3812L1424.5 66.3734Z" fill="#BFEFF2"/>
<path d="M1228.52 72.4666C1235.44 73.1954 1241.91 72.4328 1244.53 64.6706C1246.79 58.0084 1244.64 52.4158 1238.05 49.5771C1230.84 46.479 1224.47 49.2247 1221.45 55.7911C1218.22 62.8188 1222.53 68.2959 1228.52 72.4666Z" fill="#BFEFF2"/>
<path d="M1218.02 6.53064C1224.16 8.0983 1229.49 6.27309 1231.33 -0.00211032C1233.08 -5.98034 1230.58 -11.2786 1224.03 -13.0577C1217.87 -14.7282 1212.53 -12.6329 1210.4 -6.46606C1208.16 0.0231925 1211.81 4.15226 1218.01 6.52778L1218.02 6.53064Z" fill="#BFEFF2"/>
<path d="M1406.47 265.181C1410.95 266.821 1414.09 264.646 1415.44 260.862C1416.8 257.047 1415.69 253.414 1411.14 251.946C1406.84 250.558 1403.24 252.323 1401.99 256.073C1400.78 259.706 1402.29 263.458 1406.46 265.178L1406.47 265.181Z" fill="#BFEFF2"/>
<path d="M1367.9 18.1546C1363.53 16.8117 1360.72 18.4187 1359.38 22.7099C1358.2 26.486 1359.96 29.2787 1363.11 30.6439C1367.03 32.341 1370.88 30.8511 1372.33 26.9884C1373.76 23.1909 1372.08 19.7544 1367.89 18.1517L1367.9 18.1546Z" fill="#BFEFF2"/>
<path d="M1004.14 101.029C1005.28 96.7951 1003.96 93.7239 999.822 92.2801C996.435 91.1024 993.334 91.7975 991.672 95.2286C989.717 99.2683 991.541 102.738 995.001 104.49C998.709 106.36 1002.04 104.671 1004.14 101.029Z" fill="#BFEFF2"/>
</g>
</g>
<defs>
<clipPath id="clip0_173_1437">
<rect width="1440" height="350" fill="white"/>
</clipPath>
<clipPath id="clip1_173_1437">
<rect width="236.507" height="875.431" fill="white" transform="translate(-18 -430.761)"/>
</clipPath>
<clipPath id="clip2_173_1437">
<rect width="236.507" height="875.431" fill="white" transform="translate(674 2.10303) rotate(-69.9006)"/>
</clipPath>
</defs>
</svg>
