<svg width="188" height="127" viewBox="0 0 188 127" fill="none" xmlns="http://www.w3.org/2000/svg">
<path d="M183.392 71.304C183.488 70.632 183.968 70.056 184.64 69.768C185.408 69.576 186.08 69.768 186.656 70.248C187.136 70.728 187.328 71.496 187.136 72.168C184.16 81.672 180.704 99.24 170.24 102.696C158.72 104.616 157.184 88.68 157.952 80.424C154.496 88.296 145.28 93.576 140.48 84.072C136.256 75.528 141.92 60.648 152.864 61.128C156.416 61.128 159.776 62.76 161.984 65.544C162.752 63.816 163.712 62.184 164.672 60.552C166.112 58.248 169.856 60.456 168.416 62.76C164.864 68.328 162.752 74.76 162.272 81.288C161.12 96.456 168.32 107.784 177.152 88.68C179.744 83.112 181.76 77.256 183.392 71.304ZM144.896 83.112C150.272 90.312 157.088 72.744 158.624 68.328C157.376 66.696 155.456 65.64 153.44 65.352C151.328 65.16 149.216 65.832 147.68 67.176C144.032 70.728 141.728 78.792 144.896 83.112Z" fill="black"/>
<path d="M140.289 70.6321C140.385 69.8641 140.961 69.2881 141.633 69.0961C142.401 68.8081 143.169 69.0001 143.649 69.5761C144.225 70.0561 144.417 70.8241 144.129 71.5921C141.729 80.6161 139.041 90.6001 132.417 97.7041C125.217 105.48 116.097 100.488 112.833 91.7521C108.705 80.7121 106.881 68.9041 107.553 57.0961C107.841 45.6721 109.569 34.2481 112.737 23.3041C113.889 18.5041 116.577 14.2801 120.417 11.2081C124.545 8.80806 129.921 9.96005 132.609 13.9921C136.257 18.7921 135.489 25.5121 134.625 31.0801C131.649 46.6321 123.777 60.7441 112.065 71.3041C116.961 109.224 132.129 102.888 140.289 70.6321ZM113.505 41.2561C112.257 49.3201 111.681 57.3841 111.777 65.5441C121.473 55.9441 128.097 43.4641 130.497 29.9281C131.169 25.6081 132.225 18.7921 128.385 15.6241C118.593 7.65605 114.369 35.3041 113.505 41.2561Z" fill="black"/>
<path d="M108.926 70.7279C110.654 68.6159 113.342 71.2079 111.71 73.4159C107.774 78.5039 102.014 81.9599 95.6783 83.2079C92.8943 89.7359 90.4943 98.9519 82.1423 99.7199C75.5183 100.392 73.0223 93.8639 71.9663 88.4879C70.8143 82.0559 70.4303 75.4319 71.0063 68.8079C71.1023 68.2319 71.3903 67.7519 71.7743 67.3679C69.7583 60.5519 70.6223 52.9679 76.3823 48.3599C81.3743 44.4239 87.9983 46.1519 92.2223 50.3759C99.5183 57.6719 99.9983 69.0959 97.1183 78.5039C101.726 77.1599 105.854 74.4719 108.926 70.7279ZM84.5423 94.4399C88.1903 92.0399 89.2463 87.3359 90.9743 83.4959C84.5423 83.1119 78.5903 79.7519 75.1343 74.2799C75.1343 79.4639 75.4223 100.584 84.5423 94.4399ZM92.4143 79.3679C95.4863 70.4399 96.0623 58.0559 87.6143 52.0079C83.0063 48.8399 78.2063 50.8559 76.1903 55.8479C71.8703 66.2159 81.0863 79.9439 92.4143 79.3679Z" fill="black"/>
<path d="M72.2253 43.1759C73.3773 42.8879 74.6253 43.5599 74.9133 44.7119C75.2013 45.8639 74.5293 47.0159 73.3773 47.3999L60.2253 50.6639L57.6333 124.776C57.5373 127.56 53.2173 127.56 53.3133 124.776C54.1773 100.392 55.0413 76.1039 55.8093 51.7199L31.8093 57.7679C29.7933 73.0319 26.5293 88.1999 21.9213 102.888C21.1533 105.576 16.9293 104.424 17.7933 101.736C22.1133 87.7199 25.2813 73.4159 27.2973 58.8239L6.65734 64.0079C5.50534 64.2959 4.35333 63.6239 4.06533 62.4719C3.77733 61.3199 4.44933 60.1679 5.50533 59.8799L27.9693 54.3119C28.5453 42.3119 34.2093 22.4399 21.2493 15.5279C13.7613 11.4959 6.27333 15.7199 5.12133 24.0719C4.16133 30.8879 8.19333 42.4079 16.8333 41.2559C19.5213 40.8719 20.6733 44.9999 17.9853 45.3839C7.04134 46.9199 -0.254665 35.2079 0.609335 25.4159C2.91334 0.743938 32.6733 7.46394 33.8253 29.4479C33.9213 37.4159 33.4413 45.2879 32.3853 53.1599L56.0013 47.3039C56.2893 39.1439 56.4813 31.0799 56.8653 23.0159C57.1533 15.2399 57.9213 6.40793 64.4493 1.22394C66.5613 -0.408065 69.6333 2.56794 67.4253 4.29594C60.6093 9.76794 61.2813 19.9439 60.9933 27.8159L60.3213 46.1519L72.2253 43.1759Z" fill="black"/>
</svg>
