<svg width="100" height="80" viewBox="0 0 100 80" fill="none" xmlns="http://www.w3.org/2000/svg">
<g clip-path="url(#clip0_34_1632)">
<path d="M78.9338 47.3848C79.0569 47.6766 79.0001 47.9214 78.8486 48.1002C78.8865 48.392 78.7918 48.7121 78.4888 48.9757C68.3961 57.6828 57.385 65.8911 45.2093 71.4825C44.8401 71.6614 44.4898 71.5013 44.3194 71.2378C44.3383 71.7367 43.8838 72.2167 43.2968 71.8873C38.3641 69.1104 33.7154 65.8723 29.2371 62.427C27.4098 61.0151 22.7895 58.6618 22.1646 56.1767C21.5587 53.7293 24.5221 52.5809 26.2074 51.5172C30.9792 48.4862 35.7131 45.3704 40.5701 42.4806C40.6458 42.4429 40.7311 42.4241 40.8068 42.3959C39.1594 38.7718 37.5688 35.1289 35.9971 31.5425C29.8525 33.0204 24.257 29.2739 21.9658 23.5602C19.3621 17.0274 22.1836 11.8125 28.5649 9.2051C34.0184 6.9836 40.8163 7.71783 44.6981 12.4526C47.7278 16.152 48.684 22.1105 45.749 26.0829C48.3621 28.8033 50.9469 31.599 53.5032 34.4323C58.3412 30.3753 63.5391 26.7606 68.6517 23.0613C69.1914 22.6753 70.034 23.0707 70.176 23.6731C72.2022 32.0414 75.6011 39.4966 78.9243 47.3848H78.9338ZM76.8793 47.3754C75.9136 45.794 75.033 44.1467 74.2377 42.4523C74.2377 42.6312 74.1809 42.81 74.0105 42.9512C71.5962 44.9939 68.8411 46.7259 66.2469 48.5615C66.0102 48.7215 65.7451 48.5991 65.622 48.392C65.5084 48.2132 65.48 47.9779 65.6788 47.8273C68.131 45.8034 70.5264 43.6196 73.1395 41.8122C73.4424 41.6052 73.7738 41.7087 74.0011 41.9346C71.6057 36.7386 69.892 31.1283 68.5476 25.6593C63.861 28.9727 59.2028 32.3238 54.2795 35.2889C58.1329 39.5907 61.8917 44.0149 65.4895 48.4956C66.6729 49.9734 67.847 51.4607 68.9926 52.9574C69.2387 52.8821 69.5322 52.9574 69.7121 53.1363C72.1454 51.2913 74.5407 49.3804 76.8793 47.3754ZM67.8091 54.5577C67.8091 54.5577 67.7807 54.5482 67.7712 54.5294C62.242 48.7309 56.9021 42.5465 51.799 36.2303C49.3563 33.2275 46.9798 30.187 44.6697 27.1372C43.9123 27.3631 43.098 26.4876 43.5335 25.6781C48.2106 16.9521 40.7311 8.1979 31.1401 10.7865C25.6677 12.2644 21.8238 16.4626 23.973 22.3741C25.9044 27.6831 30.752 30.5541 36.338 29.867C36.4043 29.8576 36.4611 29.8764 36.5273 29.8858C37.0007 29.6222 37.6067 29.6599 37.9475 30.3188C43.4389 41.1251 49.1858 52.402 53.2002 63.8578C53.2949 63.8014 53.399 63.792 53.4937 63.8673C53.5505 63.8955 53.5695 63.9237 53.5789 63.9331C53.5884 63.9331 53.6073 63.9426 53.6641 63.952C53.7777 63.9802 53.9008 64.0179 54.005 64.0461C54.0428 64.0555 54.0902 64.0649 54.1281 64.0649C54.45 63.8578 54.7624 63.6413 55.0938 63.4342C50.4261 50.9712 45.7679 39.0824 39.1689 27.4384C39.1121 27.3537 39.0931 27.2595 39.0742 27.1748C38.9984 27.1089 38.9322 27.0242 38.8943 26.9395C38.8186 27.0054 38.7428 27.0524 38.6387 27.0807C34.6716 27.8526 29.4643 28.0126 27.5518 23.6449C25.9896 20.0773 27.7885 15.7378 31.2727 14.1282C34.7853 12.5185 39.3866 13.5352 41.5169 16.8486C43.4199 19.7949 43.098 23.9461 40.75 26.5347C44.5939 29.2551 47.529 32.8603 50.4072 36.5409C50.5019 36.5221 50.5965 36.5032 50.7007 36.4844C50.909 36.4656 51.0699 36.5503 51.1741 36.6915C51.3634 36.9362 51.4013 37.3222 51.2025 37.5575C51.5244 37.9717 51.8463 38.3953 52.1777 38.8C56.7033 44.5515 61.2195 50.3029 65.7451 56.0449C66.4268 55.5554 67.099 55.0565 67.7712 54.5482L67.8091 54.5577ZM64.4101 57.0427C63.3687 55.6966 62.3272 54.2941 61.2952 52.8915C61.2857 52.9104 61.2763 52.9292 61.2573 52.9574C59.43 54.5294 57.2808 55.8473 55.2642 57.1651C55.0275 57.3157 54.7719 57.1651 54.6867 56.958C54.6204 56.8168 54.6298 56.6662 54.7719 56.5438C56.6276 55.0001 58.5211 53.3339 60.5567 52.0538C60.5851 52.0349 60.6325 52.0349 60.6609 52.0255C57.2903 47.3942 53.9008 42.5841 50.2652 38.0752C49.9717 38.1976 49.6687 38.3482 49.3941 38.5176C48.8545 38.8565 48.4284 39.3084 48.0118 39.7696C47.974 39.8072 47.9266 39.8449 47.8887 39.8637C50.5303 45.4175 52.7647 51.2254 54.3458 57.0521C54.8949 59.0477 55.3494 61.0245 55.7376 63.0201C58.6631 61.0716 61.5603 59.0948 64.4196 57.0521L64.4101 57.0427ZM53.2475 64.658C53.2475 64.658 53.1907 64.6015 53.1718 64.5638C52.9162 64.8462 52.386 64.9027 52.1493 64.5074C51.3256 63.1424 50.5113 61.7681 49.7444 60.3656C46.8189 55.1789 44.1679 49.7475 41.6494 44.2691C41.6494 44.2785 41.64 44.2879 41.6305 44.2879C38.3357 46.5471 34.9367 48.6556 31.5757 50.8018C30.1839 51.6961 28.688 52.4962 27.3719 53.5034C26.3305 54.0776 25.4594 54.8683 24.7872 55.8755L26.2263 57.0898C28.4323 59.9702 32.7686 62.3141 35.6468 64.4603C37.0481 65.5051 38.4682 66.55 39.879 67.5854C41.2613 68.6021 42.6436 69.6187 44.0164 70.6541C44.1016 70.72 44.1679 70.8048 44.2152 70.8801C44.2152 70.6918 44.3004 70.4753 44.5371 70.3341C47.4532 68.4421 50.3599 66.5594 53.2475 64.658ZM47.3396 38.7247C47.813 37.9717 48.5136 37.3316 49.3373 36.9174C47.065 34.1688 44.6981 31.5519 42.1702 29.1798C43.9975 32.2391 45.7301 35.4301 47.3491 38.7247H47.3396ZM39.0458 26.0923C41.1287 23.852 41.8009 20.3785 40.0399 17.724C38.4209 15.286 35.0125 14.5329 32.3615 15.559C29.398 16.7262 27.8075 20.4726 29.3791 23.3437C31.0739 26.4594 35.4859 26.0358 38.4872 25.904C38.7144 25.8946 38.8754 26.017 38.9795 26.1864C38.9984 26.1488 39.0079 26.1111 39.0458 26.0829V26.0923Z" fill="#1D1D1B"/>
<path d="M74.2377 42.4429C75.033 44.1372 75.9135 45.7845 76.8792 47.3659C74.5312 49.3709 72.1358 51.2818 69.712 53.1268C69.5321 52.9479 69.2386 52.8726 68.9925 52.9479C67.8469 51.4513 66.6823 49.964 65.4894 48.4861L65.6314 48.3826C65.7545 48.5897 66.0196 48.712 66.2563 48.552C68.8599 46.7164 71.6056 44.9844 74.0199 42.9418C74.1903 42.8006 74.2471 42.6217 74.2471 42.4429H74.2377Z" fill="#8D86F9"/>
<path d="M73.9915 41.9345C73.7643 41.6992 73.4423 41.5956 73.1299 41.8121C70.5168 43.6195 68.1214 45.8033 65.6692 47.8271C65.4799 47.9872 65.4988 48.2131 65.6124 48.3919L65.4704 48.4955C61.8726 44.0148 58.1044 39.5906 54.2605 35.2888C59.1838 32.3237 63.842 28.9726 68.5285 25.6592C69.873 31.1188 71.5866 36.729 73.982 41.9345H73.9915Z" fill="#8D86F9"/>
<path d="M61.2952 52.8915C62.3366 54.2941 63.3781 55.6966 64.4101 57.0427C61.5603 59.0853 58.6631 61.0621 55.7281 63.0106C55.3494 61.015 54.8854 59.0383 54.3363 57.0427L54.6771 56.9486C54.7624 57.1556 55.018 57.3063 55.2547 57.1557C57.2713 55.8378 59.4205 54.52 61.2478 52.948C61.2668 52.9291 61.2762 52.9103 61.2857 52.8821L61.2952 52.8915Z" fill="#8D86F9"/>
<path d="M60.6514 52.016C60.6514 52.016 60.5756 52.0254 60.5472 52.0442C58.5117 53.3338 56.6181 54.9999 54.7624 56.5343C54.6204 56.6472 54.6109 56.8073 54.6772 56.9485L54.3363 57.0426C52.7552 51.2064 50.5208 45.4079 47.8793 39.8542C47.9171 39.8353 47.9645 39.7977 48.0024 39.76C48.4189 39.2988 48.845 38.847 49.3847 38.5081C49.6592 38.3387 49.9527 38.188 50.2557 38.0657C53.8914 42.584 57.2808 47.3847 60.6514 52.016Z" fill="#8D86F9"/>
<path d="M55.1032 63.4341C54.7718 63.6412 54.4594 63.8577 54.1374 64.0648C54.0996 64.0648 54.0522 64.0554 54.0144 64.046C53.9102 64.0177 53.7871 63.9801 53.6735 63.9518C53.6167 63.9424 53.5978 63.933 53.5883 63.933C53.5788 63.9236 53.5599 63.9048 53.5031 63.8671C53.4084 63.7918 53.3043 63.8012 53.2096 63.8577C49.1858 52.4019 43.4483 41.1249 37.9569 30.3186C37.6161 29.6691 37.0101 29.6221 36.5367 29.8856C36.4705 29.8762 36.4136 29.8574 36.3474 29.8668C30.7613 30.5634 25.9043 27.683 23.9824 22.3739C21.8237 16.4625 25.6676 12.2642 31.1401 10.7864C40.731 8.20715 48.2106 16.952 43.524 25.678C43.0885 26.4781 43.9027 27.3535 44.6601 27.137C46.9703 30.1869 49.3467 33.2179 51.7894 36.2301L51.2024 36.7008C51.0983 36.5501 50.9373 36.4654 50.729 36.4937C50.6249 36.5031 50.5302 36.5219 50.4355 36.5501C47.5573 32.8696 44.6223 29.2644 40.7783 26.544C43.1263 23.9554 43.4388 19.8042 41.5452 16.8578C39.415 13.5444 34.8136 12.5278 31.301 14.1374C27.8074 15.7377 26.018 20.0865 27.5802 23.6541C29.4927 28.0218 34.7 27.8618 38.667 27.0899C38.7711 27.0711 38.8469 27.0146 38.9226 26.9487C38.9605 27.0334 39.0268 27.1182 39.1025 27.1841C39.1215 27.2688 39.1404 27.3629 39.1972 27.4476C45.7963 39.0917 50.4545 50.9805 55.1221 63.4435L55.1032 63.4341Z" fill="#B696FB"/>
<path d="M53.1813 64.5636C53.1813 64.5636 53.2381 64.6295 53.257 64.6578C50.3693 66.5592 47.4627 68.4419 44.5466 70.3339C44.3099 70.4845 44.2247 70.6916 44.2247 70.8799C44.1679 70.8046 44.1111 70.7198 44.0259 70.6539C42.653 69.6185 41.2707 68.6019 39.8884 67.5853L40.4849 66.7851C40.5228 66.851 40.608 66.8793 40.7121 66.8134C43.5998 64.9778 46.4686 63.1328 49.3279 61.2596C49.6119 61.0714 49.6119 60.7419 49.4888 60.5066L49.7634 60.356C50.5397 61.7585 51.3445 63.1423 52.1682 64.4977C52.4049 64.8837 52.9351 64.8366 53.1907 64.5542L53.1813 64.5636Z" fill="#8D86F9"/>
<path d="M49.7539 60.3655L49.4793 60.5161C49.3373 60.2808 49.0627 60.149 48.7881 60.3467C46.0046 62.3705 43.2589 64.4414 40.5133 66.5029C40.4091 66.5782 40.4186 66.71 40.4848 66.7853L39.8884 67.5854C38.4777 66.55 37.0575 65.5051 35.6562 64.4603C32.778 62.3046 28.4418 59.9702 26.2357 57.0898L24.7966 55.8755C25.4783 54.8588 26.3494 54.0681 27.3814 53.5033C28.6974 52.5056 30.1933 51.696 31.5851 50.8018C34.9462 48.6462 38.3451 46.5376 41.6399 44.2879C41.6494 44.2879 41.6589 44.2785 41.6589 44.269C44.1773 49.7475 46.8283 55.1789 49.7539 60.3655Z" fill="#8D86F9"/>
<path d="M49.4794 60.516C49.6024 60.7514 49.6024 61.0714 49.3184 61.2691C46.4686 63.1423 43.5904 64.9967 40.7027 66.8229C40.608 66.8887 40.5228 66.8511 40.4754 66.7946C40.4092 66.7193 40.3997 66.5875 40.5038 66.5122C43.2495 64.4413 45.9952 62.3798 48.7787 60.356C49.0533 60.1583 49.3279 60.2901 49.4699 60.5255L49.4794 60.516Z" fill="#1D1D1B"/>
<g style="mix-blend-mode:multiply" opacity="0.75">
<path d="M78.9338 47.3846C75.6011 39.4964 72.2116 32.0412 70.1855 23.6729C70.034 23.0705 69.2008 22.6751 68.6612 23.061C66.2847 24.7837 63.8894 26.4874 61.513 28.2289C61.4846 29.0478 61.4372 29.8668 61.3804 30.6857C63.7852 29.0384 66.1617 27.344 68.5476 25.6591C69.892 31.1187 71.6057 36.7289 74.001 41.9344C73.7738 41.6991 73.4519 41.5955 73.1395 41.812C70.5263 43.6194 68.131 45.7938 65.6788 47.827C65.4894 47.9871 65.5084 48.213 65.622 48.4012C65.7451 48.6083 66.0102 48.7307 66.2469 48.5707C68.8505 46.7351 71.5962 45.0031 74.0105 42.9604C74.1809 42.8192 74.2377 42.6404 74.2377 42.4615C75.033 44.1559 75.9135 45.8032 76.8793 47.3846C74.5312 49.3896 72.1359 51.3005 69.7121 53.1455C69.5322 52.9666 69.2387 52.8913 68.9925 52.9666C67.8469 51.4699 66.6824 49.9826 65.4895 48.5048C63.558 46.095 61.5698 43.7041 59.5436 41.332C59.2596 42.3674 58.9661 43.3934 58.6253 44.4101C61.6076 47.8741 64.6563 51.2723 67.7712 54.5292C67.7807 54.548 67.7996 54.548 67.8091 54.5574C67.1369 55.0658 66.4646 55.5741 65.783 56.0541C63.1793 52.7595 60.5851 49.4555 57.9909 46.1515C57.811 46.6316 57.6311 47.1022 57.4418 47.5729C58.5211 49.0602 59.591 50.5474 60.6608 52.0065C60.6324 52.0159 60.5851 52.0159 60.5567 52.0347C58.5211 53.3243 56.6275 54.9904 54.7718 56.5248C54.6298 56.6377 54.6204 56.7978 54.6866 56.939C54.7719 57.1461 55.0275 57.2967 55.2642 57.1461C57.2808 55.8282 59.43 54.5104 61.2573 52.9384C61.2763 52.9196 61.2857 52.9007 61.2952 52.8725C62.3367 54.275 63.3781 55.6776 64.4101 57.0237C61.5603 59.0663 58.6631 61.0431 55.7281 62.9916C55.3494 60.996 54.8855 59.0193 54.3363 57.0237C54.1564 56.3459 53.9576 55.6682 53.7588 54.9999C53.3895 55.6211 53.0014 56.2424 52.6037 56.8542C53.4369 59.0287 54.2701 61.2125 55.0938 63.4152C54.7624 63.6223 54.4499 63.8388 54.128 64.0459C54.0902 64.0459 54.0428 64.0365 54.005 64.0271C53.9008 63.9988 53.7777 63.9612 53.6641 63.9329C53.6073 63.9235 53.5884 63.9141 53.5789 63.9141C53.5694 63.9047 53.5505 63.8859 53.4937 63.8482C53.399 63.7729 53.2949 63.7823 53.2002 63.8388C52.6037 62.1444 51.9599 60.4595 51.2972 58.7651C50.8427 59.3958 50.3882 60.0171 49.9054 60.6289C50.6344 61.9373 51.3729 63.2269 52.1493 64.4883C52.386 64.8742 52.9162 64.8272 53.1718 64.5448C53.1907 64.5824 53.2286 64.6107 53.2475 64.6389C50.3598 66.5404 47.4532 68.423 44.5371 70.315C44.3004 70.4657 44.2152 70.6727 44.2152 70.861C44.1584 70.7857 44.1016 70.701 44.0164 70.6351C43.2211 70.0327 42.4258 69.449 41.621 68.856C41.0435 69.2231 40.4565 69.5432 39.8411 69.8162C40.9772 70.5221 42.1323 71.2093 43.2968 71.8682C43.8838 72.1977 44.3383 71.7082 44.3194 71.2187C44.4898 71.4823 44.8401 71.6423 45.2093 71.4635C57.385 65.872 68.3961 57.6732 78.4888 48.9566C78.7918 48.693 78.8959 48.373 78.8486 48.0812C79.0001 47.9023 79.0569 47.6576 78.9338 47.3658V47.3846Z" fill="#1D1D1B"/>
<path d="M74.2378 42.4426C75.0331 44.137 75.9136 45.7843 76.8793 47.3657C74.5313 49.3707 72.1359 51.2816 69.7122 53.1265C69.5323 52.9477 69.2388 52.8724 68.9926 52.9477C67.847 51.451 66.6825 49.9637 65.4895 48.4859L65.6315 48.3823C65.7546 48.5894 66.0197 48.7118 66.2564 48.5518C68.8601 46.7162 71.6057 44.9842 74.02 42.9415C74.1904 42.8003 74.2473 42.6215 74.2473 42.4426H74.2378Z" fill="#8D86F9"/>
<path d="M68.5382 25.6591C66.1523 27.344 63.7758 29.0384 61.371 30.6857C61.0964 34.2815 60.481 37.8397 59.5437 41.3226C61.5604 43.6853 63.5486 46.0856 65.4895 48.4954L65.6315 48.3918C65.5179 48.213 65.4895 47.9776 65.6883 47.8176C68.1405 45.7938 70.5359 43.6099 73.149 41.8026C73.452 41.5955 73.7833 41.6991 74.0106 41.925C71.6152 36.7289 69.9015 31.1187 68.5571 25.6497L68.5382 25.6591Z" fill="#8D86F9"/>
<path d="M61.2952 52.8912C62.3366 54.2938 63.3781 55.6964 64.4101 57.0424C61.5603 59.0851 58.6631 61.0619 55.7281 63.0104C55.3494 61.0148 54.8854 59.038 54.3363 57.0424L54.6771 56.9483C54.7624 57.1554 55.018 57.306 55.2547 57.1554C57.2713 55.8376 59.4205 54.5197 61.2478 52.9477C61.2668 52.9289 61.2762 52.9101 61.2857 52.8818L61.2952 52.8912Z" fill="#8D86F9"/>
<path d="M53.7683 55.0187C53.9671 55.6964 54.166 56.3742 54.3458 57.0425L54.6867 56.9484C54.6204 56.8072 54.6299 56.6566 54.7719 56.5342C56.6276 54.9904 58.5212 53.3243 60.5568 52.0441C60.5852 52.0253 60.6325 52.0253 60.6609 52.0159C59.591 50.5474 58.5212 49.0696 57.4418 47.5823C56.4098 50.1521 55.179 52.6371 53.7683 55.0187Z" fill="#8D86F9"/>
<path d="M51.3066 58.7839C51.9694 60.4689 52.6132 62.1632 53.2097 63.8576C53.3044 63.8011 53.4085 63.7917 53.5032 63.867C53.56 63.8953 53.5789 63.9235 53.5884 63.9329C53.5979 63.9329 53.6168 63.9423 53.6736 63.9517C53.7872 63.98 53.9103 64.0176 54.0144 64.0459C54.0523 64.0553 54.0997 64.0647 54.1375 64.0647C54.4594 63.8576 54.7719 63.6411 55.1032 63.434C54.2795 61.2219 53.4464 59.0381 52.6132 56.873C52.1966 57.5226 51.7611 58.1626 51.3066 58.7933V58.7839Z" fill="#B696FB"/>
<path d="M52.1587 64.5071C51.3918 63.2363 50.6438 61.9467 49.9148 60.6477C47.9171 63.1987 45.6637 65.5802 43.1642 67.7358C42.6719 68.1594 42.1606 68.5359 41.621 68.8748C42.4257 69.4678 43.221 70.0514 44.0163 70.6539C44.1015 70.7198 44.1678 70.8045 44.2152 70.8798C44.2152 70.6915 44.3004 70.475 44.5371 70.3338C47.4532 68.4418 50.3598 66.5592 53.2475 64.6577C53.2285 64.6295 53.1907 64.6012 53.1717 64.5636C52.9161 64.846 52.3859 64.9024 52.1492 64.5071H52.1587Z" fill="#8D86F9"/>
</g>
<g style="mix-blend-mode:soft-light">
<path d="M39.9925 44.8242C36.1201 48.8907 32.1152 52.2512 26.7754 54.275C25.412 54.7927 25.9138 56.8448 27.3908 56.4965C33.1377 55.1034 38.9321 52.1759 42.7855 47.6105C44.395 45.6996 41.7629 42.9698 39.9925 44.8336V44.8242Z" fill="white"/>
</g>
</g>
<defs>
<clipPath id="clip0_34_1632">
<rect width="58" height="64" fill="white" transform="translate(21 8)"/>
</clipPath>
</defs>
</svg>
