<svg width="185" height="125" viewBox="0 0 185 125" fill="none" xmlns="http://www.w3.org/2000/svg">
<path d="M182.325 60.5201C183.381 60.6161 184.341 61.4801 184.341 62.6321C184.341 63.6881 183.477 64.6481 182.421 64.7441C178.677 64.6481 174.933 65.3201 171.477 66.7601C170.709 73.8641 166.965 98.8241 156.021 91.4321C150.645 87.7841 153.717 80.1041 156.117 75.4961C158.613 70.5041 162.549 66.4721 167.541 63.8801C168.309 54.7601 168.213 40.1681 159.669 42.0881C154.293 43.3361 151.797 50.0561 150.165 54.5681C142.101 76.3601 146.421 99.7841 147.573 122.248C147.765 125.032 143.445 125.032 143.349 122.248C142.965 116.104 142.581 110.056 141.909 103.912C140.565 89.4161 138.549 74.9201 136.053 60.6161C135.573 57.8321 139.701 56.6801 140.181 59.4641C140.853 63.1121 141.429 66.7601 142.005 70.4081C142.581 65.2241 143.733 60.0401 145.365 55.1441C147.285 49.3841 150.069 42.1841 155.733 39.1121C158.037 37.6721 160.917 37.2881 163.509 38.0561C166.101 38.8241 168.309 40.7441 169.557 43.1441C172.341 48.6161 172.149 55.9121 171.861 62.0561C175.221 61.0001 178.773 60.4241 182.325 60.5201ZM166.773 69.9281C166.869 69.7361 166.869 69.5441 166.869 69.3521C163.797 71.5601 161.301 74.5361 159.669 77.9921C158.517 80.2001 156.885 83.5601 157.461 86.1521C158.325 89.6081 161.109 88.0721 162.453 85.8641C165.045 81.3521 166.005 75.0161 166.773 69.9281Z" fill="black"/>
<path d="M137.426 62.7279C139.154 60.6159 141.842 63.2079 140.21 65.4159C136.274 70.5039 130.514 73.9599 124.178 75.2079C121.394 81.7359 118.994 90.9519 110.642 91.7199C104.018 92.3919 101.522 85.8639 100.466 80.4879C99.3143 74.0559 98.9303 67.4319 99.5063 60.8079C99.6023 60.2319 99.8903 59.7519 100.274 59.3679C98.2583 52.5519 99.1223 44.9679 104.882 40.3599C109.874 36.4239 116.498 38.1519 120.722 42.3759C128.018 49.6719 128.498 61.0959 125.618 70.5039C130.226 69.1599 134.354 66.4719 137.426 62.7279ZM113.042 86.4399C116.69 84.0399 117.746 79.3359 119.474 75.4959C113.042 75.1119 107.09 71.7519 103.634 66.2799C103.634 71.4639 103.922 92.5839 113.042 86.4399ZM120.914 71.3679C123.986 62.4399 124.562 50.0559 116.114 44.0079C111.506 40.8399 106.706 42.8559 104.69 47.8479C100.37 58.2159 109.586 71.9439 120.914 71.3679Z" fill="black"/>
<path d="M99.4862 63.7841C99.5822 63.0161 100.158 62.4401 100.83 62.2481C101.502 61.9601 102.366 62.2481 102.846 62.7281C103.326 63.3041 103.518 64.0721 103.326 64.7441C101.406 71.9441 99.8702 79.2401 97.6622 86.4401C93.2462 101.224 82.5902 99.8801 77.4062 86.4401C76.2542 83.5601 75.3902 80.5841 74.4302 77.7041C71.9342 69.5441 68.8622 67.5281 63.5822 75.4001C61.7582 77.9921 60.5102 80.8721 59.7422 83.9441C59.5502 84.9041 58.5902 85.5761 57.6302 85.5761C56.6702 85.5761 55.7102 84.9041 55.4222 83.9441C55.3262 83.5601 55.2302 83.0801 55.2302 82.6961C53.2142 64.6481 44.7662 19.1441 60.3182 7.72009C61.7582 6.76009 63.4862 6.37609 65.2142 6.6641C66.8462 6.9521 68.3822 7.9121 69.3422 9.3521C76.2542 18.6641 63.0062 51.3041 57.0542 60.5201C57.5342 65.4161 58.0142 70.2161 58.5902 75.0161C64.1582 65.0321 72.8942 61.8641 77.7902 74.2481C79.9022 79.6241 80.6702 86.3441 84.6062 90.8561C90.0782 97.0001 93.1502 86.6321 94.3022 82.6961C96.2222 76.4561 97.7582 70.1201 99.4862 63.7841ZM56.2862 30.6641C55.9982 38.0561 55.9982 45.3521 56.4782 52.7441C61.3742 42.8561 64.7342 32.3921 66.5582 21.5441C67.0382 18.8561 68.1902 12.4241 64.9262 11.0801C59.1662 8.7761 56.4782 26.8241 56.2862 30.6641Z" fill="black"/>
<path d="M33.3235 53.224C39.0835 58.408 45.0355 64.84 46.7635 72.712C49.7395 88.552 34.7635 104.488 19.2115 104.872C12.3955 105.064 6.15555 101.512 2.69955 95.656C-5.55645 80.968 10.7636 68.776 21.1316 61.288C23.4356 59.656 25.5476 63.4 23.3396 65.032C16.5236 69.928 6.63555 76.264 4.90755 85.288C3.56355 92.776 9.80355 99.496 16.9076 100.456C25.6436 101.608 33.9956 95.752 38.7956 88.936C55.9796 61 11.3396 50.344 3.56356 28.552C-2.77244 13.864 7.97954 1.48003 23.0515 1.00004C29.8675 0.424037 36.3955 3.78404 39.7555 9.73604C43.6915 17.416 40.0435 25.48 36.1075 32.296C35.4355 33.256 34.1876 33.64 33.1316 33.064C32.0756 32.392 31.7875 31.144 32.3635 30.088C34.9555 25.576 38.0276 20.2 36.9715 14.824C32.1715 -5.33596 -10.6445 8.39204 12.9715 35.368C19.0195 42.088 26.6035 47.176 33.3235 53.224Z" fill="black"/>
</svg>
