<svg width="192" height="187" viewBox="0 0 192 187" fill="none" xmlns="http://www.w3.org/2000/svg">
<path fill-rule="evenodd" clip-rule="evenodd" d="M97.1432 45.0272C126.352 45.0272 150.03 68.0681 150.03 96.4905C150.03 124.913 126.352 147.954 97.1432 147.954C67.9344 147.954 44.2559 124.913 44.2559 96.4905C44.2559 68.0682 67.9343 45.0272 97.1432 45.0272Z" fill="#FFE69C"/>
<path fill-rule="evenodd" clip-rule="evenodd" d="M0.0253477 102.793C-0.33289 97.9663 3.14815 93.8706 7.80017 93.6448C12.4521 93.4191 36.9024 94.6116 37.1971 100.731C37.4917 106.851 13.7493 110.898 9.09738 111.124C4.44543 111.35 0.383585 107.62 0.0253477 102.793Z" fill="#FEE7AF"/>
<path fill-rule="evenodd" clip-rule="evenodd" d="M13.5059 137.557C11.1445 133.338 11.8965 128.425 15.1851 126.585C18.4738 124.744 41.4167 118.119 43.333 121.603C44.8769 124.409 22.1074 152.928 13.5059 137.557V137.557Z" fill="#FEE7AF"/>
<path fill-rule="evenodd" clip-rule="evenodd" d="M191.315 121.02C192.888 116.448 191.274 111.747 187.711 110.521C184.147 109.295 160.392 106.855 159.126 110.624C158.106 113.661 185.584 137.675 191.315 121.02Z" fill="#FEE7AF"/>
<path fill-rule="evenodd" clip-rule="evenodd" d="M145.489 180.205C149.831 177.925 152.007 173.137 150.349 169.51C148.691 165.883 133.588 146.058 130.031 147.961C127.165 149.494 129.672 188.511 145.489 180.205Z" fill="#FEE7AF"/>
<path fill-rule="evenodd" clip-rule="evenodd" d="M105.598 185.05C109.879 184.082 112.847 180.01 112.226 175.956C111.605 171.901 104.99 154.421 101.475 155.247C98.6423 155.913 90.0029 188.574 105.598 185.05Z" fill="#FEE7AF"/>
<path fill-rule="evenodd" clip-rule="evenodd" d="M46.3398 13.3781C49.9633 10.1108 55.426 10.9928 57.932 14.4481C60.4379 17.9033 72.8819 40.5525 68.208 44.5716C63.5342 48.5908 46.8223 29.0058 44.3163 25.5505C41.8104 22.0953 42.7162 16.6455 46.3398 13.3781Z" fill="#FEE7AF"/>
<path fill-rule="evenodd" clip-rule="evenodd" d="M17.731 39.8914C20.1309 36.4201 24.2698 35.1223 26.9752 36.9927C29.6806 38.8631 50.8903 54.9621 47.759 59.2938C44.6278 63.6254 20.99 51.4339 18.2846 49.5636C15.5792 47.6932 15.3312 43.3628 17.731 39.8914Z" fill="#FEE7AF"/>
<path fill-rule="evenodd" clip-rule="evenodd" d="M154.585 18.6147C150.476 15.4324 145.134 15.4492 142.654 18.6518C140.174 21.8543 127.72 43.6269 133.008 47.5469C138.296 51.4669 155.054 33.3782 157.535 30.1756C160.015 26.9731 158.694 21.797 154.585 18.6147Z" fill="#FEE7AF"/>
<path fill-rule="evenodd" clip-rule="evenodd" d="M191.812 80.4402C191.319 75.63 187.88 72.042 184.131 72.4262C180.382 72.8104 157.723 78.3911 158.475 84.4689C158.813 87.1976 162.303 89.0451 167.842 89.7681C174.637 90.6552 183.85 90.0571 185.916 89.8455C189.665 89.4613 192.305 85.2504 191.812 80.4402L191.812 80.4402Z" fill="#FEE7AF"/>
<path fill-rule="evenodd" clip-rule="evenodd" d="M36.1776 165.825C38.8854 168.174 42.5643 168.367 44.3946 166.256C46.225 164.146 60.2705 146.42 56.7793 143.519C53.2881 140.617 36.4193 155.641 34.5889 157.752C32.7586 159.862 33.4697 163.477 36.1776 165.825Z" fill="#FEE7AF"/>
<path fill-rule="evenodd" clip-rule="evenodd" d="M65.5169 185.781C68.318 186.7 71.1697 185.676 71.8863 183.493C72.6029 181.31 79.6491 154.243 76.0777 153.153C72.5064 152.063 62.4594 177.98 61.7428 180.163C61.0261 182.346 62.7158 184.861 65.5169 185.781V185.781Z" fill="#FEE7AF"/>
<path fill-rule="evenodd" clip-rule="evenodd" d="M87.3454 0.0305604C90.5841 -0.262848 93.3754 1.58949 93.58 4.16756C93.7846 6.74563 94.3504 38.2406 90.2425 38.524C86.1346 38.8073 82.0564 7.80798 81.8517 5.22991C81.6471 2.65178 84.1067 0.323899 87.3454 0.030554L87.3454 0.0305604Z" fill="#FEE7AF"/>
<path fill-rule="evenodd" clip-rule="evenodd" d="M119.314 4.39393C115.338 3.68297 111.666 5.61852 111.112 8.71693C110.558 11.8153 107.189 37.0736 112.242 37.868C117.295 38.6624 124.955 14.39 125.509 11.2916C126.063 8.19323 123.289 5.10495 119.314 4.39393H119.314Z" fill="#FEE7AF"/>
<path fill-rule="evenodd" clip-rule="evenodd" d="M7.95199 69.0023C8.92265 66.2186 11.4684 64.5752 13.638 65.3317C15.8076 66.0882 41.5903 76.9293 40.287 80.4284C38.9838 83.9275 12.2925 76.1691 10.1229 75.4126C7.95333 74.6561 6.98128 71.7861 7.952 69.0023L7.95199 69.0023Z" fill="#FEE7AF"/>
<path fill-rule="evenodd" clip-rule="evenodd" d="M177.303 154.889C179.08 152.536 179.034 149.507 177.201 148.122C175.368 146.736 152.042 131.304 149.854 134.33C147.666 137.356 168.932 155.255 170.766 156.64C172.599 158.025 175.526 157.241 177.303 154.889Z" fill="#FEE7AF"/>
<path fill-rule="evenodd" clip-rule="evenodd" d="M179.398 45.7508C177.845 43.2444 175.003 42.1935 173.05 43.4034C171.097 44.6133 148.286 60.7976 150.318 63.9299C152.35 67.0622 176.718 53.6894 178.671 52.4796C180.625 51.2697 180.95 48.2571 179.398 45.7508Z" fill="#FEE7AF"/>
<path d="M66.769 98.534C66.7436 98.9584 67.0564 99.3399 67.4684 99.385C67.8809 99.43 68.2366 99.1227 68.2626 98.6977C68.6622 92.2535 70.9001 87.9632 73.7141 85.9672C74.7812 85.211 76.1835 84.6976 77.473 84.6976C78.7491 84.6981 80.0357 85.1231 81.2289 85.983C83.9073 87.9123 86.1277 92.0024 86.8386 98.3988C86.885 98.8249 87.2566 99.1465 87.6672 99.1163C88.0772 99.0872 88.3725 98.7163 88.3267 98.2902C87.741 93.026 86.1547 89.1702 84.0943 86.6708L86.5263 83.1695C86.7408 82.8579 86.6774 82.4197 86.3841 82.1918C86.0908 81.964 85.6782 82.0313 85.4637 82.3429L83.16 85.6598C82.7993 85.3133 82.4282 85.0028 82.0485 84.7294C81.5731 84.3871 81.0847 84.1015 80.5874 83.871L81.6819 79.4583C81.7741 79.0853 81.5641 78.7022 81.2129 78.6042C80.8618 78.5061 80.5011 78.7292 80.4088 79.1023L79.3392 83.4143C78.7012 83.241 78.0552 83.1541 77.4096 83.1536C76.839 83.1531 76.2703 83.2198 75.7091 83.3528L74.5153 79.3221C74.407 78.9533 74.0374 78.7472 73.6902 78.8622C73.343 78.9772 73.1489 79.3698 73.2572 79.7386L74.4505 83.7682C73.8977 84.0045 73.3569 84.3076 72.8351 84.678C72.4325 84.9636 72.0404 85.2895 71.6623 85.6551L69.2329 82.4907C69.0039 82.1918 68.5889 82.1463 68.3075 82.3895C68.0261 82.6327 67.9832 83.0736 68.2122 83.3724L70.7379 86.6624C68.6313 89.2412 67.0977 93.2263 66.769 98.534L66.769 98.534Z" fill="#25113B"/>
<path d="M128.731 98.534C128.757 98.9584 128.444 99.3399 128.032 99.385C127.619 99.43 127.264 99.1227 127.238 98.6977C126.838 92.2535 124.6 87.9632 121.786 85.9672C120.719 85.2111 119.317 84.6976 118.027 84.6976C116.751 84.6981 115.465 85.1231 114.271 85.9831C111.593 87.9123 109.373 92.0024 108.662 98.3989C108.615 98.8249 108.244 99.1465 107.833 99.1163C107.423 99.0872 107.128 98.7163 107.174 98.2903C107.759 93.0261 109.346 89.1703 111.406 86.6708L108.974 83.1695C108.76 82.858 108.823 82.4198 109.116 82.1919C109.41 81.9641 109.822 82.0314 110.037 82.3429L112.34 85.6599C112.701 85.3134 113.072 85.0028 113.452 84.7295C113.927 84.3871 114.416 84.1016 114.913 83.871L113.818 79.4584C113.726 79.0853 113.936 78.7022 114.287 78.6042C114.639 78.5061 114.999 78.7292 115.092 79.1023L116.161 83.4143C116.799 83.2411 117.445 83.1542 118.091 83.1536C118.661 83.1531 119.23 83.2198 119.791 83.3528L120.985 79.3222C121.093 78.9534 121.463 78.7473 121.81 78.8622C122.157 78.9772 122.351 79.3698 122.243 79.7387L121.05 83.7682C121.603 84.0046 122.143 84.3077 122.665 84.6781C123.068 84.9636 123.46 85.2895 123.838 85.6551L126.267 82.4907C126.496 82.1919 126.911 82.1463 127.193 82.3895C127.474 82.6328 127.517 83.0736 127.288 83.3724L124.762 86.6624C126.869 89.2412 128.403 93.2263 128.731 98.534L128.731 98.534Z" fill="#25113B"/>
<path d="M90.1398 116.822C90.0427 116.404 89.6253 116.145 89.208 116.242C88.7907 116.339 88.5312 116.756 88.6283 117.174C89.2469 119.799 90.7819 122.07 92.744 123.549C94.0761 124.554 95.6117 125.199 97.2019 125.353C98.808 125.508 100.46 125.161 102.005 124.177C103.93 122.951 105.676 120.733 106.924 117.259C107.068 116.856 106.859 116.413 106.457 116.269C106.055 116.125 105.611 116.334 105.467 116.737C104.346 119.858 102.826 121.819 101.173 122.871C99.9405 123.657 98.6246 123.934 97.3477 123.811C96.0549 123.686 94.7902 123.149 93.6788 122.311C91.993 121.04 90.6731 119.085 90.1398 116.822Z" fill="#25113B"/>
</svg>
