<svg width="346" height="63" viewBox="0 0 346 63" fill="none" xmlns="http://www.w3.org/2000/svg">
<g filter="url(#filter0_d_15_256)">
<path d="M28.0081 24.768C42.7261 34.8 32.5621 54.336 16.1281 50.442C12.1021 49.32 8.53806 46.944 6.03005 43.578C5.37005 42.72 5.50205 41.466 6.36005 40.74L11.3101 36.714C11.7721 36.384 12.3001 36.186 12.8281 36.252C13.4221 36.318 13.8841 36.648 14.2141 37.11C16.3921 39.882 20.7481 41.928 23.3221 39.288C24.4441 38.364 25.1041 37.11 24.3781 35.79C23.1241 33.546 20.2201 32.358 17.9761 31.302C11.8381 28.332 5.37005 24.174 4.97405 16.65C4.57805 8.994 10.1221 2.658 17.5801 1.47C23.7841 0.545997 29.9221 3.648 32.9581 9.126C33.2221 9.654 33.2881 10.248 33.0901 10.776C32.8921 11.37 32.4961 11.766 31.9681 12.03L25.8961 14.67C24.9721 15.066 23.8501 14.736 23.3221 13.878C22.4641 12.492 20.8801 11.7 19.2301 11.898C17.5141 12.162 15.6001 13.482 15.4681 15.264C15.2701 17.508 17.3821 19.026 19.2301 20.082C22.1341 21.732 25.2361 22.92 28.0081 24.768Z" fill="#632E9E"/>
<path d="M69.9825 4.176C70.5105 4.044 71.0385 4.176 71.5005 4.44C71.9625 4.77 72.2925 5.232 72.4245 5.76C73.5465 11.502 73.9425 17.376 73.4805 23.25C72.8865 30.51 71.5005 38.826 65.4945 43.776C59.3565 48.792 50.3805 48.198 45.0345 42.324C40.1505 36.912 38.5005 28.794 38.3685 21.732C38.3025 16.65 38.8305 11.568 39.8865 6.552C39.9525 6.024 40.2825 5.562 40.7445 5.232C41.2065 4.968 41.7345 4.836 42.2625 4.968L48.6645 6.288C49.7205 6.486 50.4465 7.542 50.2485 8.664C49.2585 13.812 48.5985 19.026 49.0605 24.24C49.3905 28.134 51.0405 37.374 56.6505 36.714C61.8645 36.054 62.6565 26.748 62.9205 22.788C63.3165 17.838 62.9865 12.822 61.9965 7.938C61.7985 6.816 62.5245 5.76 63.5805 5.496L69.9825 4.176ZM173.878 33.612L183.514 39.288C184.438 39.882 184.768 41.004 184.24 41.994L181.336 47.802C181.072 48.33 180.61 48.66 180.082 48.858C179.488 48.99 178.96 48.924 178.432 48.594L163.912 40.014C163.648 39.882 163.318 39.882 163.054 40.014C162.856 40.212 162.658 40.476 162.658 40.74L162.856 46.944C162.922 48.066 161.998 48.99 160.876 49.056L154.87 49.254C153.748 49.254 152.758 48.396 152.758 47.274L151.372 4.308C151.306 3.186 152.164 2.262 153.286 2.196C163.252 1.866 174.076 2.988 180.082 11.238C186.022 19.29 181.798 27.87 173.878 32.16C173.614 32.292 173.482 32.556 173.482 32.886C173.416 33.15 173.614 33.48 173.878 33.612ZM170.71 21.6C173.02 19.686 172.822 18.3 170.578 16.386C168.532 14.736 166.156 13.68 163.582 13.218C163.186 13.152 162.724 13.218 162.394 13.482C162.13 13.746 161.932 14.142 161.932 14.604C161.998 17.64 162.13 20.742 162.196 23.778C162.196 24.24 162.394 24.636 162.79 24.834C163.12 25.098 163.582 25.164 163.978 25.032C166.42 24.24 168.796 23.184 170.71 21.6ZM273.777 6.948C273.777 5.826 274.701 4.902 275.823 4.902H304.863C305.457 4.902 305.919 5.1 306.315 5.496C306.711 5.892 306.909 6.42 306.909 6.948V13.416C306.909 14.604 305.985 15.462 304.863 15.462H295.821C295.359 15.462 295.029 15.858 295.029 16.254C294.831 26.088 294.567 35.856 294.369 45.69C294.369 46.812 293.445 47.67 292.323 47.67H285.855C285.327 47.67 284.799 47.472 284.403 47.076C284.007 46.68 283.809 46.152 283.809 45.624C284.007 35.856 284.205 26.088 284.403 16.32C284.403 16.122 284.337 15.858 284.205 15.726C284.007 15.594 283.809 15.462 283.611 15.462H275.823C275.229 15.462 274.701 15.264 274.371 14.868C273.975 14.472 273.711 13.944 273.777 13.416V6.948Z" fill="#26B6C0"/>
<path d="M100.196 24.768C114.914 34.8 104.75 54.336 88.3156 50.442C84.2896 49.32 80.7256 46.944 78.2176 43.578C77.5576 42.72 77.6896 41.466 78.5476 40.74L83.4976 36.714C83.9596 36.384 84.4876 36.186 85.0156 36.252C85.6096 36.318 86.0716 36.648 86.4016 37.11C88.5796 39.882 92.9356 41.928 95.5096 39.288C96.6316 38.364 97.2916 37.11 96.5656 35.79C95.3116 33.546 92.4076 32.358 90.1636 31.302C84.0256 28.332 77.5576 24.174 77.1616 16.65C76.7656 8.994 82.3096 2.658 89.7676 1.47C95.9716 0.545997 102.11 3.648 105.146 9.126C105.41 9.654 105.476 10.248 105.278 10.776C105.08 11.37 104.684 11.766 104.156 12.03L98.0836 14.67C97.1596 15.066 96.0376 14.736 95.5096 13.878C94.6516 12.492 93.0676 11.7 91.4176 11.898C89.7016 12.162 87.7876 13.482 87.6556 15.264C87.4576 17.508 89.5696 19.026 91.4176 20.082C94.3216 21.732 97.4236 22.92 100.196 24.768ZM197.083 5.232C198.205 5.232 199.129 6.156 199.129 7.278V45.228C199.129 45.756 198.931 46.284 198.535 46.68C198.139 47.076 197.611 47.274 197.017 47.274L190.549 47.142C189.427 47.142 188.569 46.218 188.569 45.096V7.146C188.569 6.618 188.767 6.09 189.163 5.694C189.559 5.298 190.087 5.1 190.615 5.1L197.083 5.232ZM338.641 37.044C339.763 36.978 340.687 37.836 340.687 38.958L341.017 45.426C341.017 46.02 340.819 46.548 340.423 46.944C340.093 47.34 339.565 47.604 338.971 47.604C330.127 47.67 321.217 47.736 312.373 47.802C311.779 47.802 311.317 47.538 310.921 47.208C310.525 46.812 310.261 46.284 310.261 45.756L310.195 5.364C310.129 4.242 311.053 3.318 312.175 3.318C320.491 3.186 328.807 3.054 337.123 2.922C338.179 2.922 339.103 3.714 339.169 4.77L339.697 11.304C339.763 11.832 339.565 12.426 339.169 12.822C338.773 13.218 338.245 13.482 337.717 13.482C332.173 13.614 326.629 13.68 321.085 13.746C320.887 13.746 320.623 13.878 320.491 14.01C320.359 14.142 320.293 14.34 320.293 14.604C320.293 17.31 320.359 20.082 320.359 22.788C320.425 23.052 320.491 23.25 320.689 23.448C320.821 23.58 321.085 23.646 321.283 23.646C325.243 23.184 329.203 22.656 333.097 22.128C334.087 21.996 335.077 22.59 335.341 23.58L337.189 29.784C337.387 30.378 337.255 30.972 336.991 31.5C336.661 31.962 336.133 32.292 335.539 32.424C330.787 33.084 325.969 33.744 321.217 34.272C320.755 34.338 320.425 34.734 320.491 35.13L320.557 36.384C320.557 36.78 320.953 37.11 321.349 37.11C327.157 37.11 332.899 37.044 338.641 37.044Z" fill="#FFE800"/>
<path d="M127.056 36.978C131.478 38.76 135.504 36.45 137.286 32.688C137.682 31.896 138.606 31.434 139.53 31.632L146.13 33.018C146.724 33.084 147.186 33.48 147.45 34.008C147.78 34.536 147.846 35.13 147.648 35.724C144.942 43.38 136.89 48.726 128.64 48C111.414 46.482 104.88 24.24 114.516 11.37C119.202 5.034 127.914 1.206 135.702 3.78C140.322 5.364 144.15 8.796 146.196 13.284C146.46 13.812 146.46 14.472 146.196 15.066C145.932 15.594 145.404 15.99 144.81 16.122L138.21 17.574C137.418 17.772 136.56 17.442 136.098 16.716C134.712 14.472 132.138 13.284 129.498 13.614C118.674 15.066 117.42 32.952 127.056 36.978ZM269.676 37.044C270.798 36.978 271.722 37.836 271.722 38.958L272.052 45.426C272.052 46.02 271.854 46.548 271.458 46.944C271.128 47.34 270.6 47.604 270.006 47.604C261.162 47.67 252.252 47.736 243.408 47.802C242.814 47.802 242.352 47.538 241.956 47.208C241.56 46.812 241.296 46.284 241.296 45.756L241.23 5.364C241.164 4.242 242.088 3.318 243.21 3.318C251.526 3.186 259.842 3.054 268.158 2.922C269.214 2.922 270.138 3.714 270.204 4.77L270.732 11.304C270.798 11.832 270.6 12.426 270.204 12.822C269.808 13.218 269.28 13.482 268.752 13.482C263.208 13.614 257.664 13.68 252.12 13.746C251.922 13.746 251.658 13.878 251.526 14.01C251.394 14.142 251.328 14.34 251.328 14.604C251.328 17.31 251.394 20.082 251.394 22.788C251.46 23.052 251.526 23.25 251.724 23.448C251.856 23.58 252.12 23.646 252.318 23.646C256.278 23.184 260.238 22.656 264.132 22.128C265.122 21.996 266.112 22.59 266.376 23.58L268.224 29.784C268.422 30.378 268.29 30.972 268.026 31.5C267.696 31.962 267.168 32.292 266.574 32.424C261.822 33.084 257.004 33.744 252.252 34.272C251.79 34.338 251.46 34.734 251.526 35.13L251.592 36.384C251.592 36.78 251.988 37.11 252.384 37.11C258.192 37.11 263.934 37.044 269.676 37.044Z" fill="#EE119D"/>
<path d="M233.715 25.296C238.137 30.708 238.599 38.364 233.583 43.578C227.445 49.716 216.687 50.508 208.173 49.914C207.183 49.782 206.325 48.99 206.325 47.934L204.675 3.384C204.609 2.328 205.401 1.404 206.523 1.272C214.641 0.545997 225.597 0.545997 229.821 8.4C231.867 12.36 231.801 17.046 229.557 20.874C229.359 21.27 229.491 21.798 229.821 21.996C231.339 22.854 232.593 23.976 233.715 25.296ZM215.631 16.914C215.631 17.178 215.697 17.376 215.895 17.508C216.093 17.706 216.357 17.772 216.621 17.706C221.967 16.452 222.495 12.162 216.357 11.634C216.159 11.634 215.895 11.7 215.763 11.832C215.565 12.03 215.499 12.228 215.499 12.492C215.499 13.944 215.565 15.462 215.631 16.914ZM224.475 37.242C226.983 35.856 227.577 33.612 225.069 31.5C223.155 29.85 219.855 29.19 216.885 28.728C216.687 28.662 216.423 28.728 216.225 28.926C216.027 29.058 215.961 29.322 215.961 29.52L216.225 38.496C216.225 38.76 216.291 38.958 216.489 39.09C216.621 39.222 216.885 39.288 217.083 39.288C219.723 39.024 222.297 38.496 224.475 37.242Z" fill="#7C3AC5"/>
</g>
<defs>
<filter id="filter0_d_15_256" x="0.578125" y="0.546021" width="344.439" height="61.79" filterUnits="userSpaceOnUse" color-interpolation-filters="sRGB">
<feFlood flood-opacity="0" result="BackgroundImageFix"/>
<feColorMatrix in="SourceAlpha" type="matrix" values="0 0 0 0 0 0 0 0 0 0 0 0 0 0 0 0 0 0 127 0" result="hardAlpha"/>
<feOffset dy="4"/>
<feGaussianBlur stdDeviation="2"/>
<feComposite in2="hardAlpha" operator="out"/>
<feColorMatrix type="matrix" values="0 0 0 0 0 0 0 0 0 0 0 0 0 0 0 0 0 0 0.25 0"/>
<feBlend mode="normal" in2="BackgroundImageFix" result="effect1_dropShadow_15_256"/>
<feBlend mode="normal" in="SourceGraphic" in2="effect1_dropShadow_15_256" result="shape"/>
</filter>
</defs>
</svg>
